M48
METRIC,LZ,000.000
;FILE_FORMAT=3:3
;TYPE=PLATED
;Layer: PTH_Through
;EasyEDA v6.5.15, 2022-10-09 16:14:37
;0b1594b3c9ed43a1be065a43cbb3c8b9,5f1b69652c614dc78b77d9171f06c583,10
;Gerber Generator version 0.2
;Holesize 1 = 0.762 mm
T01C0.762
;Holesize 2 = 0.813 mm
T02C0.813
;Holesize 3 = 0.900 mm
T03C0.900
;Holesize 4 = 0.901 mm
T04C0.901
;Holesize 5 = 0.915 mm
T05C0.915
;Holesize 6 = 1.000 mm
T06C1.000
;Holesize 7 = 1.016 mm
T07C1.016
;Holesize 8 = 1.200 mm
T08C1.200
;Holesize 9 = 1.270 mm
T09C1.270
;Holesize 10 = 4.064 mm
T10C4.064
%
G05
G90
T01
X011449Y083423G85X011449Y083428
X011449Y080883G85X011449Y080888
X011449Y078343G85X011449Y078348
X011449Y073264G85X011449Y073269
X011449Y070724G85X011449Y070729
T02
X058293Y027051
X060833Y027051
X058293Y016129
X060833Y016129
X076073Y053594
X074041Y055118
X076073Y056642
X076073Y039243
X074041Y040767
X076073Y042291
T03
X019558Y034163
X011938Y034163
T04
X011354Y039243
X011354Y046863
X011354Y044323
X011354Y041783
T05
X026598Y062105G85X026593Y062105
X024058Y062105G85X024053Y062105
X032224Y062101G85X032229Y062101
X034764Y062101G85X034769Y062101
X041720Y037592
X053404Y037592
X041720Y033401
X053404Y033401
X041720Y055118
X053404Y055118
X041720Y050752
X053404Y050752
X041720Y046387
X053404Y046387
X057150Y060706
X068834Y060706
X057150Y055118
X068834Y055118
X071565Y060706
X083249Y060706
X057150Y066294
X068834Y066294
X083249Y066294
X071565Y066294
X071565Y046387
X083249Y046387
X057150Y040767
X068834Y040767
X057150Y046387
X068834Y046387
T06
X050165Y029210G85X050165Y029210
X047625Y029210G85X047625Y029210
X045085Y029210G85X045085Y029210
X042545Y029210G85X042545Y029210
X040005Y029210G85X040005Y029210
X037465Y029210G85X037465Y029210
X034925Y029210G85X034925Y029210
X032385Y029210G85X032385Y029210
X029845Y029210G85X029845Y029210
X027305Y029210G85X027305Y029210
X024765Y029210G85X024765Y029210
X022225Y029210G85X022225Y029210
X050165Y013970G85X050165Y013970
X047625Y013970G85X047625Y013970
X045085Y013970G85X045085Y013970
X042545Y013970G85X042545Y013970
X040005Y013970G85X040005Y013970
X037465Y013970G85X037465Y013970
X032385Y013970G85X032385Y013970
X029845Y013970G85X029845Y013970
X024765Y013970G85X024765Y013970
X022225Y013970G85X022225Y013970
X027305Y013970G85X027305Y013970
X034925Y013970G85X034925Y013970
X019685Y029210G85X019685Y029210
X017145Y029210G85X017145Y029210
X014605Y029210G85X014605Y029210
X019685Y013970G85X019685Y013970
X017145Y013970G85X017145Y013970
X014605Y013970G85X014605Y013970
X040005Y080899
X042545Y080899
X042545Y078359
X040005Y078359
T07
X060579Y075565
X063119Y075565
X065659Y075565
X068199Y075565
X070739Y075565
X073279Y075565
X075819Y075565
X078359Y075565
X065659Y083185
X068199Y083185
X070739Y083185
X073279Y083185
X075819Y083185
X078359Y083185
X063119Y083185
X060579Y083185
T08
X040767Y064643
X040767Y059563
X018055Y059563
X018055Y064643
X011684Y059563
X011684Y064643
T09
X031493Y067942G85X031499Y067942
X028953Y067942G85X028959Y067942
X026413Y067942G85X026419Y067942
T10
X028953Y084325G85X028959Y084325
M30
