G04 Layer: BottomLayer*
G04 EasyEDA v6.5.15, 2022-10-09 16:14:37*
G04 0b1594b3c9ed43a1be065a43cbb3c8b9,5f1b69652c614dc78b77d9171f06c583,10*
G04 Gerber Generator version 0.2*
G04 Scale: 100 percent, Rotated: No, Reflected: No *
G04 Dimensions in millimeters *
G04 leading zeros omitted , absolute positions ,4 integer and 5 decimal *
%FSLAX45Y45*%
%MOMM*%

%ADD10C,0.4000*%
%ADD11C,1.0000*%
%ADD12C,1.8000*%
%ADD13C,1.5240*%
%ADD14C,1.8796*%
%ADD15R,1.5080X1.5080*%
%ADD16C,1.5080*%
%ADD17C,1.4000*%
%ADD18R,2.0000X2.0000*%
%ADD19C,2.0000*%
%ADD20C,1.7780*%
%ADD21C,6.0000*%
%ADD22C,0.0135*%

%LPD*%
G36*
X736092Y1016508D02*
G01*
X732180Y1017269D01*
X728929Y1019505D01*
X726694Y1022756D01*
X725932Y1026668D01*
X725932Y8863838D01*
X726694Y8867749D01*
X728929Y8871000D01*
X732180Y8873236D01*
X736092Y8873998D01*
X8561832Y8873998D01*
X8565743Y8873236D01*
X8568994Y8871000D01*
X8571230Y8867749D01*
X8571992Y8863838D01*
X8571992Y1026668D01*
X8571230Y1022756D01*
X8568994Y1019505D01*
X8565743Y1017269D01*
X8561832Y1016508D01*
G37*

%LPC*%
G36*
X7607300Y5263540D02*
G01*
X7620355Y5264404D01*
X7633157Y5267096D01*
X7645501Y5271465D01*
X7657134Y5277459D01*
X7667802Y5285028D01*
X7677353Y5293969D01*
X7685633Y5304129D01*
X7692440Y5315305D01*
X7697673Y5327294D01*
X7701178Y5339892D01*
X7702956Y5352846D01*
X7702956Y5365953D01*
X7701178Y5378907D01*
X7697673Y5391505D01*
X7692440Y5403494D01*
X7685633Y5414670D01*
X7677353Y5424830D01*
X7667802Y5433771D01*
X7657134Y5441340D01*
X7645501Y5447334D01*
X7633157Y5451703D01*
X7620355Y5454396D01*
X7607300Y5455259D01*
X7594244Y5454396D01*
X7581442Y5451703D01*
X7569098Y5447334D01*
X7557465Y5441340D01*
X7546797Y5433771D01*
X7537246Y5424830D01*
X7528966Y5414670D01*
X7522159Y5403494D01*
X7516977Y5391505D01*
X7513421Y5378907D01*
X7511643Y5365953D01*
X7511643Y5352846D01*
X7513421Y5339892D01*
X7516977Y5327294D01*
X7522159Y5315305D01*
X7528966Y5304129D01*
X7537246Y5293969D01*
X7546797Y5285028D01*
X7557465Y5277459D01*
X7569098Y5271465D01*
X7581442Y5267096D01*
X7594244Y5264404D01*
G37*
G36*
X1711096Y1295755D02*
G01*
X1724660Y1296212D01*
X1737969Y1298498D01*
X1750923Y1302461D01*
X1763166Y1308201D01*
X1774596Y1315466D01*
X1784908Y1324203D01*
X1794002Y1334211D01*
X1801622Y1345387D01*
X1807768Y1357477D01*
X1812188Y1370228D01*
X1814880Y1383487D01*
X1815795Y1397000D01*
X1814880Y1410512D01*
X1812188Y1423771D01*
X1807768Y1436522D01*
X1801622Y1448612D01*
X1794002Y1459788D01*
X1784908Y1469796D01*
X1774596Y1478534D01*
X1763166Y1485798D01*
X1750923Y1491538D01*
X1737969Y1495501D01*
X1724660Y1497787D01*
X1711096Y1498244D01*
X1697634Y1496872D01*
X1684477Y1493723D01*
X1671878Y1488897D01*
X1659991Y1482394D01*
X1649120Y1474368D01*
X1639366Y1464919D01*
X1630984Y1454302D01*
X1624076Y1442669D01*
X1618843Y1430223D01*
X1615236Y1417167D01*
X1613458Y1403756D01*
X1613458Y1390243D01*
X1615236Y1376832D01*
X1618843Y1363776D01*
X1624076Y1351330D01*
X1630984Y1339697D01*
X1639366Y1329080D01*
X1649120Y1319631D01*
X1659991Y1311605D01*
X1671878Y1305102D01*
X1684477Y1300276D01*
X1697634Y1297127D01*
G37*
G36*
X1965096Y1295755D02*
G01*
X1978660Y1296212D01*
X1991969Y1298498D01*
X2004923Y1302461D01*
X2017166Y1308201D01*
X2028596Y1315466D01*
X2038908Y1324203D01*
X2048002Y1334211D01*
X2055622Y1345387D01*
X2061768Y1357477D01*
X2066188Y1370228D01*
X2068880Y1383487D01*
X2069795Y1397000D01*
X2068880Y1410512D01*
X2066188Y1423771D01*
X2061768Y1436522D01*
X2055622Y1448612D01*
X2048002Y1459788D01*
X2038908Y1469796D01*
X2028596Y1478534D01*
X2017166Y1485798D01*
X2004923Y1491538D01*
X1991969Y1495501D01*
X1978660Y1497787D01*
X1965096Y1498244D01*
X1951634Y1496872D01*
X1938477Y1493723D01*
X1925878Y1488897D01*
X1913991Y1482394D01*
X1903120Y1474368D01*
X1893366Y1464919D01*
X1884984Y1454302D01*
X1878075Y1442669D01*
X1872843Y1430223D01*
X1869236Y1417167D01*
X1867458Y1403756D01*
X1867458Y1390243D01*
X1869236Y1376832D01*
X1872843Y1363776D01*
X1878075Y1351330D01*
X1884984Y1339697D01*
X1893366Y1329080D01*
X1903120Y1319631D01*
X1913991Y1311605D01*
X1925878Y1305102D01*
X1938477Y1300276D01*
X1951634Y1297127D01*
G37*
G36*
X3235096Y1295755D02*
G01*
X3248660Y1296212D01*
X3261969Y1298498D01*
X3274923Y1302461D01*
X3287166Y1308201D01*
X3298596Y1315466D01*
X3308908Y1324203D01*
X3318001Y1334211D01*
X3325622Y1345387D01*
X3331768Y1357477D01*
X3336188Y1370228D01*
X3338880Y1383487D01*
X3339795Y1397000D01*
X3338880Y1410512D01*
X3336188Y1423771D01*
X3331768Y1436522D01*
X3325622Y1448612D01*
X3318001Y1459788D01*
X3308908Y1469796D01*
X3298596Y1478534D01*
X3287166Y1485798D01*
X3274923Y1491538D01*
X3261969Y1495501D01*
X3248660Y1497787D01*
X3235096Y1498244D01*
X3221634Y1496872D01*
X3208477Y1493723D01*
X3195878Y1488897D01*
X3183991Y1482394D01*
X3173120Y1474368D01*
X3163366Y1464919D01*
X3154984Y1454302D01*
X3148076Y1442669D01*
X3142843Y1430223D01*
X3139236Y1417167D01*
X3137458Y1403756D01*
X3137458Y1390243D01*
X3139236Y1376832D01*
X3142843Y1363776D01*
X3148076Y1351330D01*
X3154984Y1339697D01*
X3163366Y1329080D01*
X3173120Y1319631D01*
X3183991Y1311605D01*
X3195878Y1305102D01*
X3208477Y1300276D01*
X3221634Y1297127D01*
G37*
G36*
X2219096Y1295755D02*
G01*
X2232660Y1296212D01*
X2245969Y1298498D01*
X2258923Y1302461D01*
X2271166Y1308201D01*
X2282596Y1315466D01*
X2292908Y1324203D01*
X2302002Y1334211D01*
X2309622Y1345387D01*
X2315768Y1357477D01*
X2320188Y1370228D01*
X2322880Y1383487D01*
X2323795Y1397000D01*
X2322880Y1410512D01*
X2320188Y1423771D01*
X2315768Y1436522D01*
X2309622Y1448612D01*
X2302002Y1459788D01*
X2292908Y1469796D01*
X2282596Y1478534D01*
X2271166Y1485798D01*
X2258923Y1491538D01*
X2245969Y1495501D01*
X2232660Y1497787D01*
X2219096Y1498244D01*
X2205634Y1496872D01*
X2192477Y1493723D01*
X2179878Y1488897D01*
X2167991Y1482394D01*
X2157120Y1474368D01*
X2147366Y1464919D01*
X2138984Y1454302D01*
X2132076Y1442669D01*
X2126843Y1430223D01*
X2123236Y1417167D01*
X2121458Y1403756D01*
X2121458Y1390243D01*
X2123236Y1376832D01*
X2126843Y1363776D01*
X2132076Y1351330D01*
X2138984Y1339697D01*
X2147366Y1329080D01*
X2157120Y1319631D01*
X2167991Y1311605D01*
X2179878Y1305102D01*
X2192477Y1300276D01*
X2205634Y1297127D01*
G37*
G36*
X2981096Y1295755D02*
G01*
X2994660Y1296212D01*
X3007969Y1298498D01*
X3020923Y1302461D01*
X3033166Y1308201D01*
X3044596Y1315466D01*
X3054908Y1324203D01*
X3064002Y1334211D01*
X3071622Y1345387D01*
X3077768Y1357477D01*
X3082188Y1370228D01*
X3084880Y1383487D01*
X3085795Y1397000D01*
X3084880Y1410512D01*
X3082188Y1423771D01*
X3077768Y1436522D01*
X3071622Y1448612D01*
X3064002Y1459788D01*
X3054908Y1469796D01*
X3044596Y1478534D01*
X3033166Y1485798D01*
X3020923Y1491538D01*
X3007969Y1495501D01*
X2994660Y1497787D01*
X2981096Y1498244D01*
X2967634Y1496872D01*
X2954477Y1493723D01*
X2941878Y1488897D01*
X2929991Y1482394D01*
X2919120Y1474368D01*
X2909366Y1464919D01*
X2900984Y1454302D01*
X2894076Y1442669D01*
X2888843Y1430223D01*
X2885236Y1417167D01*
X2883458Y1403756D01*
X2883458Y1390243D01*
X2885236Y1376832D01*
X2888843Y1363776D01*
X2894076Y1351330D01*
X2900984Y1339697D01*
X2909366Y1329080D01*
X2919120Y1319631D01*
X2929991Y1311605D01*
X2941878Y1305102D01*
X2954477Y1300276D01*
X2967634Y1297127D01*
G37*
G36*
X5013096Y1295755D02*
G01*
X5026660Y1296212D01*
X5039969Y1298498D01*
X5052923Y1302461D01*
X5065166Y1308201D01*
X5076596Y1315466D01*
X5086908Y1324203D01*
X5096002Y1334211D01*
X5103622Y1345387D01*
X5109768Y1357477D01*
X5114188Y1370228D01*
X5116880Y1383487D01*
X5117795Y1397000D01*
X5116880Y1410512D01*
X5114188Y1423771D01*
X5109768Y1436522D01*
X5103622Y1448612D01*
X5096002Y1459788D01*
X5086908Y1469796D01*
X5076596Y1478534D01*
X5065166Y1485798D01*
X5052923Y1491538D01*
X5039969Y1495501D01*
X5026660Y1497787D01*
X5013096Y1498244D01*
X4999634Y1496872D01*
X4986477Y1493723D01*
X4973878Y1488897D01*
X4961991Y1482394D01*
X4951120Y1474368D01*
X4941366Y1464919D01*
X4932984Y1454302D01*
X4926076Y1442669D01*
X4920843Y1430223D01*
X4917236Y1417167D01*
X4915458Y1403756D01*
X4915458Y1390243D01*
X4917236Y1376832D01*
X4920843Y1363776D01*
X4926076Y1351330D01*
X4932984Y1339697D01*
X4941366Y1329080D01*
X4951120Y1319631D01*
X4961991Y1311605D01*
X4973878Y1305102D01*
X4986477Y1300276D01*
X4999634Y1297127D01*
G37*
G36*
X2473096Y1295755D02*
G01*
X2486660Y1296212D01*
X2499969Y1298498D01*
X2512923Y1302461D01*
X2525166Y1308201D01*
X2536596Y1315466D01*
X2546908Y1324203D01*
X2556002Y1334211D01*
X2563622Y1345387D01*
X2569768Y1357477D01*
X2574188Y1370228D01*
X2576880Y1383487D01*
X2577795Y1397000D01*
X2576880Y1410512D01*
X2574188Y1423771D01*
X2569768Y1436522D01*
X2563622Y1448612D01*
X2556002Y1459788D01*
X2546908Y1469796D01*
X2536596Y1478534D01*
X2525166Y1485798D01*
X2512923Y1491538D01*
X2499969Y1495501D01*
X2486660Y1497787D01*
X2473096Y1498244D01*
X2459634Y1496872D01*
X2446477Y1493723D01*
X2433878Y1488897D01*
X2421991Y1482394D01*
X2411120Y1474368D01*
X2401366Y1464919D01*
X2392984Y1454302D01*
X2386076Y1442669D01*
X2380843Y1430223D01*
X2377236Y1417167D01*
X2375458Y1403756D01*
X2375458Y1390243D01*
X2377236Y1376832D01*
X2380843Y1363776D01*
X2386076Y1351330D01*
X2392984Y1339697D01*
X2401366Y1329080D01*
X2411120Y1319631D01*
X2421991Y1311605D01*
X2433878Y1305102D01*
X2446477Y1300276D01*
X2459634Y1297127D01*
G37*
G36*
X3489096Y1295755D02*
G01*
X3502660Y1296212D01*
X3515969Y1298498D01*
X3528923Y1302461D01*
X3541166Y1308201D01*
X3552596Y1315466D01*
X3562908Y1324203D01*
X3572001Y1334211D01*
X3579622Y1345387D01*
X3585768Y1357477D01*
X3590188Y1370228D01*
X3592880Y1383487D01*
X3593795Y1397000D01*
X3592880Y1410512D01*
X3590188Y1423771D01*
X3585768Y1436522D01*
X3579622Y1448612D01*
X3572001Y1459788D01*
X3562908Y1469796D01*
X3552596Y1478534D01*
X3541166Y1485798D01*
X3528923Y1491538D01*
X3515969Y1495501D01*
X3502660Y1497787D01*
X3489096Y1498244D01*
X3475634Y1496872D01*
X3462477Y1493723D01*
X3449878Y1488897D01*
X3437991Y1482394D01*
X3427120Y1474368D01*
X3417366Y1464919D01*
X3408984Y1454302D01*
X3402076Y1442669D01*
X3396843Y1430223D01*
X3393236Y1417167D01*
X3391458Y1403756D01*
X3391458Y1390243D01*
X3393236Y1376832D01*
X3396843Y1363776D01*
X3402076Y1351330D01*
X3408984Y1339697D01*
X3417366Y1329080D01*
X3427120Y1319631D01*
X3437991Y1311605D01*
X3449878Y1305102D01*
X3462477Y1300276D01*
X3475634Y1297127D01*
G37*
G36*
X2727096Y1295755D02*
G01*
X2740660Y1296212D01*
X2753969Y1298498D01*
X2766923Y1302461D01*
X2779166Y1308201D01*
X2790596Y1315466D01*
X2800908Y1324203D01*
X2810002Y1334211D01*
X2817622Y1345387D01*
X2823768Y1357477D01*
X2828188Y1370228D01*
X2830880Y1383487D01*
X2831795Y1397000D01*
X2830880Y1410512D01*
X2828188Y1423771D01*
X2823768Y1436522D01*
X2817622Y1448612D01*
X2810002Y1459788D01*
X2800908Y1469796D01*
X2790596Y1478534D01*
X2779166Y1485798D01*
X2766923Y1491538D01*
X2753969Y1495501D01*
X2740660Y1497787D01*
X2727096Y1498244D01*
X2713634Y1496872D01*
X2700477Y1493723D01*
X2687878Y1488897D01*
X2675991Y1482394D01*
X2665120Y1474368D01*
X2655366Y1464919D01*
X2646984Y1454302D01*
X2640076Y1442669D01*
X2634843Y1430223D01*
X2631236Y1417167D01*
X2629458Y1403756D01*
X2629458Y1390243D01*
X2631236Y1376832D01*
X2634843Y1363776D01*
X2640076Y1351330D01*
X2646984Y1339697D01*
X2655366Y1329080D01*
X2665120Y1319631D01*
X2675991Y1311605D01*
X2687878Y1305102D01*
X2700477Y1300276D01*
X2713634Y1297127D01*
G37*
G36*
X3743096Y1295755D02*
G01*
X3756660Y1296212D01*
X3769969Y1298498D01*
X3782923Y1302461D01*
X3795166Y1308201D01*
X3806596Y1315466D01*
X3816908Y1324203D01*
X3826001Y1334211D01*
X3833622Y1345387D01*
X3839768Y1357477D01*
X3844188Y1370228D01*
X3846880Y1383487D01*
X3847795Y1397000D01*
X3846880Y1410512D01*
X3844188Y1423771D01*
X3839768Y1436522D01*
X3833622Y1448612D01*
X3826001Y1459788D01*
X3816908Y1469796D01*
X3806596Y1478534D01*
X3795166Y1485798D01*
X3782923Y1491538D01*
X3769969Y1495501D01*
X3756660Y1497787D01*
X3743096Y1498244D01*
X3729634Y1496872D01*
X3716477Y1493723D01*
X3703878Y1488897D01*
X3691991Y1482394D01*
X3681120Y1474368D01*
X3671366Y1464919D01*
X3662984Y1454302D01*
X3656076Y1442669D01*
X3650843Y1430223D01*
X3647236Y1417167D01*
X3645458Y1403756D01*
X3645458Y1390243D01*
X3647236Y1376832D01*
X3650843Y1363776D01*
X3656076Y1351330D01*
X3662984Y1339697D01*
X3671366Y1329080D01*
X3681120Y1319631D01*
X3691991Y1311605D01*
X3703878Y1305102D01*
X3716477Y1300276D01*
X3729634Y1297127D01*
G37*
G36*
X3997096Y1295755D02*
G01*
X4010660Y1296212D01*
X4023969Y1298498D01*
X4036923Y1302461D01*
X4049166Y1308201D01*
X4060596Y1315466D01*
X4070908Y1324203D01*
X4080001Y1334211D01*
X4087622Y1345387D01*
X4093768Y1357477D01*
X4098188Y1370228D01*
X4100880Y1383487D01*
X4101795Y1397000D01*
X4100880Y1410512D01*
X4099255Y1418539D01*
X4099306Y1422857D01*
X4101134Y1426768D01*
X4104386Y1429512D01*
X4108500Y1430731D01*
X4112768Y1430070D01*
X4116374Y1427784D01*
X4150918Y1393190D01*
X4152849Y1390548D01*
X4153814Y1387398D01*
X4155236Y1376832D01*
X4158843Y1363776D01*
X4164076Y1351330D01*
X4170984Y1339697D01*
X4179366Y1329080D01*
X4189120Y1319631D01*
X4199991Y1311605D01*
X4211878Y1305102D01*
X4224477Y1300276D01*
X4237634Y1297127D01*
X4251096Y1295755D01*
X4264660Y1296212D01*
X4277969Y1298498D01*
X4290923Y1302461D01*
X4303166Y1308201D01*
X4314596Y1315466D01*
X4324908Y1324203D01*
X4334002Y1334211D01*
X4341622Y1345387D01*
X4347768Y1357477D01*
X4352188Y1370228D01*
X4354880Y1383487D01*
X4355084Y1386687D01*
X4355998Y1390192D01*
X4358030Y1393190D01*
X4392422Y1427530D01*
X4396130Y1429918D01*
X4400499Y1430477D01*
X4404664Y1429156D01*
X4407916Y1426159D01*
X4409592Y1422095D01*
X4409236Y1417167D01*
X4407458Y1403756D01*
X4407458Y1390243D01*
X4409236Y1376832D01*
X4412843Y1363776D01*
X4418076Y1351330D01*
X4424984Y1339697D01*
X4433366Y1329080D01*
X4443120Y1319631D01*
X4453991Y1311605D01*
X4465878Y1305102D01*
X4478477Y1300276D01*
X4491634Y1297127D01*
X4505096Y1295755D01*
X4518660Y1296212D01*
X4531969Y1298498D01*
X4544923Y1302461D01*
X4557166Y1308201D01*
X4568596Y1315466D01*
X4578908Y1324203D01*
X4588002Y1334211D01*
X4595622Y1345387D01*
X4601768Y1357477D01*
X4606188Y1370228D01*
X4608880Y1383487D01*
X4609795Y1397000D01*
X4608880Y1410512D01*
X4606188Y1423771D01*
X4601768Y1436522D01*
X4595622Y1448612D01*
X4588002Y1459788D01*
X4578908Y1469796D01*
X4568596Y1478534D01*
X4557166Y1485798D01*
X4544923Y1491538D01*
X4531969Y1495501D01*
X4518660Y1497787D01*
X4505096Y1498244D01*
X4491634Y1496872D01*
X4487316Y1495856D01*
X4482947Y1495755D01*
X4478934Y1497482D01*
X4476089Y1500784D01*
X4474819Y1504950D01*
X4475429Y1509217D01*
X4477766Y1512925D01*
X4931664Y1966823D01*
X4934966Y1969058D01*
X4938877Y1969820D01*
X5998057Y1969871D01*
X6006896Y1970684D01*
X6009335Y1971090D01*
X6017971Y1973224D01*
X6020308Y1973986D01*
X6028537Y1977389D01*
X6030722Y1978507D01*
X6038342Y1983130D01*
X6047181Y1990191D01*
X8380374Y4323384D01*
X8387435Y4332224D01*
X8392058Y4339844D01*
X8393176Y4342028D01*
X8396579Y4350258D01*
X8397341Y4352594D01*
X8399475Y4361230D01*
X8399881Y4363669D01*
X8400694Y4372508D01*
X8400745Y4566818D01*
X8401456Y4570476D01*
X8403386Y4573676D01*
X8404961Y4575403D01*
X8412683Y4586630D01*
X8418830Y4598822D01*
X8423300Y4611725D01*
X8426043Y4625086D01*
X8426958Y4638649D01*
X8426043Y4652264D01*
X8423300Y4665624D01*
X8418830Y4678527D01*
X8412683Y4690719D01*
X8404961Y4701946D01*
X8403386Y4703673D01*
X8401456Y4706874D01*
X8400745Y4710480D01*
X8400745Y5998768D01*
X8401456Y6002426D01*
X8403386Y6005576D01*
X8404961Y6007354D01*
X8412683Y6018580D01*
X8418830Y6030722D01*
X8423300Y6043625D01*
X8426043Y6056985D01*
X8426958Y6070600D01*
X8426043Y6084214D01*
X8423300Y6097574D01*
X8418830Y6110478D01*
X8412683Y6122619D01*
X8404961Y6133846D01*
X8395817Y6144006D01*
X8385403Y6152794D01*
X8373922Y6160109D01*
X8361527Y6165850D01*
X8348522Y6169914D01*
X8334502Y6172200D01*
X8330793Y6173012D01*
X8327644Y6175146D01*
X7514793Y6987946D01*
X7505953Y6995007D01*
X7498334Y6999630D01*
X7496149Y7000748D01*
X7485583Y7004913D01*
X7476947Y7007047D01*
X7474508Y7007453D01*
X7465669Y7008266D01*
X6298539Y7008317D01*
X6294628Y7009079D01*
X6291376Y7011314D01*
X5946292Y7356348D01*
X5944057Y7359650D01*
X5943295Y7363561D01*
X5943295Y7479131D01*
X5944209Y7483297D01*
X5946800Y7486751D01*
X5950559Y7488834D01*
X5954826Y7489190D01*
X5958840Y7487716D01*
X5962243Y7484262D01*
X5971844Y7473035D01*
X5982766Y7463129D01*
X5994806Y7454595D01*
X6007811Y7447584D01*
X6021578Y7442250D01*
X6035852Y7438694D01*
X6050534Y7436866D01*
X6065266Y7436866D01*
X6079947Y7438694D01*
X6094222Y7442250D01*
X6107988Y7447584D01*
X6120993Y7454595D01*
X6133033Y7463129D01*
X6143955Y7473035D01*
X6153556Y7484262D01*
X6161684Y7496556D01*
X6168288Y7509764D01*
X6173216Y7523683D01*
X6174994Y7531811D01*
X6176518Y7535418D01*
X6179312Y7538161D01*
X6182969Y7539634D01*
X6186830Y7539634D01*
X6190488Y7538161D01*
X6193282Y7535418D01*
X6194806Y7531811D01*
X6196584Y7523683D01*
X6201511Y7509764D01*
X6208115Y7496556D01*
X6216243Y7484262D01*
X6225844Y7473035D01*
X6236766Y7463129D01*
X6248806Y7454595D01*
X6261811Y7447584D01*
X6275578Y7442250D01*
X6289852Y7438694D01*
X6304534Y7436866D01*
X6319266Y7436866D01*
X6333947Y7438694D01*
X6348222Y7442250D01*
X6351422Y7443520D01*
X6355232Y7444181D01*
X6359042Y7443368D01*
X6362242Y7441234D01*
X6666077Y7137450D01*
X6673138Y7132116D01*
X6680708Y7128357D01*
X6688836Y7126020D01*
X6697725Y7125208D01*
X7759903Y7125208D01*
X7763764Y7124446D01*
X7767066Y7122261D01*
X8223656Y6665671D01*
X8225586Y6662978D01*
X8226552Y6659778D01*
X8226399Y6656476D01*
X8223656Y6643014D01*
X8222742Y6629400D01*
X8223656Y6615785D01*
X8226399Y6602425D01*
X8230870Y6589522D01*
X8237016Y6577380D01*
X8244738Y6566153D01*
X8253882Y6555994D01*
X8264296Y6547205D01*
X8275777Y6539890D01*
X8288172Y6534150D01*
X8301177Y6530085D01*
X8314639Y6527850D01*
X8328253Y6527393D01*
X8341817Y6528714D01*
X8355075Y6531914D01*
X8367826Y6536791D01*
X8379764Y6543344D01*
X8390737Y6551422D01*
X8400542Y6560921D01*
X8409025Y6571640D01*
X8415985Y6583375D01*
X8421268Y6595922D01*
X8424875Y6609080D01*
X8426704Y6622592D01*
X8426704Y6636207D01*
X8424875Y6649720D01*
X8421268Y6662877D01*
X8415985Y6675424D01*
X8409025Y6687159D01*
X8400542Y6697878D01*
X8390737Y6707378D01*
X8379764Y6715455D01*
X8367826Y6722008D01*
X8355075Y6726885D01*
X8341817Y6730085D01*
X8328253Y6731406D01*
X8314639Y6730949D01*
X8301177Y6728714D01*
X8298840Y6728002D01*
X8295233Y6727545D01*
X8291677Y6728409D01*
X8288680Y6730492D01*
X7814309Y7204811D01*
X7807248Y7210145D01*
X7799679Y7213904D01*
X7791551Y7216190D01*
X7782661Y7217054D01*
X6720484Y7217054D01*
X6716623Y7217816D01*
X6713321Y7220000D01*
X6499606Y7433716D01*
X6497320Y7437170D01*
X6496608Y7441184D01*
X6497574Y7445197D01*
X6500012Y7448499D01*
X6503568Y7450581D01*
X6507632Y7451039D01*
X6511594Y7449870D01*
X6515811Y7447584D01*
X6529578Y7442250D01*
X6543852Y7438694D01*
X6558534Y7436866D01*
X6573266Y7436866D01*
X6587947Y7438694D01*
X6602222Y7442250D01*
X6615988Y7447584D01*
X6628993Y7454595D01*
X6641033Y7463129D01*
X6651955Y7473035D01*
X6661556Y7484262D01*
X6669684Y7496556D01*
X6676288Y7509764D01*
X6681216Y7523683D01*
X6682994Y7531811D01*
X6684518Y7535418D01*
X6687312Y7538161D01*
X6690969Y7539634D01*
X6694830Y7539634D01*
X6698488Y7538161D01*
X6701281Y7535418D01*
X6702806Y7531811D01*
X6704584Y7523683D01*
X6709511Y7509764D01*
X6716115Y7496556D01*
X6724243Y7484262D01*
X6733844Y7473035D01*
X6744766Y7463129D01*
X6756806Y7454595D01*
X6769811Y7447584D01*
X6783578Y7442250D01*
X6797852Y7438694D01*
X6812534Y7436866D01*
X6827266Y7436866D01*
X6841947Y7438694D01*
X6856222Y7442250D01*
X6869988Y7447584D01*
X6882993Y7454595D01*
X6895033Y7463129D01*
X6905955Y7473035D01*
X6915556Y7484262D01*
X6923684Y7496556D01*
X6930288Y7509764D01*
X6935216Y7523683D01*
X6936994Y7531811D01*
X6938518Y7535418D01*
X6941312Y7538161D01*
X6944969Y7539634D01*
X6948830Y7539634D01*
X6952488Y7538161D01*
X6955281Y7535418D01*
X6956806Y7531811D01*
X6958584Y7523683D01*
X6963511Y7509764D01*
X6970115Y7496556D01*
X6978243Y7484262D01*
X6987844Y7473035D01*
X6998766Y7463129D01*
X7010806Y7454595D01*
X7023811Y7447584D01*
X7037578Y7442250D01*
X7051852Y7438694D01*
X7066534Y7436866D01*
X7081266Y7436866D01*
X7095947Y7438694D01*
X7110222Y7442250D01*
X7123988Y7447584D01*
X7136993Y7454595D01*
X7149033Y7463129D01*
X7159955Y7473035D01*
X7169556Y7484262D01*
X7177684Y7496556D01*
X7184288Y7509764D01*
X7189216Y7523683D01*
X7190994Y7531811D01*
X7192518Y7535418D01*
X7195312Y7538161D01*
X7198969Y7539634D01*
X7202830Y7539634D01*
X7206488Y7538161D01*
X7209281Y7535418D01*
X7210806Y7531811D01*
X7212584Y7523683D01*
X7217511Y7509764D01*
X7224115Y7496556D01*
X7232243Y7484262D01*
X7241844Y7473035D01*
X7252766Y7463129D01*
X7264806Y7454595D01*
X7277811Y7447584D01*
X7291578Y7442250D01*
X7305852Y7438694D01*
X7320534Y7436866D01*
X7335266Y7436866D01*
X7349947Y7438694D01*
X7364222Y7442250D01*
X7377988Y7447584D01*
X7390993Y7454595D01*
X7403033Y7463129D01*
X7413955Y7473035D01*
X7423556Y7484262D01*
X7431684Y7496556D01*
X7438288Y7509764D01*
X7443216Y7523683D01*
X7444994Y7531811D01*
X7446518Y7535418D01*
X7449312Y7538161D01*
X7452969Y7539634D01*
X7456830Y7539634D01*
X7460488Y7538161D01*
X7463281Y7535418D01*
X7464806Y7531811D01*
X7466584Y7523683D01*
X7471511Y7509764D01*
X7478115Y7496556D01*
X7486243Y7484262D01*
X7495844Y7473035D01*
X7506766Y7463129D01*
X7518806Y7454595D01*
X7531811Y7447584D01*
X7545578Y7442250D01*
X7559852Y7438694D01*
X7574534Y7436866D01*
X7589266Y7436866D01*
X7603947Y7438694D01*
X7618222Y7442250D01*
X7631988Y7447584D01*
X7644993Y7454595D01*
X7657033Y7463129D01*
X7667955Y7473035D01*
X7677556Y7484262D01*
X7685684Y7496556D01*
X7692288Y7509764D01*
X7697216Y7523683D01*
X7698994Y7531811D01*
X7700518Y7535418D01*
X7703312Y7538161D01*
X7706969Y7539634D01*
X7710830Y7539634D01*
X7714488Y7538161D01*
X7717281Y7535418D01*
X7718806Y7531811D01*
X7720584Y7523683D01*
X7725511Y7509764D01*
X7732115Y7496556D01*
X7740243Y7484262D01*
X7749844Y7473035D01*
X7760766Y7463129D01*
X7772806Y7454595D01*
X7785811Y7447584D01*
X7799578Y7442250D01*
X7813852Y7438694D01*
X7828534Y7436866D01*
X7843266Y7436866D01*
X7857947Y7438694D01*
X7872222Y7442250D01*
X7885988Y7447584D01*
X7898993Y7454595D01*
X7911033Y7463129D01*
X7921955Y7473035D01*
X7931556Y7484262D01*
X7939684Y7496556D01*
X7946288Y7509764D01*
X7951216Y7523683D01*
X7954365Y7538110D01*
X7955737Y7552791D01*
X7955280Y7567574D01*
X7952994Y7582153D01*
X7948930Y7596327D01*
X7943189Y7609941D01*
X7935823Y7622692D01*
X7926933Y7634478D01*
X7916672Y7645095D01*
X7905140Y7654340D01*
X7892592Y7662113D01*
X7879181Y7668259D01*
X7865160Y7672730D01*
X7850631Y7675473D01*
X7835900Y7676388D01*
X7821168Y7675473D01*
X7806639Y7672730D01*
X7792618Y7668259D01*
X7779207Y7662113D01*
X7766659Y7654340D01*
X7755128Y7645095D01*
X7744866Y7634478D01*
X7735976Y7622692D01*
X7728610Y7609941D01*
X7722870Y7596327D01*
X7718653Y7581696D01*
X7716621Y7577836D01*
X7713167Y7575245D01*
X7708900Y7574280D01*
X7704632Y7575245D01*
X7701178Y7577836D01*
X7699146Y7581696D01*
X7694930Y7596327D01*
X7689189Y7609941D01*
X7681823Y7622692D01*
X7672933Y7634478D01*
X7662672Y7645095D01*
X7651140Y7654340D01*
X7638592Y7662113D01*
X7625181Y7668259D01*
X7611160Y7672730D01*
X7596631Y7675473D01*
X7581900Y7676388D01*
X7567168Y7675473D01*
X7552639Y7672730D01*
X7538618Y7668259D01*
X7525207Y7662113D01*
X7512659Y7654340D01*
X7501128Y7645095D01*
X7490866Y7634478D01*
X7481976Y7622692D01*
X7474610Y7609941D01*
X7468870Y7596327D01*
X7464653Y7581696D01*
X7462621Y7577836D01*
X7459167Y7575245D01*
X7454900Y7574280D01*
X7450632Y7575245D01*
X7447178Y7577836D01*
X7445146Y7581696D01*
X7440930Y7596327D01*
X7435189Y7609941D01*
X7427823Y7622692D01*
X7418933Y7634478D01*
X7408672Y7645095D01*
X7397140Y7654340D01*
X7384592Y7662113D01*
X7371181Y7668259D01*
X7357160Y7672730D01*
X7342631Y7675473D01*
X7327900Y7676388D01*
X7313168Y7675473D01*
X7298639Y7672730D01*
X7284618Y7668259D01*
X7271207Y7662113D01*
X7258659Y7654340D01*
X7247128Y7645095D01*
X7236866Y7634478D01*
X7227976Y7622692D01*
X7220610Y7609941D01*
X7214870Y7596327D01*
X7210653Y7581696D01*
X7208621Y7577836D01*
X7205167Y7575245D01*
X7200900Y7574280D01*
X7196632Y7575245D01*
X7193178Y7577836D01*
X7191146Y7581696D01*
X7186930Y7596327D01*
X7181189Y7609941D01*
X7173823Y7622692D01*
X7164933Y7634478D01*
X7154672Y7645095D01*
X7143140Y7654340D01*
X7130592Y7662113D01*
X7117181Y7668259D01*
X7103160Y7672730D01*
X7088631Y7675473D01*
X7073900Y7676388D01*
X7059168Y7675473D01*
X7044639Y7672730D01*
X7030618Y7668259D01*
X7017207Y7662113D01*
X7004659Y7654340D01*
X6993128Y7645095D01*
X6982866Y7634478D01*
X6973976Y7622692D01*
X6966610Y7609941D01*
X6960870Y7596327D01*
X6956653Y7581696D01*
X6954621Y7577836D01*
X6951167Y7575245D01*
X6946900Y7574280D01*
X6942632Y7575245D01*
X6939178Y7577836D01*
X6937146Y7581696D01*
X6932930Y7596327D01*
X6927189Y7609941D01*
X6919823Y7622692D01*
X6910933Y7634478D01*
X6900672Y7645095D01*
X6889140Y7654340D01*
X6876592Y7662113D01*
X6863181Y7668259D01*
X6849160Y7672730D01*
X6834631Y7675473D01*
X6819900Y7676388D01*
X6805168Y7675473D01*
X6790639Y7672730D01*
X6776618Y7668259D01*
X6763207Y7662113D01*
X6750659Y7654340D01*
X6739128Y7645095D01*
X6728866Y7634478D01*
X6719976Y7622692D01*
X6712610Y7609941D01*
X6706870Y7596327D01*
X6702653Y7581696D01*
X6700621Y7577836D01*
X6697167Y7575245D01*
X6692900Y7574280D01*
X6688632Y7575245D01*
X6685178Y7577836D01*
X6683146Y7581696D01*
X6678930Y7596327D01*
X6673189Y7609941D01*
X6665823Y7622692D01*
X6656933Y7634478D01*
X6646672Y7645095D01*
X6635140Y7654340D01*
X6622592Y7662113D01*
X6609181Y7668259D01*
X6595160Y7672730D01*
X6580631Y7675473D01*
X6565900Y7676388D01*
X6551168Y7675473D01*
X6536639Y7672730D01*
X6522618Y7668259D01*
X6509207Y7662113D01*
X6496659Y7654340D01*
X6485128Y7645095D01*
X6474866Y7634478D01*
X6465976Y7622692D01*
X6458610Y7609941D01*
X6452870Y7596327D01*
X6448653Y7581696D01*
X6446621Y7577836D01*
X6443167Y7575245D01*
X6438900Y7574280D01*
X6434632Y7575245D01*
X6431178Y7577836D01*
X6429146Y7581696D01*
X6424930Y7596327D01*
X6419189Y7609941D01*
X6411823Y7622692D01*
X6402933Y7634478D01*
X6392672Y7645095D01*
X6381140Y7654340D01*
X6368592Y7662113D01*
X6355181Y7668259D01*
X6341160Y7672730D01*
X6326632Y7675473D01*
X6311900Y7676388D01*
X6297168Y7675473D01*
X6282639Y7672730D01*
X6268618Y7668259D01*
X6255207Y7662113D01*
X6242659Y7654340D01*
X6231128Y7645095D01*
X6220866Y7634478D01*
X6211976Y7622692D01*
X6204610Y7609941D01*
X6198870Y7596327D01*
X6194653Y7581696D01*
X6192621Y7577836D01*
X6189167Y7575245D01*
X6184900Y7574280D01*
X6180632Y7575245D01*
X6177178Y7577836D01*
X6175146Y7581696D01*
X6170930Y7596327D01*
X6165189Y7609941D01*
X6157823Y7622692D01*
X6148933Y7634478D01*
X6138672Y7645095D01*
X6127140Y7654340D01*
X6114592Y7662113D01*
X6101181Y7668259D01*
X6087160Y7672730D01*
X6072632Y7675473D01*
X6057900Y7676388D01*
X6043168Y7675473D01*
X6028639Y7672730D01*
X6014618Y7668259D01*
X6001207Y7662113D01*
X5988659Y7654340D01*
X5977128Y7645095D01*
X5966866Y7634478D01*
X5961583Y7627467D01*
X5958433Y7624724D01*
X5954420Y7623505D01*
X5950254Y7623962D01*
X5946648Y7626096D01*
X5944158Y7629499D01*
X5943295Y7633614D01*
X5943295Y8181238D01*
X5944057Y8185150D01*
X5946292Y8188452D01*
X5976823Y8218982D01*
X5979718Y8221014D01*
X5983122Y8221929D01*
X5986678Y8221573D01*
X5989878Y8220049D01*
X5994806Y8216595D01*
X6007811Y8209584D01*
X6021578Y8204250D01*
X6035852Y8200694D01*
X6050534Y8198866D01*
X6065266Y8198866D01*
X6079947Y8200694D01*
X6094222Y8204250D01*
X6107988Y8209584D01*
X6120993Y8216595D01*
X6133033Y8225129D01*
X6143955Y8235035D01*
X6153556Y8246262D01*
X6161684Y8258556D01*
X6168288Y8271764D01*
X6173216Y8285683D01*
X6174994Y8293811D01*
X6176518Y8297418D01*
X6179312Y8300161D01*
X6182969Y8301634D01*
X6186830Y8301634D01*
X6190488Y8300161D01*
X6193282Y8297418D01*
X6194806Y8293811D01*
X6196584Y8285683D01*
X6201511Y8271764D01*
X6208115Y8258556D01*
X6216243Y8246262D01*
X6225844Y8235035D01*
X6236766Y8225129D01*
X6248806Y8216595D01*
X6261811Y8209584D01*
X6275578Y8204250D01*
X6289852Y8200694D01*
X6304534Y8198866D01*
X6319266Y8198866D01*
X6333947Y8200694D01*
X6348222Y8204250D01*
X6361988Y8209584D01*
X6374993Y8216595D01*
X6387033Y8225129D01*
X6397955Y8235035D01*
X6407556Y8246262D01*
X6415684Y8258556D01*
X6422288Y8271764D01*
X6427216Y8285683D01*
X6428994Y8293811D01*
X6430518Y8297418D01*
X6433312Y8300161D01*
X6436969Y8301634D01*
X6440830Y8301634D01*
X6444488Y8300161D01*
X6447282Y8297418D01*
X6448806Y8293811D01*
X6450584Y8285683D01*
X6455511Y8271764D01*
X6462115Y8258556D01*
X6470243Y8246262D01*
X6479844Y8235035D01*
X6490766Y8225129D01*
X6502806Y8216595D01*
X6515811Y8209584D01*
X6529578Y8204250D01*
X6543852Y8200694D01*
X6558534Y8198866D01*
X6573266Y8198866D01*
X6587947Y8200694D01*
X6602222Y8204250D01*
X6615988Y8209584D01*
X6628993Y8216595D01*
X6641033Y8225129D01*
X6651955Y8235035D01*
X6661556Y8246262D01*
X6669684Y8258556D01*
X6676288Y8271764D01*
X6681216Y8285683D01*
X6682994Y8293811D01*
X6684518Y8297418D01*
X6687312Y8300161D01*
X6690969Y8301634D01*
X6694830Y8301634D01*
X6698488Y8300161D01*
X6701281Y8297418D01*
X6702806Y8293811D01*
X6704584Y8285683D01*
X6709511Y8271764D01*
X6716115Y8258556D01*
X6724243Y8246262D01*
X6733844Y8235035D01*
X6744766Y8225129D01*
X6756806Y8216595D01*
X6769811Y8209584D01*
X6783578Y8204250D01*
X6797852Y8200694D01*
X6812534Y8198866D01*
X6827266Y8198866D01*
X6841947Y8200694D01*
X6856222Y8204250D01*
X6869988Y8209584D01*
X6882993Y8216595D01*
X6895033Y8225129D01*
X6905955Y8235035D01*
X6915556Y8246262D01*
X6923684Y8258556D01*
X6930288Y8271764D01*
X6935216Y8285683D01*
X6936994Y8293811D01*
X6938518Y8297418D01*
X6941312Y8300161D01*
X6944969Y8301634D01*
X6948830Y8301634D01*
X6952488Y8300161D01*
X6955281Y8297418D01*
X6956806Y8293811D01*
X6958584Y8285683D01*
X6963511Y8271764D01*
X6970115Y8258556D01*
X6978243Y8246262D01*
X6987844Y8235035D01*
X6998766Y8225129D01*
X7010806Y8216595D01*
X7023811Y8209584D01*
X7037578Y8204250D01*
X7051852Y8200694D01*
X7066534Y8198866D01*
X7081266Y8198866D01*
X7095947Y8200694D01*
X7110222Y8204250D01*
X7123988Y8209584D01*
X7136993Y8216595D01*
X7149033Y8225129D01*
X7159955Y8235035D01*
X7169556Y8246262D01*
X7177684Y8258556D01*
X7184288Y8271764D01*
X7189216Y8285683D01*
X7190994Y8293811D01*
X7192518Y8297418D01*
X7195312Y8300161D01*
X7198969Y8301634D01*
X7202830Y8301634D01*
X7206488Y8300161D01*
X7209281Y8297418D01*
X7210806Y8293811D01*
X7212584Y8285683D01*
X7217511Y8271764D01*
X7224115Y8258556D01*
X7232243Y8246262D01*
X7241844Y8235035D01*
X7252766Y8225129D01*
X7264806Y8216595D01*
X7277811Y8209584D01*
X7291578Y8204250D01*
X7305852Y8200694D01*
X7320534Y8198866D01*
X7335266Y8198866D01*
X7349947Y8200694D01*
X7364222Y8204250D01*
X7377988Y8209584D01*
X7390993Y8216595D01*
X7403033Y8225129D01*
X7413955Y8235035D01*
X7423556Y8246262D01*
X7431684Y8258556D01*
X7438288Y8271764D01*
X7443216Y8285683D01*
X7444994Y8293811D01*
X7446518Y8297418D01*
X7449312Y8300161D01*
X7452969Y8301634D01*
X7456830Y8301634D01*
X7460488Y8300161D01*
X7463281Y8297418D01*
X7464806Y8293811D01*
X7466584Y8285683D01*
X7471511Y8271764D01*
X7478115Y8258556D01*
X7486243Y8246262D01*
X7495844Y8235035D01*
X7506766Y8225129D01*
X7518806Y8216595D01*
X7531811Y8209584D01*
X7545578Y8204250D01*
X7559852Y8200694D01*
X7574534Y8198866D01*
X7589266Y8198866D01*
X7603947Y8200694D01*
X7618222Y8204250D01*
X7631988Y8209584D01*
X7644993Y8216595D01*
X7657033Y8225129D01*
X7667955Y8235035D01*
X7677556Y8246262D01*
X7685684Y8258556D01*
X7692288Y8271764D01*
X7697216Y8285683D01*
X7698994Y8293811D01*
X7700518Y8297418D01*
X7703312Y8300161D01*
X7706969Y8301634D01*
X7710830Y8301634D01*
X7714488Y8300161D01*
X7717281Y8297418D01*
X7718806Y8293811D01*
X7720584Y8285683D01*
X7725511Y8271764D01*
X7732115Y8258556D01*
X7740243Y8246262D01*
X7749844Y8235035D01*
X7760766Y8225129D01*
X7772806Y8216595D01*
X7785811Y8209584D01*
X7799578Y8204250D01*
X7813852Y8200694D01*
X7828534Y8198866D01*
X7843266Y8198866D01*
X7857947Y8200694D01*
X7872222Y8204250D01*
X7885988Y8209584D01*
X7898993Y8216595D01*
X7911033Y8225129D01*
X7921955Y8235035D01*
X7931556Y8246262D01*
X7939684Y8258556D01*
X7946288Y8271764D01*
X7951216Y8285683D01*
X7954365Y8300110D01*
X7955737Y8314791D01*
X7955280Y8329574D01*
X7952994Y8344153D01*
X7948930Y8358327D01*
X7943189Y8371941D01*
X7935823Y8384692D01*
X7926933Y8396478D01*
X7916672Y8407095D01*
X7905140Y8416340D01*
X7892592Y8424113D01*
X7879181Y8430260D01*
X7865160Y8434730D01*
X7850631Y8437473D01*
X7835900Y8438388D01*
X7821168Y8437473D01*
X7806639Y8434730D01*
X7792618Y8430260D01*
X7779207Y8424113D01*
X7766659Y8416340D01*
X7755128Y8407095D01*
X7744866Y8396478D01*
X7735976Y8384692D01*
X7728610Y8371941D01*
X7722870Y8358327D01*
X7718653Y8343696D01*
X7716621Y8339836D01*
X7713167Y8337245D01*
X7708900Y8336280D01*
X7704632Y8337245D01*
X7701178Y8339836D01*
X7699146Y8343696D01*
X7694930Y8358327D01*
X7689189Y8371941D01*
X7681823Y8384692D01*
X7672933Y8396478D01*
X7662672Y8407095D01*
X7651140Y8416340D01*
X7638592Y8424113D01*
X7625181Y8430260D01*
X7611160Y8434730D01*
X7596631Y8437473D01*
X7581900Y8438388D01*
X7567168Y8437473D01*
X7552639Y8434730D01*
X7538618Y8430260D01*
X7525207Y8424113D01*
X7512659Y8416340D01*
X7501128Y8407095D01*
X7490866Y8396478D01*
X7481976Y8384692D01*
X7474610Y8371941D01*
X7468870Y8358327D01*
X7464653Y8343696D01*
X7462621Y8339836D01*
X7459167Y8337245D01*
X7454900Y8336280D01*
X7450632Y8337245D01*
X7447178Y8339836D01*
X7445146Y8343696D01*
X7440930Y8358327D01*
X7435189Y8371941D01*
X7427823Y8384692D01*
X7418933Y8396478D01*
X7408672Y8407095D01*
X7397140Y8416340D01*
X7384592Y8424113D01*
X7371181Y8430260D01*
X7357160Y8434730D01*
X7342631Y8437473D01*
X7327900Y8438388D01*
X7313168Y8437473D01*
X7298639Y8434730D01*
X7284618Y8430260D01*
X7271207Y8424113D01*
X7258659Y8416340D01*
X7247128Y8407095D01*
X7236866Y8396478D01*
X7227976Y8384692D01*
X7220610Y8371941D01*
X7214870Y8358327D01*
X7210653Y8343696D01*
X7208621Y8339836D01*
X7205167Y8337245D01*
X7200900Y8336280D01*
X7196632Y8337245D01*
X7193178Y8339836D01*
X7191146Y8343696D01*
X7186930Y8358327D01*
X7181189Y8371941D01*
X7173823Y8384692D01*
X7164933Y8396478D01*
X7154672Y8407095D01*
X7143140Y8416340D01*
X7130592Y8424113D01*
X7117181Y8430260D01*
X7103160Y8434730D01*
X7088631Y8437473D01*
X7073900Y8438388D01*
X7059168Y8437473D01*
X7044639Y8434730D01*
X7030618Y8430260D01*
X7017207Y8424113D01*
X7004659Y8416340D01*
X6993128Y8407095D01*
X6982866Y8396478D01*
X6973976Y8384692D01*
X6966610Y8371941D01*
X6960870Y8358327D01*
X6956653Y8343696D01*
X6954621Y8339836D01*
X6951167Y8337245D01*
X6946900Y8336280D01*
X6942632Y8337245D01*
X6939178Y8339836D01*
X6937146Y8343696D01*
X6932930Y8358327D01*
X6927189Y8371941D01*
X6919823Y8384692D01*
X6910933Y8396478D01*
X6900672Y8407095D01*
X6889140Y8416340D01*
X6876592Y8424113D01*
X6863181Y8430260D01*
X6849160Y8434730D01*
X6834631Y8437473D01*
X6819900Y8438388D01*
X6805168Y8437473D01*
X6790639Y8434730D01*
X6779818Y8431276D01*
X6776161Y8430818D01*
X6772554Y8431682D01*
X6769557Y8433765D01*
X6609791Y8593480D01*
X6602730Y8598814D01*
X6595160Y8602573D01*
X6587032Y8604859D01*
X6578142Y8605723D01*
X5891022Y8605672D01*
X5882284Y8604453D01*
X5874258Y8601760D01*
X5866892Y8597646D01*
X5859983Y8591905D01*
X5490819Y8222691D01*
X5485485Y8215630D01*
X5481726Y8208060D01*
X5479440Y8199932D01*
X5478576Y8191042D01*
X5478576Y4836515D01*
X5477814Y4832654D01*
X5475630Y4829352D01*
X5383784Y4737506D01*
X5380786Y4735423D01*
X5377230Y4734560D01*
X5373624Y4735017D01*
X5364022Y4737963D01*
X5350560Y4740249D01*
X5336946Y4740706D01*
X5323382Y4739335D01*
X5310124Y4736185D01*
X5297373Y4731258D01*
X5285435Y4724704D01*
X5274462Y4716627D01*
X5264658Y4707128D01*
X5256174Y4696460D01*
X5249214Y4684725D01*
X5243931Y4672177D01*
X5240324Y4659020D01*
X5238496Y4645507D01*
X5238496Y4631842D01*
X5240324Y4618329D01*
X5243931Y4605172D01*
X5249214Y4592624D01*
X5256174Y4580890D01*
X5264658Y4570222D01*
X5274462Y4560722D01*
X5285435Y4552645D01*
X5297373Y4546092D01*
X5310124Y4541164D01*
X5323382Y4538014D01*
X5336946Y4536643D01*
X5350560Y4537100D01*
X5364022Y4539386D01*
X5377027Y4543399D01*
X5389422Y4549140D01*
X5400903Y4556506D01*
X5411317Y4565294D01*
X5420461Y4575403D01*
X5428183Y4586630D01*
X5434330Y4598822D01*
X5438800Y4611725D01*
X5441543Y4625086D01*
X5442458Y4638649D01*
X5441543Y4652264D01*
X5440375Y4657852D01*
X5440273Y4661154D01*
X5441238Y4664354D01*
X5443169Y4667046D01*
X5558180Y4782108D01*
X5563514Y4789170D01*
X5567273Y4796739D01*
X5569559Y4804867D01*
X5570423Y4813757D01*
X5570423Y8168284D01*
X5571185Y8172145D01*
X5573369Y8175447D01*
X5689854Y8291931D01*
X5693156Y8294116D01*
X5697016Y8294878D01*
X5700928Y8294116D01*
X5704230Y8291931D01*
X5706414Y8288629D01*
X5707176Y8284718D01*
X5707227Y7021322D01*
X5708446Y7012584D01*
X5711139Y7004558D01*
X5715254Y6997192D01*
X5720994Y6990283D01*
X6115608Y6595719D01*
X6122670Y6590385D01*
X6130239Y6586626D01*
X6138367Y6584340D01*
X6147257Y6583476D01*
X6786422Y6583476D01*
X6789877Y6582867D01*
X6792874Y6581140D01*
X6795160Y6578498D01*
X6799224Y6571640D01*
X6804761Y6564630D01*
X6806692Y6560515D01*
X6806692Y6556044D01*
X6804710Y6551980D01*
X6801205Y6549135D01*
X6796786Y6548170D01*
X5907786Y6548170D01*
X5903925Y6548932D01*
X5900623Y6551117D01*
X5819394Y6632346D01*
X5817362Y6635343D01*
X5816447Y6638848D01*
X5816193Y6643014D01*
X5813450Y6656374D01*
X5808980Y6669278D01*
X5802833Y6681419D01*
X5795111Y6692646D01*
X5785967Y6702806D01*
X5775553Y6711594D01*
X5764072Y6718909D01*
X5751677Y6724650D01*
X5738672Y6728714D01*
X5725210Y6730949D01*
X5711596Y6731406D01*
X5698032Y6730085D01*
X5684774Y6726885D01*
X5672023Y6722008D01*
X5660085Y6715455D01*
X5649112Y6707378D01*
X5639308Y6697878D01*
X5630824Y6687159D01*
X5623864Y6675424D01*
X5618581Y6662877D01*
X5614974Y6649720D01*
X5613146Y6636207D01*
X5613146Y6622592D01*
X5614974Y6609080D01*
X5618581Y6595922D01*
X5623864Y6583375D01*
X5630824Y6571640D01*
X5639308Y6560921D01*
X5649112Y6551422D01*
X5660085Y6543344D01*
X5672023Y6536791D01*
X5684774Y6531914D01*
X5698032Y6528714D01*
X5705856Y6527952D01*
X5709208Y6527038D01*
X5712002Y6525006D01*
X5820410Y6416751D01*
X5827217Y6411061D01*
X5829249Y6409639D01*
X5836869Y6405067D01*
X5839053Y6403949D01*
X5847283Y6400546D01*
X5849620Y6399784D01*
X5858205Y6397650D01*
X5860643Y6397244D01*
X5869482Y6396380D01*
X7001967Y6396380D01*
X7010806Y6397244D01*
X7013244Y6397650D01*
X7021880Y6399784D01*
X7024217Y6400546D01*
X7032396Y6403949D01*
X7034580Y6405067D01*
X7042200Y6409639D01*
X7044232Y6411061D01*
X7051090Y6416751D01*
X7159447Y6525006D01*
X7162241Y6527038D01*
X7165594Y6527952D01*
X7173417Y6528714D01*
X7186675Y6531914D01*
X7199426Y6536791D01*
X7211364Y6543344D01*
X7222337Y6551422D01*
X7232142Y6560921D01*
X7240625Y6571640D01*
X7247585Y6583375D01*
X7252868Y6595922D01*
X7256475Y6609080D01*
X7258303Y6622592D01*
X7258303Y6636207D01*
X7256475Y6649720D01*
X7252868Y6662877D01*
X7247585Y6675424D01*
X7240625Y6687159D01*
X7232142Y6697878D01*
X7222337Y6707378D01*
X7211364Y6715455D01*
X7199426Y6722008D01*
X7186675Y6726885D01*
X7173417Y6730085D01*
X7159853Y6731406D01*
X7146239Y6730949D01*
X7132777Y6728714D01*
X7119772Y6724650D01*
X7107377Y6718909D01*
X7095896Y6711594D01*
X7085482Y6702806D01*
X7076338Y6692646D01*
X7068616Y6681419D01*
X7062470Y6669278D01*
X7057999Y6656374D01*
X7055256Y6643014D01*
X7055002Y6638848D01*
X7054088Y6635343D01*
X7052056Y6632346D01*
X6989724Y6570014D01*
X6986320Y6567779D01*
X6982307Y6567017D01*
X6978345Y6567931D01*
X6975043Y6570319D01*
X6972960Y6573824D01*
X6972401Y6577838D01*
X6973468Y6581749D01*
X6977380Y6589522D01*
X6981850Y6602425D01*
X6984593Y6615785D01*
X6985508Y6629400D01*
X6984593Y6643014D01*
X6981850Y6656374D01*
X6977380Y6669278D01*
X6971233Y6681419D01*
X6963511Y6692646D01*
X6954367Y6702806D01*
X6943953Y6711594D01*
X6932472Y6718909D01*
X6920077Y6724650D01*
X6907072Y6728714D01*
X6893610Y6730949D01*
X6879996Y6731406D01*
X6866432Y6730085D01*
X6853174Y6726885D01*
X6840423Y6722008D01*
X6828485Y6715455D01*
X6817512Y6707378D01*
X6807708Y6697878D01*
X6799224Y6687159D01*
X6795160Y6680301D01*
X6792874Y6677659D01*
X6789877Y6675932D01*
X6786422Y6675323D01*
X6170015Y6675323D01*
X6166154Y6676085D01*
X6162852Y6678269D01*
X5801969Y7039152D01*
X5799785Y7042454D01*
X5799023Y7046315D01*
X5799023Y7264400D01*
X5799785Y7268311D01*
X5801969Y7271613D01*
X5805271Y7273798D01*
X5809183Y7274559D01*
X5813044Y7273798D01*
X5816346Y7271613D01*
X6211112Y6876897D01*
X6219952Y6869836D01*
X6227572Y6865213D01*
X6229756Y6864096D01*
X6237986Y6860692D01*
X6240322Y6859930D01*
X6248958Y6857796D01*
X6251397Y6857390D01*
X6260236Y6856577D01*
X7427366Y6856526D01*
X7431278Y6855714D01*
X7434580Y6853529D01*
X8220354Y6067755D01*
X8222284Y6065062D01*
X8223250Y6061913D01*
X8224824Y6050280D01*
X8228431Y6037122D01*
X8233714Y6024575D01*
X8240674Y6012840D01*
X8246770Y6005118D01*
X8248396Y6002172D01*
X8248954Y5998819D01*
X8248954Y4710430D01*
X8248396Y4707077D01*
X8246770Y4704130D01*
X8240674Y4696460D01*
X8233714Y4684725D01*
X8228431Y4672177D01*
X8224824Y4659020D01*
X8222996Y4645507D01*
X8222996Y4631842D01*
X8224824Y4618329D01*
X8228431Y4605172D01*
X8233714Y4592624D01*
X8240674Y4580890D01*
X8246770Y4573219D01*
X8248396Y4570272D01*
X8248954Y4566920D01*
X8248954Y4410811D01*
X8248192Y4406900D01*
X8245957Y4403598D01*
X7705547Y3863187D01*
X7702042Y3860901D01*
X7697927Y3860241D01*
X7693863Y3861257D01*
X7690561Y3863848D01*
X7688580Y3867556D01*
X7688275Y3871722D01*
X7689697Y3875633D01*
X7692440Y3880205D01*
X7697673Y3892194D01*
X7701178Y3904792D01*
X7702956Y3917746D01*
X7702956Y3930853D01*
X7701178Y3943807D01*
X7697673Y3956405D01*
X7692440Y3968394D01*
X7685633Y3979570D01*
X7677353Y3989730D01*
X7667802Y3998671D01*
X7657134Y4006240D01*
X7645501Y4012234D01*
X7633157Y4016603D01*
X7620355Y4019296D01*
X7607300Y4020159D01*
X7594244Y4019296D01*
X7581442Y4016603D01*
X7569098Y4012234D01*
X7557465Y4006240D01*
X7546797Y3998671D01*
X7537246Y3989730D01*
X7528966Y3979570D01*
X7522159Y3968394D01*
X7516977Y3956405D01*
X7513421Y3943807D01*
X7511643Y3930853D01*
X7511643Y3917746D01*
X7513421Y3904792D01*
X7516977Y3892194D01*
X7522159Y3880205D01*
X7528966Y3869029D01*
X7537246Y3858869D01*
X7546797Y3849928D01*
X7557465Y3842359D01*
X7569098Y3836365D01*
X7581442Y3831996D01*
X7594244Y3829304D01*
X7607300Y3828440D01*
X7620355Y3829304D01*
X7633157Y3831996D01*
X7645501Y3836365D01*
X7656169Y3841902D01*
X7660081Y3842969D01*
X7664145Y3842461D01*
X7667650Y3840378D01*
X7670088Y3837076D01*
X7671003Y3833114D01*
X7670292Y3829100D01*
X7668006Y3825697D01*
X5966968Y2124608D01*
X5963666Y2122373D01*
X5959754Y2121611D01*
X4900574Y2121560D01*
X4891735Y2120747D01*
X4889296Y2120341D01*
X4880660Y2118207D01*
X4878324Y2117445D01*
X4870094Y2114042D01*
X4867910Y2112924D01*
X4860290Y2108301D01*
X4851450Y2101240D01*
X4261662Y1511554D01*
X4258411Y1509318D01*
X4254500Y1508556D01*
X4250588Y1509318D01*
X4247337Y1511554D01*
X3066186Y2692654D01*
X3064002Y2695956D01*
X3063240Y2699816D01*
X3064002Y2703728D01*
X3066186Y2707030D01*
X3069488Y2709214D01*
X3073400Y2709976D01*
X3532378Y2710027D01*
X3541115Y2711246D01*
X3549142Y2713939D01*
X3556508Y2718054D01*
X3563416Y2723794D01*
X3653180Y2813608D01*
X3658514Y2820670D01*
X3662273Y2828239D01*
X3665880Y2840736D01*
X3668725Y2843936D01*
X3672586Y2845663D01*
X3676853Y2845663D01*
X3680764Y2843936D01*
X3691991Y2835605D01*
X3703878Y2829102D01*
X3716477Y2824276D01*
X3729634Y2821127D01*
X3743096Y2819755D01*
X3756660Y2820212D01*
X3769969Y2822498D01*
X3782923Y2826461D01*
X3795166Y2832201D01*
X3806596Y2839466D01*
X3816908Y2848203D01*
X3826001Y2858211D01*
X3833622Y2869387D01*
X3839768Y2881477D01*
X3844188Y2894228D01*
X3846880Y2907487D01*
X3847795Y2921000D01*
X3846880Y2934512D01*
X3844188Y2947771D01*
X3839768Y2960522D01*
X3833622Y2972612D01*
X3826001Y2983788D01*
X3816908Y2993796D01*
X3806596Y3002534D01*
X3795166Y3009798D01*
X3782923Y3015538D01*
X3769969Y3019501D01*
X3756660Y3021787D01*
X3743096Y3022244D01*
X3734054Y3021330D01*
X3729939Y3021736D01*
X3726332Y3023768D01*
X3723843Y3027070D01*
X3722878Y3031083D01*
X3723589Y3035147D01*
X3725824Y3038602D01*
X3978452Y3291230D01*
X3981754Y3293414D01*
X3985615Y3294176D01*
X4074972Y3294176D01*
X4078427Y3293567D01*
X4081424Y3291840D01*
X4083710Y3289198D01*
X4087774Y3282340D01*
X4096258Y3271621D01*
X4106062Y3262122D01*
X4117035Y3254044D01*
X4128973Y3247491D01*
X4141724Y3242614D01*
X4154982Y3239414D01*
X4168546Y3238093D01*
X4182160Y3238550D01*
X4195622Y3240786D01*
X4208627Y3244850D01*
X4221022Y3250590D01*
X4232503Y3257905D01*
X4242917Y3266694D01*
X4252061Y3276854D01*
X4259783Y3288080D01*
X4265930Y3300222D01*
X4270400Y3313125D01*
X4273143Y3326485D01*
X4274058Y3340100D01*
X4273143Y3353714D01*
X4270400Y3367074D01*
X4265930Y3379978D01*
X4259783Y3392119D01*
X4252061Y3403346D01*
X4242917Y3413506D01*
X4232503Y3422294D01*
X4221022Y3429609D01*
X4208627Y3435350D01*
X4195622Y3439414D01*
X4182160Y3441649D01*
X4168546Y3442106D01*
X4154982Y3440785D01*
X4141724Y3437585D01*
X4128973Y3432708D01*
X4117035Y3426155D01*
X4106062Y3418078D01*
X4096258Y3408578D01*
X4087774Y3397859D01*
X4083710Y3391001D01*
X4081424Y3388360D01*
X4078427Y3386632D01*
X4074972Y3386023D01*
X3960622Y3385972D01*
X3951884Y3384753D01*
X3943858Y3382060D01*
X3936492Y3377946D01*
X3929583Y3372205D01*
X3585819Y3028391D01*
X3580485Y3021330D01*
X3576726Y3013760D01*
X3573018Y3000857D01*
X3570020Y2997657D01*
X3565956Y2995980D01*
X3561587Y2996184D01*
X3557676Y2998216D01*
X3552596Y3002534D01*
X3541166Y3009798D01*
X3528923Y3015538D01*
X3515969Y3019501D01*
X3502660Y3021787D01*
X3489096Y3022244D01*
X3475634Y3020872D01*
X3462477Y3017723D01*
X3449878Y3012897D01*
X3437991Y3006394D01*
X3427120Y2998368D01*
X3417366Y2988919D01*
X3408984Y2978302D01*
X3402076Y2966669D01*
X3396843Y2954223D01*
X3393236Y2941167D01*
X3391458Y2927756D01*
X3391458Y2914243D01*
X3393236Y2900832D01*
X3396843Y2887776D01*
X3402076Y2875330D01*
X3408984Y2863697D01*
X3417366Y2853080D01*
X3427120Y2843631D01*
X3437991Y2835605D01*
X3449878Y2829102D01*
X3462477Y2824276D01*
X3472586Y2821838D01*
X3476396Y2820060D01*
X3479139Y2816910D01*
X3480358Y2812897D01*
X3479901Y2808732D01*
X3477768Y2805125D01*
X3474364Y2802686D01*
X3470249Y2801823D01*
X3260801Y2801823D01*
X3256584Y2802686D01*
X3253130Y2805277D01*
X3251047Y2808986D01*
X3250692Y2813253D01*
X3252114Y2817317D01*
X3255111Y2820416D01*
X3259074Y2821990D01*
X3261969Y2822498D01*
X3274923Y2826461D01*
X3287166Y2832201D01*
X3298596Y2839466D01*
X3308908Y2848203D01*
X3318001Y2858211D01*
X3325622Y2869387D01*
X3331768Y2881477D01*
X3336188Y2894228D01*
X3338880Y2907487D01*
X3339795Y2921000D01*
X3338880Y2934512D01*
X3336188Y2947771D01*
X3331768Y2960522D01*
X3325622Y2972612D01*
X3318001Y2983788D01*
X3308908Y2993796D01*
X3298596Y3002534D01*
X3287166Y3009798D01*
X3274923Y3015538D01*
X3261969Y3019501D01*
X3248660Y3021787D01*
X3235096Y3022244D01*
X3221634Y3020872D01*
X3208477Y3017723D01*
X3195878Y3012897D01*
X3183991Y3006394D01*
X3173120Y2998368D01*
X3163366Y2988919D01*
X3154984Y2978302D01*
X3148076Y2966669D01*
X3142843Y2954223D01*
X3139236Y2941167D01*
X3137458Y2927756D01*
X3137458Y2914243D01*
X3139236Y2900832D01*
X3142843Y2887776D01*
X3148076Y2875330D01*
X3154984Y2863697D01*
X3163366Y2853080D01*
X3173120Y2843631D01*
X3183991Y2835605D01*
X3195878Y2829102D01*
X3208477Y2824276D01*
X3218586Y2821838D01*
X3222396Y2820060D01*
X3225139Y2816910D01*
X3226358Y2812897D01*
X3225901Y2808732D01*
X3223768Y2805125D01*
X3220364Y2802686D01*
X3216249Y2801823D01*
X3006801Y2801823D01*
X3002584Y2802686D01*
X2999130Y2805277D01*
X2997047Y2808986D01*
X2996692Y2813253D01*
X2998114Y2817317D01*
X3001111Y2820416D01*
X3005074Y2821990D01*
X3007969Y2822498D01*
X3020923Y2826461D01*
X3033166Y2832201D01*
X3044596Y2839466D01*
X3054908Y2848203D01*
X3064002Y2858211D01*
X3071622Y2869387D01*
X3077768Y2881477D01*
X3082188Y2894228D01*
X3084880Y2907487D01*
X3085795Y2921000D01*
X3084880Y2934512D01*
X3082239Y2947416D01*
X3082137Y2950718D01*
X3083102Y2953918D01*
X3085033Y2956610D01*
X3629202Y3500780D01*
X3632504Y3502964D01*
X3636365Y3503726D01*
X4884928Y3503777D01*
X4893665Y3504996D01*
X4901692Y3507689D01*
X4909058Y3511804D01*
X4915966Y3517544D01*
X5426252Y4027830D01*
X5429554Y4030014D01*
X5433415Y4030776D01*
X5618022Y4030776D01*
X5621477Y4030167D01*
X5624474Y4028440D01*
X5626760Y4025798D01*
X5630824Y4018940D01*
X5639308Y4008221D01*
X5649112Y3998722D01*
X5660085Y3990644D01*
X5672023Y3984091D01*
X5684774Y3979214D01*
X5698032Y3976014D01*
X5711596Y3974693D01*
X5725210Y3975150D01*
X5738672Y3977386D01*
X5751677Y3981450D01*
X5764072Y3987190D01*
X5775553Y3994505D01*
X5785967Y4003294D01*
X5795111Y4013454D01*
X5802833Y4024680D01*
X5808980Y4036822D01*
X5813450Y4049725D01*
X5816193Y4063085D01*
X5817108Y4076700D01*
X5816193Y4090314D01*
X5813450Y4103674D01*
X5808980Y4116578D01*
X5802833Y4128719D01*
X5795111Y4139946D01*
X5785967Y4150106D01*
X5775553Y4158894D01*
X5764072Y4166209D01*
X5751677Y4171950D01*
X5738672Y4176014D01*
X5725210Y4178249D01*
X5711596Y4178706D01*
X5698032Y4177385D01*
X5684774Y4174185D01*
X5672023Y4169308D01*
X5660085Y4162755D01*
X5649112Y4154678D01*
X5639308Y4145178D01*
X5630824Y4134459D01*
X5626760Y4127601D01*
X5624474Y4124960D01*
X5621477Y4123232D01*
X5618022Y4122623D01*
X5408422Y4122572D01*
X5399684Y4121353D01*
X5391658Y4118660D01*
X5384292Y4114546D01*
X5377383Y4108805D01*
X4867097Y3598519D01*
X4863795Y3596335D01*
X4859934Y3595573D01*
X3611372Y3595522D01*
X3602634Y3594303D01*
X3594608Y3591610D01*
X3587242Y3587496D01*
X3580333Y3581755D01*
X3020060Y3021482D01*
X3017012Y3019399D01*
X3013456Y3018485D01*
X2994660Y3021787D01*
X2981096Y3022244D01*
X2967634Y3020872D01*
X2954477Y3017723D01*
X2941878Y3012897D01*
X2929991Y3006394D01*
X2919120Y2998368D01*
X2909366Y2988919D01*
X2900984Y2978302D01*
X2894076Y2966669D01*
X2888843Y2954223D01*
X2885236Y2941167D01*
X2883458Y2927756D01*
X2883458Y2914243D01*
X2885236Y2900832D01*
X2888843Y2887776D01*
X2894076Y2875330D01*
X2900984Y2863697D01*
X2909366Y2853080D01*
X2919120Y2843631D01*
X2929991Y2835605D01*
X2941878Y2829102D01*
X2954477Y2824276D01*
X2964586Y2821838D01*
X2968396Y2820060D01*
X2971139Y2816910D01*
X2972358Y2812897D01*
X2971901Y2808732D01*
X2969768Y2805125D01*
X2966364Y2802686D01*
X2962249Y2801823D01*
X2752801Y2801823D01*
X2748584Y2802686D01*
X2745130Y2805277D01*
X2743047Y2808986D01*
X2742692Y2813253D01*
X2744114Y2817317D01*
X2747111Y2820416D01*
X2751074Y2821990D01*
X2753969Y2822498D01*
X2766923Y2826461D01*
X2779166Y2832201D01*
X2790596Y2839466D01*
X2800908Y2848203D01*
X2810002Y2858211D01*
X2817622Y2869387D01*
X2823768Y2881477D01*
X2828188Y2894228D01*
X2830880Y2907487D01*
X2831795Y2921000D01*
X2830880Y2934512D01*
X2828188Y2947771D01*
X2823768Y2960522D01*
X2817622Y2972612D01*
X2810002Y2983788D01*
X2800908Y2993796D01*
X2790596Y3002534D01*
X2779166Y3009798D01*
X2766923Y3015538D01*
X2753969Y3019501D01*
X2740660Y3021787D01*
X2727096Y3022244D01*
X2713634Y3020872D01*
X2700477Y3017723D01*
X2687878Y3012897D01*
X2675991Y3006394D01*
X2665120Y2998368D01*
X2655366Y2988919D01*
X2646984Y2978302D01*
X2640076Y2966669D01*
X2634843Y2954223D01*
X2631236Y2941167D01*
X2629458Y2927756D01*
X2629458Y2914243D01*
X2631236Y2900832D01*
X2634843Y2887776D01*
X2640076Y2875330D01*
X2646984Y2863697D01*
X2655366Y2853080D01*
X2665120Y2843631D01*
X2675991Y2835605D01*
X2687878Y2829102D01*
X2700477Y2824276D01*
X2710586Y2821838D01*
X2714396Y2820060D01*
X2717139Y2816910D01*
X2718358Y2812897D01*
X2717901Y2808732D01*
X2715768Y2805125D01*
X2712364Y2802686D01*
X2708249Y2801823D01*
X2664815Y2801823D01*
X2660954Y2802585D01*
X2657652Y2804769D01*
X2577033Y2885389D01*
X2575102Y2888081D01*
X2574137Y2891282D01*
X2574239Y2894584D01*
X2576880Y2907487D01*
X2577795Y2921000D01*
X2576880Y2934512D01*
X2574188Y2947771D01*
X2569768Y2960522D01*
X2563622Y2972612D01*
X2556002Y2983788D01*
X2546908Y2993796D01*
X2536596Y3002534D01*
X2525166Y3009798D01*
X2512923Y3015538D01*
X2499969Y3019501D01*
X2486660Y3021787D01*
X2473096Y3022244D01*
X2459634Y3020872D01*
X2446477Y3017723D01*
X2433878Y3012897D01*
X2421991Y3006394D01*
X2411120Y2998368D01*
X2401366Y2988919D01*
X2392984Y2978302D01*
X2386076Y2966669D01*
X2380843Y2954223D01*
X2377236Y2941167D01*
X2375458Y2927756D01*
X2375458Y2914243D01*
X2377236Y2900832D01*
X2380843Y2887776D01*
X2386076Y2875330D01*
X2392984Y2863697D01*
X2401366Y2853080D01*
X2411120Y2843631D01*
X2421991Y2835605D01*
X2433878Y2829102D01*
X2446477Y2824276D01*
X2459634Y2821127D01*
X2473096Y2819755D01*
X2486660Y2820212D01*
X2505456Y2823514D01*
X2509012Y2822600D01*
X2512060Y2820517D01*
X2599232Y2733344D01*
X2601468Y2730042D01*
X2602230Y2726131D01*
X2601468Y2722270D01*
X2599232Y2718968D01*
X2595930Y2716733D01*
X2592070Y2715971D01*
X1484985Y2715971D01*
X1481074Y2716733D01*
X1477772Y2718968D01*
X1272692Y2924048D01*
X1270457Y2927350D01*
X1269695Y2931261D01*
X1269695Y3319119D01*
X1270660Y3323336D01*
X1273251Y3326841D01*
X1277264Y3330244D01*
X1287170Y3341166D01*
X1295704Y3353206D01*
X1302715Y3366211D01*
X1308049Y3379978D01*
X1311605Y3394252D01*
X1313434Y3408934D01*
X1313434Y3423665D01*
X1311605Y3438347D01*
X1308049Y3452622D01*
X1302715Y3466388D01*
X1295704Y3479393D01*
X1287170Y3491433D01*
X1277264Y3502355D01*
X1266037Y3511956D01*
X1253744Y3520084D01*
X1240536Y3526688D01*
X1226616Y3531615D01*
X1212189Y3534765D01*
X1197508Y3536086D01*
X1186230Y3535781D01*
X1182166Y3536492D01*
X1178712Y3538728D01*
X993292Y3724148D01*
X991057Y3727450D01*
X990295Y3731361D01*
X990295Y3815587D01*
X991108Y3819550D01*
X993394Y3822903D01*
X996797Y3825087D01*
X1000810Y3825748D01*
X1004722Y3824833D01*
X1007973Y3822446D01*
X1010056Y3818940D01*
X1012088Y3813098D01*
X1015187Y3808171D01*
X1019302Y3804107D01*
X1024178Y3801008D01*
X1029665Y3799128D01*
X1035964Y3798366D01*
X1079042Y3798366D01*
X1079042Y3867962D01*
X1000455Y3867962D01*
X996594Y3868724D01*
X993292Y3870909D01*
X991057Y3874211D01*
X990295Y3878122D01*
X990295Y3970477D01*
X991057Y3974388D01*
X993292Y3977690D01*
X996594Y3979875D01*
X1000455Y3980637D01*
X1079042Y3980637D01*
X1079042Y4050436D01*
X1079754Y4054144D01*
X1081786Y4057345D01*
X1084834Y4059580D01*
X1088491Y4060545D01*
X1092250Y4060139D01*
X1105255Y4056075D01*
X1120241Y4053332D01*
X1135380Y4052417D01*
X1150569Y4053332D01*
X1165504Y4056075D01*
X1178560Y4060139D01*
X1182319Y4060545D01*
X1185976Y4059580D01*
X1189024Y4057345D01*
X1191056Y4054144D01*
X1191768Y4050436D01*
X1191768Y3980637D01*
X1261313Y3980637D01*
X1261313Y4023715D01*
X1260602Y4030065D01*
X1258671Y4035501D01*
X1255623Y4040428D01*
X1251508Y4044492D01*
X1246632Y4047591D01*
X1241145Y4049471D01*
X1234846Y4050182D01*
X1202842Y4050182D01*
X1198575Y4051147D01*
X1195120Y4053789D01*
X1193038Y4057650D01*
X1192834Y4062018D01*
X1194409Y4066032D01*
X1197610Y4069079D01*
X1206906Y4074718D01*
X1218895Y4084065D01*
X1229614Y4094835D01*
X1232509Y4098493D01*
X1234744Y4100576D01*
X1237488Y4101947D01*
X1240485Y4102404D01*
X1447444Y4102455D01*
X1456283Y4103268D01*
X1458722Y4103674D01*
X1467358Y4105808D01*
X1469694Y4106570D01*
X1477873Y4109974D01*
X1480058Y4111091D01*
X1489710Y4117136D01*
X1496568Y4122775D01*
X3479393Y6105601D01*
X3482543Y6107734D01*
X3500272Y6110833D01*
X3513328Y6114897D01*
X3525672Y6120638D01*
X3537153Y6127953D01*
X3547567Y6136741D01*
X3556711Y6146901D01*
X3564432Y6158128D01*
X3570579Y6170269D01*
X3575100Y6183172D01*
X3577793Y6196533D01*
X3578707Y6210147D01*
X3577793Y6223762D01*
X3575100Y6237122D01*
X3570579Y6250025D01*
X3564432Y6262166D01*
X3556711Y6273393D01*
X3547567Y6283553D01*
X3537153Y6292342D01*
X3525672Y6299657D01*
X3513328Y6305397D01*
X3500272Y6309461D01*
X3486861Y6311696D01*
X3473196Y6312154D01*
X3459632Y6310833D01*
X3446373Y6307632D01*
X3433673Y6302756D01*
X3421684Y6296202D01*
X3410712Y6288125D01*
X3400907Y6278626D01*
X3392474Y6267907D01*
X3385515Y6256172D01*
X3380181Y6243624D01*
X3376574Y6230467D01*
X3374999Y6218834D01*
X3374034Y6215684D01*
X3372104Y6212992D01*
X3327806Y6168694D01*
X3324504Y6166459D01*
X3320643Y6165697D01*
X3267049Y6165697D01*
X3267049Y6112154D01*
X3266287Y6108242D01*
X3264103Y6104940D01*
X1416304Y4257192D01*
X1413002Y4254957D01*
X1409141Y4254195D01*
X1240485Y4254195D01*
X1237488Y4254652D01*
X1234744Y4256024D01*
X1232509Y4258106D01*
X1229614Y4261764D01*
X1218895Y4272534D01*
X1206906Y4281881D01*
X1193901Y4289755D01*
X1179982Y4296054D01*
X1176832Y4298238D01*
X1174699Y4301490D01*
X1173988Y4305300D01*
X1174699Y4309110D01*
X1176832Y4312361D01*
X1179982Y4314545D01*
X1193901Y4320844D01*
X1206906Y4328718D01*
X1218895Y4338066D01*
X1229614Y4348835D01*
X1239012Y4360773D01*
X1246886Y4373778D01*
X1253083Y4387646D01*
X1257604Y4402175D01*
X1260348Y4417110D01*
X1261262Y4432300D01*
X1260500Y4445203D01*
X1261160Y4449419D01*
X1263446Y4453026D01*
X1860956Y5050586D01*
X1866646Y5057444D01*
X1868068Y5059426D01*
X1872640Y5067046D01*
X1873757Y5069230D01*
X1877161Y5077460D01*
X1877923Y5079796D01*
X1880057Y5088432D01*
X1880463Y5090871D01*
X1881327Y5099710D01*
X1881378Y5864199D01*
X1882089Y5867958D01*
X1884121Y5871159D01*
X1894789Y5882436D01*
X1903323Y5894222D01*
X1910334Y5906973D01*
X1915668Y5920486D01*
X1919274Y5934608D01*
X1921103Y5949035D01*
X1921103Y5960414D01*
X1921916Y5964275D01*
X1924100Y5967577D01*
X2088083Y6131560D01*
X2091385Y6133744D01*
X2095246Y6134557D01*
X2333853Y6134557D01*
X2337358Y6133947D01*
X2340406Y6132118D01*
X2344978Y6128258D01*
X2356459Y6120942D01*
X2368854Y6115202D01*
X2381859Y6111138D01*
X2395321Y6108903D01*
X2408936Y6108446D01*
X2422550Y6109766D01*
X2435809Y6112967D01*
X2448509Y6117844D01*
X2460498Y6124397D01*
X2471470Y6132474D01*
X2481275Y6141974D01*
X2489708Y6152692D01*
X2496667Y6164427D01*
X2502001Y6176975D01*
X2505608Y6190132D01*
X2507386Y6203645D01*
X2507386Y6217259D01*
X2505608Y6230772D01*
X2502001Y6243929D01*
X2496667Y6256477D01*
X2489708Y6268212D01*
X2481275Y6278930D01*
X2471470Y6288430D01*
X2460498Y6296507D01*
X2448509Y6303060D01*
X2435809Y6307937D01*
X2422550Y6311138D01*
X2408936Y6312458D01*
X2395321Y6312052D01*
X2381859Y6309766D01*
X2368854Y6305702D01*
X2356459Y6299962D01*
X2344978Y6292646D01*
X2340406Y6288735D01*
X2337308Y6286957D01*
X2333853Y6286347D01*
X2056942Y6286296D01*
X2048103Y6285484D01*
X2045665Y6285077D01*
X2037080Y6282944D01*
X2026513Y6278778D01*
X2024329Y6277660D01*
X2014677Y6271615D01*
X2007870Y6265976D01*
X1816760Y6074918D01*
X1813153Y6072581D01*
X1808937Y6071971D01*
X1805482Y6072174D01*
X1790954Y6071260D01*
X1776628Y6068568D01*
X1762810Y6064046D01*
X1749653Y6057849D01*
X1737360Y6050076D01*
X1726133Y6040780D01*
X1716176Y6030163D01*
X1707642Y6018377D01*
X1700631Y6005626D01*
X1695246Y5992114D01*
X1691639Y5977991D01*
X1689811Y5963564D01*
X1689811Y5949035D01*
X1691639Y5934608D01*
X1695246Y5920486D01*
X1700631Y5906973D01*
X1707642Y5894222D01*
X1716176Y5882436D01*
X1726793Y5871210D01*
X1728825Y5867958D01*
X1729536Y5864199D01*
X1729536Y5138013D01*
X1728774Y5134102D01*
X1726590Y5130800D01*
X1278432Y4682693D01*
X1275232Y4680508D01*
X1271473Y4679696D01*
X1267663Y4680356D01*
X1264361Y4682388D01*
X1262075Y4685487D01*
X1261110Y4689246D01*
X1260348Y4701489D01*
X1257604Y4716424D01*
X1253083Y4730953D01*
X1246886Y4744821D01*
X1239012Y4757826D01*
X1229614Y4769764D01*
X1218895Y4780534D01*
X1206906Y4789881D01*
X1193901Y4797755D01*
X1180033Y4804003D01*
X1165504Y4808524D01*
X1150569Y4811268D01*
X1135380Y4812182D01*
X1122476Y4811420D01*
X1118260Y4812030D01*
X1114653Y4814366D01*
X1031392Y4897628D01*
X1029157Y4900930D01*
X1028395Y4904841D01*
X1028395Y6212738D01*
X1029157Y6216650D01*
X1031392Y6219952D01*
X1157122Y6345682D01*
X1160729Y6348018D01*
X1164945Y6348628D01*
X1168400Y6348425D01*
X1182928Y6349339D01*
X1197203Y6352032D01*
X1211072Y6356553D01*
X1224229Y6362750D01*
X1236522Y6370523D01*
X1247749Y6379819D01*
X1257706Y6390436D01*
X1266240Y6402222D01*
X1273251Y6414973D01*
X1278636Y6428486D01*
X1282242Y6442608D01*
X1284071Y6457035D01*
X1284071Y6471564D01*
X1282242Y6485991D01*
X1278636Y6500114D01*
X1273251Y6513626D01*
X1266240Y6526377D01*
X1257706Y6538163D01*
X1247089Y6549440D01*
X1245006Y6552641D01*
X1244295Y6556400D01*
X1244295Y7049109D01*
X1245565Y7055612D01*
X1246936Y7069175D01*
X1246479Y7082840D01*
X1244193Y7096252D01*
X1240180Y7109307D01*
X1234440Y7121652D01*
X1227074Y7133183D01*
X1218285Y7143597D01*
X1208176Y7152741D01*
X1196898Y7160463D01*
X1184757Y7166609D01*
X1171854Y7171080D01*
X1158494Y7173772D01*
X1144879Y7174687D01*
X1131316Y7173772D01*
X1117904Y7171080D01*
X1105052Y7166609D01*
X1092860Y7160463D01*
X1081633Y7152741D01*
X1071524Y7143597D01*
X1062736Y7133183D01*
X1055370Y7121652D01*
X1049629Y7109307D01*
X1045616Y7096252D01*
X1043330Y7082840D01*
X1042873Y7069175D01*
X1044244Y7055612D01*
X1047394Y7042353D01*
X1052322Y7029653D01*
X1058875Y7017664D01*
X1066952Y7006691D01*
X1076401Y6996887D01*
X1090168Y6985965D01*
X1091895Y6982917D01*
X1092504Y6979462D01*
X1092504Y6556400D01*
X1091793Y6552641D01*
X1089710Y6549440D01*
X1079093Y6538163D01*
X1070559Y6526377D01*
X1063548Y6513626D01*
X1058164Y6500114D01*
X1054557Y6485991D01*
X1052728Y6471564D01*
X1052728Y6460185D01*
X1051966Y6456324D01*
X1049782Y6453022D01*
X896975Y6300165D01*
X889914Y6291326D01*
X885291Y6283706D01*
X884174Y6281521D01*
X880770Y6273292D01*
X880008Y6270955D01*
X877874Y6262319D01*
X877468Y6259880D01*
X876655Y6251041D01*
X876655Y4866538D01*
X877468Y4857699D01*
X877874Y4855260D01*
X880008Y4846624D01*
X880770Y4844288D01*
X884174Y4836058D01*
X885291Y4833874D01*
X889914Y4826254D01*
X896975Y4817414D01*
X992886Y4721402D01*
X995121Y4718151D01*
X995883Y4714240D01*
X995121Y4710328D01*
X992886Y4707077D01*
X858875Y4572965D01*
X851814Y4564126D01*
X847191Y4556506D01*
X846074Y4554321D01*
X842670Y4546092D01*
X841908Y4543755D01*
X839774Y4535119D01*
X839368Y4532680D01*
X838555Y4523841D01*
X838555Y3693058D01*
X839368Y3684219D01*
X839774Y3681780D01*
X841908Y3673144D01*
X842670Y3670808D01*
X846074Y3662578D01*
X847191Y3660394D01*
X851814Y3652774D01*
X858875Y3643934D01*
X1071422Y3431336D01*
X1073759Y3427729D01*
X1074369Y3423513D01*
X1073912Y3416300D01*
X1074826Y3401568D01*
X1077569Y3387039D01*
X1082040Y3373018D01*
X1088186Y3359607D01*
X1095959Y3347059D01*
X1105204Y3335528D01*
X1114806Y3326231D01*
X1117092Y3322929D01*
X1117904Y3318967D01*
X1117955Y2892958D01*
X1118768Y2884119D01*
X1119174Y2881680D01*
X1121308Y2873044D01*
X1122070Y2870708D01*
X1125474Y2862478D01*
X1126591Y2860294D01*
X1131214Y2852674D01*
X1138275Y2843834D01*
X1397558Y2584551D01*
X1406398Y2577490D01*
X1414018Y2572867D01*
X1416202Y2571750D01*
X1424432Y2568346D01*
X1426768Y2567584D01*
X1435404Y2565450D01*
X1437843Y2565044D01*
X1446682Y2564231D01*
X2975762Y2564180D01*
X2979674Y2563418D01*
X2982976Y2561183D01*
X4031132Y1513027D01*
X4033418Y1509471D01*
X4034078Y1505254D01*
X4032961Y1501190D01*
X4030268Y1497888D01*
X4026509Y1496009D01*
X4022242Y1495806D01*
X4010660Y1497787D01*
X3997096Y1498244D01*
X3983634Y1496872D01*
X3970477Y1493723D01*
X3957878Y1488897D01*
X3945991Y1482394D01*
X3935120Y1474368D01*
X3925366Y1464919D01*
X3916984Y1454302D01*
X3910076Y1442669D01*
X3904843Y1430223D01*
X3901236Y1417167D01*
X3899458Y1403756D01*
X3899458Y1390243D01*
X3901236Y1376832D01*
X3904843Y1363776D01*
X3910076Y1351330D01*
X3916984Y1339697D01*
X3925366Y1329080D01*
X3935120Y1319631D01*
X3945991Y1311605D01*
X3957878Y1305102D01*
X3970477Y1300276D01*
X3983634Y1297127D01*
G37*
G36*
X1138072Y8240725D02*
G01*
X1151737Y8240725D01*
X1165250Y8242553D01*
X1178407Y8246160D01*
X1190955Y8251444D01*
X1202690Y8258403D01*
X1213358Y8266887D01*
X1222857Y8276691D01*
X1230934Y8287664D01*
X1237488Y8299602D01*
X1242415Y8312353D01*
X1245565Y8325612D01*
X1246936Y8339175D01*
X1246479Y8352790D01*
X1244193Y8366252D01*
X1240180Y8379256D01*
X1234440Y8391652D01*
X1227074Y8403132D01*
X1218285Y8413546D01*
X1208176Y8422690D01*
X1196898Y8430412D01*
X1184757Y8436559D01*
X1171854Y8441029D01*
X1158494Y8443772D01*
X1144879Y8444687D01*
X1131316Y8443772D01*
X1117904Y8441029D01*
X1105052Y8436559D01*
X1092860Y8430412D01*
X1081633Y8422690D01*
X1071524Y8413546D01*
X1062736Y8403132D01*
X1055370Y8391652D01*
X1049629Y8379256D01*
X1045616Y8366252D01*
X1043330Y8352790D01*
X1042873Y8339175D01*
X1044244Y8325612D01*
X1047394Y8312353D01*
X1052322Y8299602D01*
X1058875Y8287664D01*
X1066952Y8276691D01*
X1076401Y8266887D01*
X1087120Y8258403D01*
X1098854Y8251444D01*
X1111402Y8246160D01*
X1124559Y8242553D01*
G37*
G36*
X1053236Y8133029D02*
G01*
X1100429Y8133029D01*
X1100429Y8180222D01*
X1092860Y8176412D01*
X1081633Y8168690D01*
X1071524Y8159546D01*
X1062736Y8149132D01*
X1055370Y8137652D01*
G37*
G36*
X4718456Y1305915D02*
G01*
X4718456Y1352956D01*
X4671415Y1352956D01*
X4672076Y1351330D01*
X4678984Y1339697D01*
X4687366Y1329080D01*
X4697120Y1319631D01*
X4707991Y1311605D01*
G37*
G36*
X4806543Y1306017D02*
G01*
X4811166Y1308201D01*
X4822596Y1315466D01*
X4832908Y1324203D01*
X4842002Y1334211D01*
X4849622Y1345387D01*
X4853482Y1352956D01*
X4806543Y1352956D01*
G37*
G36*
X4806543Y1441043D02*
G01*
X4853482Y1441043D01*
X4849622Y1448612D01*
X4842002Y1459788D01*
X4832908Y1469796D01*
X4822596Y1478534D01*
X4811166Y1485798D01*
X4806543Y1487982D01*
G37*
G36*
X4671415Y1441043D02*
G01*
X4718456Y1441043D01*
X4718456Y1488084D01*
X4707991Y1482394D01*
X4697120Y1474368D01*
X4687366Y1464919D01*
X4678984Y1454302D01*
X4672076Y1442669D01*
G37*
G36*
X5825591Y1493062D02*
G01*
X5840374Y1493520D01*
X5854954Y1495806D01*
X5869127Y1499870D01*
X5882741Y1505610D01*
X5895492Y1512976D01*
X5907278Y1521866D01*
X5917895Y1532128D01*
X5927140Y1543659D01*
X5934913Y1556207D01*
X5941060Y1569618D01*
X5945530Y1583639D01*
X5948273Y1598168D01*
X5949188Y1612900D01*
X5948273Y1627632D01*
X5945530Y1642160D01*
X5941060Y1656181D01*
X5934913Y1669592D01*
X5927140Y1682140D01*
X5917895Y1693672D01*
X5907278Y1703933D01*
X5895492Y1712823D01*
X5882741Y1720189D01*
X5869127Y1725930D01*
X5854954Y1729993D01*
X5840374Y1732280D01*
X5825591Y1732686D01*
X5810910Y1731365D01*
X5796483Y1728216D01*
X5782564Y1723288D01*
X5769356Y1716684D01*
X5757062Y1708556D01*
X5745835Y1698955D01*
X5735929Y1688033D01*
X5727395Y1675993D01*
X5720384Y1662988D01*
X5715101Y1649222D01*
X5711494Y1634947D01*
X5709666Y1620266D01*
X5709666Y1605534D01*
X5711494Y1590852D01*
X5715101Y1576578D01*
X5720384Y1562811D01*
X5727395Y1549806D01*
X5735929Y1537766D01*
X5745835Y1526844D01*
X5757062Y1517243D01*
X5769356Y1509115D01*
X5782564Y1502511D01*
X5796483Y1497584D01*
X5810910Y1494434D01*
G37*
G36*
X1189329Y8133029D02*
G01*
X1236573Y8133029D01*
X1234440Y8137652D01*
X1227074Y8149132D01*
X1218285Y8159546D01*
X1208176Y8168690D01*
X1196898Y8176412D01*
X1189329Y8180222D01*
G37*
G36*
X2901899Y8106664D02*
G01*
X2927146Y8108137D01*
X2952191Y8111591D01*
X2976880Y8116925D01*
X3001111Y8124190D01*
X3024682Y8133283D01*
X3047492Y8144154D01*
X3069386Y8156803D01*
X3090214Y8171129D01*
X3109874Y8186978D01*
X3128264Y8204301D01*
X3145231Y8223046D01*
X3160725Y8243011D01*
X3174644Y8264144D01*
X3186836Y8286242D01*
X3197301Y8309254D01*
X3205937Y8333028D01*
X3212693Y8357362D01*
X3217570Y8382152D01*
X3220516Y8407247D01*
X3221482Y8432495D01*
X3220516Y8457793D01*
X3217570Y8482888D01*
X3212693Y8507679D01*
X3205937Y8532012D01*
X3197301Y8555786D01*
X3186836Y8578799D01*
X3174644Y8600897D01*
X3160725Y8622030D01*
X3145231Y8641994D01*
X3128264Y8660739D01*
X3109874Y8678062D01*
X3090214Y8693912D01*
X3069386Y8708237D01*
X3047492Y8720886D01*
X3024682Y8731758D01*
X3001111Y8740851D01*
X2976880Y8748115D01*
X2952191Y8753449D01*
X2927146Y8756904D01*
X2901899Y8758377D01*
X2876651Y8757869D01*
X2851505Y8755430D01*
X2826613Y8751011D01*
X2802128Y8744712D01*
X2778201Y8736533D01*
X2754985Y8726525D01*
X2732633Y8714740D01*
X2711246Y8701278D01*
X2690977Y8686190D01*
X2671978Y8669578D01*
X2654249Y8651544D01*
X2637993Y8632190D01*
X2623312Y8611616D01*
X2610256Y8589975D01*
X2598928Y8567369D01*
X2589377Y8544001D01*
X2581656Y8519922D01*
X2575814Y8495334D01*
X2571902Y8470341D01*
X2569921Y8445144D01*
X2569921Y8419896D01*
X2571902Y8394700D01*
X2575814Y8369706D01*
X2581656Y8345119D01*
X2589377Y8321040D01*
X2598928Y8297672D01*
X2610256Y8275066D01*
X2623312Y8253425D01*
X2637993Y8232851D01*
X2654249Y8213496D01*
X2671978Y8195462D01*
X2690977Y8178850D01*
X2711246Y8163763D01*
X2732633Y8150301D01*
X2754985Y8138515D01*
X2778201Y8128508D01*
X2802128Y8120329D01*
X2826613Y8114030D01*
X2851505Y8109610D01*
X2876651Y8107172D01*
G37*
G36*
X6136640Y1505559D02*
G01*
X6149492Y1512976D01*
X6161278Y1521866D01*
X6171895Y1532128D01*
X6181140Y1543659D01*
X6188913Y1556207D01*
X6190437Y1559560D01*
X6136640Y1559560D01*
G37*
G36*
X6029960Y1505813D02*
G01*
X6029960Y1559560D01*
X5976162Y1559560D01*
X5981395Y1549806D01*
X5989929Y1537766D01*
X5999835Y1526844D01*
X6011062Y1517243D01*
X6023356Y1509115D01*
G37*
G36*
X1100429Y7996783D02*
G01*
X1100429Y8044129D01*
X1053084Y8044129D01*
X1058875Y8033664D01*
X1066952Y8022691D01*
X1076401Y8012887D01*
X1087120Y8004403D01*
X1098854Y7997444D01*
G37*
G36*
X5976162Y1666239D02*
G01*
X6029960Y1666239D01*
X6029960Y1719986D01*
X6023356Y1716684D01*
X6011062Y1708556D01*
X5999835Y1698955D01*
X5989929Y1688033D01*
X5981395Y1675993D01*
G37*
G36*
X6136640Y1666239D02*
G01*
X6190437Y1666239D01*
X6188913Y1669592D01*
X6181140Y1682140D01*
X6171895Y1693672D01*
X6161278Y1703933D01*
X6149492Y1712823D01*
X6136640Y1720240D01*
G37*
G36*
X5825591Y2585262D02*
G01*
X5840374Y2585720D01*
X5854954Y2588006D01*
X5869127Y2592070D01*
X5882741Y2597810D01*
X5895492Y2605176D01*
X5907278Y2614066D01*
X5917895Y2624328D01*
X5927140Y2635859D01*
X5934913Y2648407D01*
X5941060Y2661818D01*
X5945530Y2675839D01*
X5948273Y2690368D01*
X5949188Y2705100D01*
X5948273Y2719832D01*
X5945530Y2734360D01*
X5941060Y2748381D01*
X5934913Y2761792D01*
X5927140Y2774340D01*
X5917895Y2785872D01*
X5907278Y2796133D01*
X5895492Y2805023D01*
X5882741Y2812389D01*
X5869127Y2818130D01*
X5854954Y2822194D01*
X5840374Y2824480D01*
X5825591Y2824886D01*
X5810910Y2823565D01*
X5796483Y2820416D01*
X5782564Y2815488D01*
X5769356Y2808884D01*
X5757062Y2800756D01*
X5745835Y2791155D01*
X5735929Y2780233D01*
X5727395Y2768193D01*
X5720384Y2755188D01*
X5715050Y2741422D01*
X5711494Y2727147D01*
X5709666Y2712466D01*
X5709666Y2697734D01*
X5711494Y2683052D01*
X5715050Y2668778D01*
X5720384Y2655011D01*
X5727395Y2642006D01*
X5735929Y2629966D01*
X5745835Y2619044D01*
X5757062Y2609443D01*
X5769356Y2601315D01*
X5782564Y2594711D01*
X5796483Y2589784D01*
X5810910Y2586634D01*
G37*
G36*
X6136640Y2597759D02*
G01*
X6149492Y2605176D01*
X6161278Y2614066D01*
X6171895Y2624328D01*
X6181140Y2635859D01*
X6188913Y2648407D01*
X6190437Y2651760D01*
X6136640Y2651760D01*
G37*
G36*
X6029960Y2598013D02*
G01*
X6029960Y2651760D01*
X5976162Y2651760D01*
X5981395Y2642006D01*
X5989929Y2629966D01*
X5999835Y2619044D01*
X6011062Y2609443D01*
X6023356Y2601315D01*
G37*
G36*
X1189329Y7996783D02*
G01*
X1190955Y7997444D01*
X1202690Y8004403D01*
X1213358Y8012887D01*
X1222857Y8022691D01*
X1230934Y8033664D01*
X1236675Y8044129D01*
X1189329Y8044129D01*
G37*
G36*
X5976162Y2758440D02*
G01*
X6029960Y2758440D01*
X6029960Y2812186D01*
X6023356Y2808884D01*
X6011062Y2800756D01*
X5999835Y2791155D01*
X5989929Y2780233D01*
X5981395Y2768193D01*
G37*
G36*
X6136640Y2758440D02*
G01*
X6190437Y2758440D01*
X6188913Y2761792D01*
X6181140Y2774340D01*
X6171895Y2785872D01*
X6161278Y2796133D01*
X6149492Y2805023D01*
X6136640Y2812440D01*
G37*
G36*
X1189329Y7371029D02*
G01*
X1236573Y7371029D01*
X1234440Y7375652D01*
X1227074Y7387183D01*
X1218285Y7397597D01*
X1208176Y7406741D01*
X1196898Y7414463D01*
X1189329Y7418273D01*
G37*
G36*
X1053236Y7371029D02*
G01*
X1100429Y7371029D01*
X1100429Y7418273D01*
X1092860Y7414463D01*
X1081633Y7406741D01*
X1071524Y7397597D01*
X1062736Y7387183D01*
X1055370Y7375652D01*
G37*
G36*
X1100429Y7234834D02*
G01*
X1100429Y7282129D01*
X1053084Y7282129D01*
X1058875Y7271664D01*
X1066952Y7260691D01*
X1076401Y7250887D01*
X1087120Y7242454D01*
X1098854Y7235494D01*
G37*
G36*
X1189329Y7234834D02*
G01*
X1190955Y7235494D01*
X1202690Y7242454D01*
X1213358Y7250887D01*
X1222857Y7260691D01*
X1230934Y7271664D01*
X1236675Y7282129D01*
X1189329Y7282129D01*
G37*
G36*
X4941671Y2819704D02*
G01*
X5091328Y2819704D01*
X5097627Y2820416D01*
X5103114Y2822295D01*
X5107990Y2825394D01*
X5112105Y2829509D01*
X5115204Y2834386D01*
X5117084Y2839872D01*
X5117795Y2846171D01*
X5117795Y2995828D01*
X5117084Y3002127D01*
X5115204Y3007614D01*
X5112105Y3012490D01*
X5107990Y3016605D01*
X5103114Y3019704D01*
X5097627Y3021584D01*
X5091328Y3022295D01*
X4941671Y3022295D01*
X4935372Y3021584D01*
X4929886Y3019704D01*
X4925009Y3016605D01*
X4920894Y3012490D01*
X4917795Y3007614D01*
X4915916Y3002127D01*
X4915204Y2995828D01*
X4915204Y2846171D01*
X4915916Y2839872D01*
X4917795Y2834386D01*
X4920894Y2829509D01*
X4925009Y2825394D01*
X4929886Y2822295D01*
X4935372Y2820416D01*
G37*
G36*
X1457096Y2819755D02*
G01*
X1470660Y2820212D01*
X1483969Y2822498D01*
X1496923Y2826461D01*
X1509166Y2832201D01*
X1520596Y2839466D01*
X1530908Y2848203D01*
X1540002Y2858211D01*
X1547622Y2869387D01*
X1553768Y2881477D01*
X1558188Y2894228D01*
X1560880Y2907487D01*
X1561795Y2921000D01*
X1560880Y2934512D01*
X1558188Y2947771D01*
X1553768Y2960522D01*
X1547622Y2972612D01*
X1540002Y2983788D01*
X1530908Y2993796D01*
X1520596Y3002534D01*
X1509166Y3009798D01*
X1496923Y3015538D01*
X1483969Y3019501D01*
X1470660Y3021787D01*
X1457096Y3022244D01*
X1443634Y3020872D01*
X1430477Y3017723D01*
X1417878Y3012897D01*
X1405991Y3006394D01*
X1395120Y2998368D01*
X1385366Y2988919D01*
X1376984Y2978302D01*
X1370076Y2966669D01*
X1364843Y2954223D01*
X1361236Y2941167D01*
X1359458Y2927756D01*
X1359458Y2914243D01*
X1361236Y2900832D01*
X1364843Y2887776D01*
X1370076Y2875330D01*
X1376984Y2863697D01*
X1385366Y2853080D01*
X1395120Y2843631D01*
X1405991Y2835605D01*
X1417878Y2829102D01*
X1430477Y2824276D01*
X1443634Y2821127D01*
G37*
G36*
X1965096Y2819755D02*
G01*
X1978660Y2820212D01*
X1991969Y2822498D01*
X2004923Y2826461D01*
X2017166Y2832201D01*
X2028596Y2839466D01*
X2038908Y2848203D01*
X2048002Y2858211D01*
X2055622Y2869387D01*
X2061768Y2881477D01*
X2066188Y2894228D01*
X2068880Y2907487D01*
X2069795Y2921000D01*
X2068880Y2934512D01*
X2066188Y2947771D01*
X2061768Y2960522D01*
X2055622Y2972612D01*
X2048002Y2983788D01*
X2038908Y2993796D01*
X2028596Y3002534D01*
X2017166Y3009798D01*
X2004923Y3015538D01*
X1991969Y3019501D01*
X1978660Y3021787D01*
X1965096Y3022244D01*
X1951634Y3020872D01*
X1938477Y3017723D01*
X1925878Y3012897D01*
X1913991Y3006394D01*
X1903120Y2998368D01*
X1893366Y2988919D01*
X1884984Y2978302D01*
X1878075Y2966669D01*
X1872843Y2954223D01*
X1869236Y2941167D01*
X1867458Y2927756D01*
X1867458Y2914243D01*
X1869236Y2900832D01*
X1872843Y2887776D01*
X1878075Y2875330D01*
X1884984Y2863697D01*
X1893366Y2853080D01*
X1903120Y2843631D01*
X1913991Y2835605D01*
X1925878Y2829102D01*
X1938477Y2824276D01*
X1951634Y2821127D01*
G37*
G36*
X4505096Y2819755D02*
G01*
X4518660Y2820212D01*
X4531969Y2822498D01*
X4544923Y2826461D01*
X4557166Y2832201D01*
X4568596Y2839466D01*
X4578908Y2848203D01*
X4588002Y2858211D01*
X4595622Y2869387D01*
X4601768Y2881477D01*
X4606188Y2894228D01*
X4608880Y2907487D01*
X4609795Y2921000D01*
X4608880Y2934512D01*
X4606188Y2947771D01*
X4601768Y2960522D01*
X4595622Y2972612D01*
X4588002Y2983788D01*
X4578908Y2993796D01*
X4568596Y3002534D01*
X4557166Y3009798D01*
X4544923Y3015538D01*
X4531969Y3019501D01*
X4518660Y3021787D01*
X4505096Y3022244D01*
X4491634Y3020872D01*
X4478477Y3017723D01*
X4465878Y3012897D01*
X4453991Y3006394D01*
X4443120Y2998368D01*
X4433366Y2988919D01*
X4424984Y2978302D01*
X4418076Y2966669D01*
X4412843Y2954223D01*
X4409236Y2941167D01*
X4407458Y2927756D01*
X4407458Y2914243D01*
X4409236Y2900832D01*
X4412843Y2887776D01*
X4418076Y2875330D01*
X4424984Y2863697D01*
X4433366Y2853080D01*
X4443120Y2843631D01*
X4453991Y2835605D01*
X4465878Y2829102D01*
X4478477Y2824276D01*
X4491634Y2821127D01*
G37*
G36*
X4759096Y2819755D02*
G01*
X4772660Y2820212D01*
X4785969Y2822498D01*
X4798923Y2826461D01*
X4811166Y2832201D01*
X4822596Y2839466D01*
X4832908Y2848203D01*
X4842002Y2858211D01*
X4849622Y2869387D01*
X4855768Y2881477D01*
X4860188Y2894228D01*
X4862880Y2907487D01*
X4863795Y2921000D01*
X4862880Y2934512D01*
X4860188Y2947771D01*
X4855768Y2960522D01*
X4849622Y2972612D01*
X4842002Y2983788D01*
X4832908Y2993796D01*
X4822596Y3002534D01*
X4811166Y3009798D01*
X4798923Y3015538D01*
X4785969Y3019501D01*
X4772660Y3021787D01*
X4759096Y3022244D01*
X4745634Y3020872D01*
X4732477Y3017723D01*
X4719878Y3012897D01*
X4707991Y3006394D01*
X4697120Y2998368D01*
X4687366Y2988919D01*
X4678984Y2978302D01*
X4672076Y2966669D01*
X4666843Y2954223D01*
X4663236Y2941167D01*
X4661458Y2927756D01*
X4661458Y2914243D01*
X4663236Y2900832D01*
X4666843Y2887776D01*
X4672076Y2875330D01*
X4678984Y2863697D01*
X4687366Y2853080D01*
X4697120Y2843631D01*
X4707991Y2835605D01*
X4719878Y2829102D01*
X4732477Y2824276D01*
X4745634Y2821127D01*
G37*
G36*
X2219096Y2819755D02*
G01*
X2232660Y2820212D01*
X2245969Y2822498D01*
X2258923Y2826461D01*
X2271166Y2832201D01*
X2282596Y2839466D01*
X2292908Y2848203D01*
X2302002Y2858211D01*
X2309622Y2869387D01*
X2315768Y2881477D01*
X2320188Y2894228D01*
X2322880Y2907487D01*
X2323795Y2921000D01*
X2322880Y2934512D01*
X2320188Y2947771D01*
X2315768Y2960522D01*
X2309622Y2972612D01*
X2302002Y2983788D01*
X2292908Y2993796D01*
X2282596Y3002534D01*
X2271166Y3009798D01*
X2258923Y3015538D01*
X2245969Y3019501D01*
X2232660Y3021787D01*
X2219096Y3022244D01*
X2205634Y3020872D01*
X2192477Y3017723D01*
X2179878Y3012897D01*
X2167991Y3006394D01*
X2157120Y2998368D01*
X2147366Y2988919D01*
X2138984Y2978302D01*
X2132076Y2966669D01*
X2126843Y2954223D01*
X2123236Y2941167D01*
X2121458Y2927756D01*
X2121458Y2914243D01*
X2123236Y2900832D01*
X2126843Y2887776D01*
X2132076Y2875330D01*
X2138984Y2863697D01*
X2147366Y2853080D01*
X2157120Y2843631D01*
X2167991Y2835605D01*
X2179878Y2829102D01*
X2192477Y2824276D01*
X2205634Y2821127D01*
G37*
G36*
X3997096Y2819755D02*
G01*
X4010660Y2820212D01*
X4023969Y2822498D01*
X4036923Y2826461D01*
X4049166Y2832201D01*
X4060596Y2839466D01*
X4070908Y2848203D01*
X4080001Y2858211D01*
X4087622Y2869387D01*
X4093768Y2881477D01*
X4098188Y2894228D01*
X4100880Y2907487D01*
X4101795Y2921000D01*
X4100880Y2934512D01*
X4098188Y2947771D01*
X4093768Y2960522D01*
X4087622Y2972612D01*
X4080001Y2983788D01*
X4070908Y2993796D01*
X4060596Y3002534D01*
X4049166Y3009798D01*
X4036923Y3015538D01*
X4023969Y3019501D01*
X4010660Y3021787D01*
X3997096Y3022244D01*
X3983634Y3020872D01*
X3970477Y3017723D01*
X3957878Y3012897D01*
X3945991Y3006394D01*
X3935120Y2998368D01*
X3925366Y2988919D01*
X3916984Y2978302D01*
X3910076Y2966669D01*
X3904843Y2954223D01*
X3901236Y2941167D01*
X3899458Y2927756D01*
X3899458Y2914243D01*
X3901236Y2900832D01*
X3904843Y2887776D01*
X3910076Y2875330D01*
X3916984Y2863697D01*
X3925366Y2853080D01*
X3935120Y2843631D01*
X3945991Y2835605D01*
X3957878Y2829102D01*
X3970477Y2824276D01*
X3983634Y2821127D01*
G37*
G36*
X1711096Y2819755D02*
G01*
X1724660Y2820212D01*
X1737969Y2822498D01*
X1750923Y2826461D01*
X1763166Y2832201D01*
X1774596Y2839466D01*
X1784908Y2848203D01*
X1794002Y2858211D01*
X1801622Y2869387D01*
X1807768Y2881477D01*
X1812188Y2894228D01*
X1814880Y2907487D01*
X1815795Y2921000D01*
X1814880Y2934512D01*
X1812239Y2947416D01*
X1812137Y2950718D01*
X1813102Y2953918D01*
X1815033Y2956610D01*
X2568752Y3710330D01*
X2572054Y3712514D01*
X2575915Y3713276D01*
X4074972Y3713276D01*
X4078427Y3712667D01*
X4081424Y3710940D01*
X4083710Y3708298D01*
X4087774Y3701440D01*
X4096258Y3690721D01*
X4106062Y3681222D01*
X4117035Y3673144D01*
X4128973Y3666591D01*
X4141724Y3661714D01*
X4154982Y3658514D01*
X4168546Y3657193D01*
X4182160Y3657650D01*
X4195622Y3659886D01*
X4208627Y3663950D01*
X4221022Y3669690D01*
X4232503Y3677005D01*
X4242917Y3685794D01*
X4252061Y3695954D01*
X4259783Y3707180D01*
X4265930Y3719322D01*
X4270400Y3732225D01*
X4273143Y3745585D01*
X4274058Y3759200D01*
X4273143Y3772814D01*
X4270400Y3786174D01*
X4265930Y3799078D01*
X4259783Y3811219D01*
X4252061Y3822446D01*
X4242917Y3832606D01*
X4232503Y3841394D01*
X4221022Y3848709D01*
X4208627Y3854450D01*
X4195622Y3858514D01*
X4182160Y3860749D01*
X4168546Y3861206D01*
X4154982Y3859885D01*
X4141724Y3856685D01*
X4128973Y3851808D01*
X4117035Y3845255D01*
X4106062Y3837178D01*
X4096258Y3827678D01*
X4087774Y3816959D01*
X4083710Y3810101D01*
X4081424Y3807409D01*
X4078427Y3805682D01*
X4074972Y3805123D01*
X2550922Y3805072D01*
X2542184Y3803853D01*
X2534158Y3801160D01*
X2526792Y3797046D01*
X2519934Y3791305D01*
X2078583Y3349955D01*
X2075129Y3347720D01*
X2071065Y3347008D01*
X2067102Y3347974D01*
X2063800Y3350412D01*
X2061718Y3353968D01*
X2061260Y3358032D01*
X2062937Y3362960D01*
X2009139Y3362960D01*
X2009139Y3309213D01*
X2014372Y3310890D01*
X2018385Y3310331D01*
X2021890Y3308248D01*
X2024227Y3304946D01*
X2025142Y3300984D01*
X2024380Y3296970D01*
X2022144Y3293567D01*
X1750060Y3021482D01*
X1747012Y3019399D01*
X1743506Y3018485D01*
X1739849Y3018942D01*
X1737969Y3019501D01*
X1724660Y3021787D01*
X1711096Y3022244D01*
X1697634Y3020872D01*
X1684477Y3017723D01*
X1671878Y3012897D01*
X1659991Y3006394D01*
X1649120Y2998368D01*
X1639366Y2988919D01*
X1630984Y2978302D01*
X1624076Y2966669D01*
X1618843Y2954223D01*
X1615236Y2941167D01*
X1613458Y2927756D01*
X1613458Y2914243D01*
X1615236Y2900832D01*
X1618843Y2887776D01*
X1624076Y2875330D01*
X1630984Y2863697D01*
X1639366Y2853080D01*
X1649120Y2843631D01*
X1659991Y2835605D01*
X1671878Y2829102D01*
X1684477Y2824276D01*
X1697634Y2821127D01*
G37*
G36*
X2538882Y6844995D02*
G01*
X2590800Y6844995D01*
X2590800Y6897014D01*
X2580081Y6891121D01*
X2568448Y6882688D01*
X2557932Y6872782D01*
X2548737Y6861708D01*
X2541016Y6849516D01*
G37*
G36*
X2692400Y6691426D02*
G01*
X2703118Y6697319D01*
X2714752Y6705752D01*
X2725267Y6715658D01*
X2734462Y6726732D01*
X2742184Y6738924D01*
X2744317Y6743395D01*
X2692400Y6743395D01*
G37*
G36*
X4210456Y2829915D02*
G01*
X4210456Y2876956D01*
X4163415Y2876956D01*
X4164076Y2875330D01*
X4170984Y2863697D01*
X4179366Y2853080D01*
X4189120Y2843631D01*
X4199991Y2835605D01*
G37*
G36*
X4298543Y2830017D02*
G01*
X4303166Y2832201D01*
X4314596Y2839466D01*
X4324908Y2848203D01*
X4334002Y2858211D01*
X4341622Y2869387D01*
X4345482Y2876956D01*
X4298543Y2876956D01*
G37*
G36*
X4298543Y2965043D02*
G01*
X4345482Y2965043D01*
X4341622Y2972612D01*
X4334002Y2983788D01*
X4324908Y2993796D01*
X4314596Y3002534D01*
X4303166Y3009798D01*
X4298543Y3011982D01*
G37*
G36*
X4163415Y2965043D02*
G01*
X4210456Y2965043D01*
X4210456Y3012084D01*
X4199991Y3006394D01*
X4189120Y2998368D01*
X4179366Y2988919D01*
X4170984Y2978302D01*
X4164076Y2966669D01*
G37*
G36*
X2590800Y6691426D02*
G01*
X2590800Y6743395D01*
X2538882Y6743395D01*
X2541016Y6738924D01*
X2548737Y6726732D01*
X2557932Y6715658D01*
X2568448Y6705752D01*
X2580081Y6697319D01*
G37*
G36*
X1856790Y6515658D02*
G01*
X1909216Y6515658D01*
X1903323Y6526377D01*
X1894738Y6538163D01*
X1884781Y6548780D01*
X1873605Y6558076D01*
X1861312Y6565849D01*
X1856790Y6567982D01*
G37*
G36*
X1701698Y6515658D02*
G01*
X1754124Y6515658D01*
X1754124Y6567982D01*
X1749653Y6565849D01*
X1737360Y6558076D01*
X1726133Y6548780D01*
X1716176Y6538163D01*
X1707642Y6526377D01*
G37*
G36*
X1856790Y6360617D02*
G01*
X1861312Y6362750D01*
X1873605Y6370523D01*
X1884781Y6379819D01*
X1894738Y6390436D01*
X1903323Y6402222D01*
X1909216Y6412941D01*
X1856790Y6412941D01*
G37*
G36*
X5336946Y3238093D02*
G01*
X5350560Y3238550D01*
X5364022Y3240786D01*
X5377027Y3244850D01*
X5389422Y3250590D01*
X5400903Y3257905D01*
X5411317Y3266694D01*
X5420461Y3276854D01*
X5428183Y3288080D01*
X5434330Y3300222D01*
X5438800Y3313125D01*
X5441543Y3326485D01*
X5442458Y3340100D01*
X5441543Y3353714D01*
X5438800Y3367074D01*
X5434330Y3379978D01*
X5428183Y3392119D01*
X5420461Y3403346D01*
X5411317Y3413506D01*
X5400903Y3422294D01*
X5389422Y3429609D01*
X5377027Y3435350D01*
X5364022Y3439414D01*
X5350560Y3441649D01*
X5336946Y3442106D01*
X5323382Y3440785D01*
X5310124Y3437585D01*
X5297373Y3432708D01*
X5285435Y3426155D01*
X5274462Y3418078D01*
X5264658Y3408578D01*
X5256174Y3397859D01*
X5249214Y3386124D01*
X5243931Y3373577D01*
X5240324Y3360420D01*
X5238496Y3346907D01*
X5238496Y3333292D01*
X5240324Y3319779D01*
X5243931Y3306622D01*
X5249214Y3294075D01*
X5256174Y3282340D01*
X5264658Y3271621D01*
X5274462Y3262122D01*
X5285435Y3254044D01*
X5297373Y3247491D01*
X5310124Y3242614D01*
X5323382Y3239414D01*
G37*
G36*
X1754124Y6360617D02*
G01*
X1754124Y6412941D01*
X1701698Y6412941D01*
X1707642Y6402222D01*
X1716176Y6390436D01*
X1726133Y6379819D01*
X1737360Y6370523D01*
X1749653Y6362750D01*
G37*
G36*
X1902460Y3308959D02*
G01*
X1902460Y3362960D01*
X1848662Y3362960D01*
X1850186Y3359607D01*
X1857959Y3347059D01*
X1867204Y3335528D01*
X1877822Y3325266D01*
X1889607Y3316376D01*
G37*
G36*
X4076700Y6348425D02*
G01*
X4091228Y6349339D01*
X4105503Y6352032D01*
X4119372Y6356553D01*
X4132529Y6362750D01*
X4144822Y6370523D01*
X4156049Y6379819D01*
X4166006Y6390436D01*
X4174540Y6402222D01*
X4181551Y6414973D01*
X4186936Y6428486D01*
X4190542Y6442608D01*
X4192371Y6457035D01*
X4192371Y6471564D01*
X4190542Y6485991D01*
X4186936Y6500114D01*
X4181551Y6513626D01*
X4174540Y6526377D01*
X4166006Y6538163D01*
X4156049Y6548780D01*
X4144822Y6558076D01*
X4132529Y6565849D01*
X4119372Y6572046D01*
X4105503Y6576568D01*
X4091228Y6579260D01*
X4076700Y6580174D01*
X4062171Y6579260D01*
X4047896Y6576568D01*
X4034028Y6572046D01*
X4020870Y6565849D01*
X4008577Y6558076D01*
X3997350Y6548780D01*
X3992321Y6543395D01*
X3988968Y6541058D01*
X3984904Y6540195D01*
X3261207Y6540195D01*
X3257296Y6540957D01*
X3253994Y6543192D01*
X3134868Y6662318D01*
X3132683Y6665620D01*
X3131921Y6669481D01*
X3132683Y6673392D01*
X3134868Y6676694D01*
X3138170Y6678879D01*
X3142081Y6679641D01*
X3156813Y6679641D01*
X3171088Y6681470D01*
X3185058Y6685025D01*
X3198469Y6690359D01*
X3211118Y6697319D01*
X3222752Y6705752D01*
X3233267Y6715658D01*
X3242462Y6726732D01*
X3250184Y6738924D01*
X3256330Y6751980D01*
X3260801Y6765696D01*
X3263493Y6779818D01*
X3264408Y6794195D01*
X3263493Y6808622D01*
X3260801Y6822744D01*
X3256330Y6836460D01*
X3250184Y6849516D01*
X3242462Y6861708D01*
X3233267Y6872782D01*
X3228695Y6877100D01*
X3226358Y6880453D01*
X3225495Y6884466D01*
X3225495Y7207808D01*
X3226308Y7211669D01*
X3228492Y7214971D01*
X3883863Y7866786D01*
X3887470Y7869123D01*
X3891686Y7869732D01*
X3895851Y7868564D01*
X3899103Y7865770D01*
X3900932Y7861858D01*
X3900982Y7857591D01*
X3899306Y7849514D01*
X3898392Y7835900D01*
X3899306Y7822285D01*
X3902049Y7808925D01*
X3906520Y7796022D01*
X3912666Y7783880D01*
X3920388Y7772653D01*
X3929532Y7762494D01*
X3939946Y7753705D01*
X3951427Y7746390D01*
X3963822Y7740650D01*
X3976827Y7736586D01*
X3990289Y7734350D01*
X4003903Y7733893D01*
X4017467Y7735214D01*
X4030726Y7738414D01*
X4043476Y7743291D01*
X4055414Y7749844D01*
X4066387Y7757922D01*
X4076192Y7767421D01*
X4084675Y7778140D01*
X4091635Y7789875D01*
X4096918Y7802422D01*
X4100525Y7815580D01*
X4102354Y7829092D01*
X4102354Y7842707D01*
X4100525Y7856220D01*
X4096918Y7869377D01*
X4091635Y7881924D01*
X4084675Y7893659D01*
X4076192Y7904378D01*
X4066387Y7913878D01*
X4055414Y7921955D01*
X4043476Y7928508D01*
X4030726Y7933385D01*
X4017467Y7936585D01*
X4003903Y7937906D01*
X3990289Y7937449D01*
X3979164Y7935620D01*
X3974947Y7935772D01*
X3971137Y7937703D01*
X3968445Y7940954D01*
X3967327Y7945069D01*
X3967987Y7949285D01*
X3970324Y7952841D01*
X4003040Y7985353D01*
X4006138Y7987487D01*
X4024172Y7990586D01*
X4037177Y7994650D01*
X4049572Y8000390D01*
X4061053Y8007705D01*
X4071467Y8016494D01*
X4080611Y8026653D01*
X4088333Y8037880D01*
X4094479Y8050022D01*
X4098950Y8062925D01*
X4101693Y8076285D01*
X4102608Y8089900D01*
X4101693Y8103514D01*
X4098950Y8116874D01*
X4094479Y8129778D01*
X4088333Y8141919D01*
X4080611Y8153146D01*
X4071467Y8163306D01*
X4061053Y8172094D01*
X4049572Y8179409D01*
X4037177Y8185150D01*
X4024172Y8189214D01*
X4010710Y8191449D01*
X3997096Y8191906D01*
X3983532Y8190585D01*
X3970274Y8187385D01*
X3957523Y8182508D01*
X3945585Y8175955D01*
X3934612Y8167878D01*
X3924808Y8158378D01*
X3916324Y8147659D01*
X3909364Y8135924D01*
X3904081Y8123377D01*
X3900474Y8110220D01*
X3898950Y8098891D01*
X3897985Y8095742D01*
X3896004Y8093049D01*
X3094075Y7295337D01*
X3088538Y7288682D01*
X3086963Y7286498D01*
X3082493Y7279081D01*
X3081274Y7276642D01*
X3077972Y7268667D01*
X3077108Y7266127D01*
X3075025Y7257694D01*
X3074568Y7255052D01*
X3073755Y7246416D01*
X3073704Y6884466D01*
X3072841Y6880453D01*
X3070504Y6877100D01*
X3065932Y6872782D01*
X3056737Y6861708D01*
X3049016Y6849516D01*
X3042869Y6836460D01*
X3038398Y6822744D01*
X3035706Y6808622D01*
X3034792Y6794195D01*
X3035249Y6787083D01*
X3034690Y6783070D01*
X3032607Y6779564D01*
X3029305Y6777177D01*
X3025343Y6776262D01*
X3021330Y6777024D01*
X3017926Y6779259D01*
X3013202Y6783984D01*
X3010865Y6787591D01*
X3010255Y6791807D01*
X3010408Y6794195D01*
X3009493Y6808622D01*
X3006801Y6822744D01*
X3002330Y6836460D01*
X2996184Y6849516D01*
X2988462Y6861708D01*
X2979267Y6872782D01*
X2968752Y6882688D01*
X2957118Y6891121D01*
X2944469Y6898081D01*
X2931058Y6903415D01*
X2917088Y6906971D01*
X2902813Y6908800D01*
X2892602Y6908800D01*
X2888691Y6909562D01*
X2885389Y6911746D01*
X1907032Y7890103D01*
X1900174Y7895742D01*
X1890522Y7901787D01*
X1888337Y7902905D01*
X1877822Y7907070D01*
X1869186Y7909204D01*
X1866747Y7909610D01*
X1857908Y7910423D01*
X1216710Y7910474D01*
X1213104Y7911185D01*
X1209903Y7913116D01*
X1208176Y7914690D01*
X1196898Y7922412D01*
X1184757Y7928559D01*
X1171854Y7933029D01*
X1158494Y7935772D01*
X1144879Y7936687D01*
X1131316Y7935772D01*
X1117904Y7933029D01*
X1105052Y7928559D01*
X1092860Y7922412D01*
X1081633Y7914690D01*
X1071524Y7905546D01*
X1062736Y7895132D01*
X1055370Y7883652D01*
X1049629Y7871256D01*
X1045616Y7858252D01*
X1043330Y7844790D01*
X1042873Y7831175D01*
X1044244Y7817612D01*
X1047394Y7804353D01*
X1052322Y7791602D01*
X1058875Y7779664D01*
X1066952Y7768691D01*
X1076401Y7758887D01*
X1087120Y7750403D01*
X1098854Y7743444D01*
X1111402Y7738160D01*
X1124559Y7734553D01*
X1138072Y7732725D01*
X1151737Y7732725D01*
X1165250Y7734553D01*
X1178407Y7738160D01*
X1190955Y7743444D01*
X1202690Y7750403D01*
X1210360Y7756499D01*
X1213307Y7758125D01*
X1216660Y7758684D01*
X1819605Y7758684D01*
X1823466Y7757871D01*
X1826768Y7755686D01*
X2689402Y6893052D01*
X2691638Y6889750D01*
X2692400Y6885838D01*
X2692400Y6844995D01*
X2733243Y6844995D01*
X2737154Y6844233D01*
X2740406Y6842048D01*
X2777998Y6804456D01*
X2780334Y6800850D01*
X2780944Y6796633D01*
X2780792Y6794195D01*
X2781706Y6779818D01*
X2784398Y6765696D01*
X2788869Y6751980D01*
X2795016Y6738924D01*
X2802737Y6726732D01*
X2811932Y6715658D01*
X2822448Y6705752D01*
X2834081Y6697319D01*
X2846730Y6690359D01*
X2860141Y6685025D01*
X2874111Y6681470D01*
X2888386Y6679641D01*
X2898648Y6679641D01*
X2902508Y6678879D01*
X2905810Y6676694D01*
X3173780Y6408775D01*
X3182620Y6401714D01*
X3190240Y6397091D01*
X3192424Y6395974D01*
X3200654Y6392570D01*
X3202990Y6391808D01*
X3211626Y6389674D01*
X3214065Y6389268D01*
X3222904Y6388455D01*
X3984904Y6388404D01*
X3988968Y6387541D01*
X3992321Y6385204D01*
X3997350Y6379819D01*
X4008577Y6370523D01*
X4020870Y6362750D01*
X4034028Y6356553D01*
X4047896Y6352032D01*
X4062171Y6349339D01*
G37*
G36*
X2703982Y6254902D02*
G01*
X2751328Y6254902D01*
X2750667Y6256477D01*
X2743708Y6268212D01*
X2735275Y6278930D01*
X2725470Y6288430D01*
X2714498Y6296507D01*
X2703982Y6302248D01*
G37*
G36*
X2009139Y3469640D02*
G01*
X2062937Y3469640D01*
X2057704Y3479393D01*
X2049170Y3491433D01*
X2039264Y3502355D01*
X2028037Y3511956D01*
X2015743Y3520084D01*
X2009139Y3523386D01*
G37*
G36*
X1848662Y3469640D02*
G01*
X1902460Y3469640D01*
X1902460Y3523640D01*
X1889607Y3516223D01*
X1877822Y3507333D01*
X1867204Y3497072D01*
X1857959Y3485540D01*
X1850186Y3472992D01*
G37*
G36*
X2567889Y6254902D02*
G01*
X2615082Y6254902D01*
X2615082Y6302095D01*
X2610459Y6299962D01*
X2598978Y6292646D01*
X2588564Y6283858D01*
X2579420Y6273698D01*
X2571699Y6262471D01*
G37*
G36*
X5336946Y3657193D02*
G01*
X5350560Y3657650D01*
X5364022Y3659886D01*
X5377027Y3663950D01*
X5389422Y3669690D01*
X5400903Y3677005D01*
X5411317Y3685794D01*
X5420461Y3695954D01*
X5428183Y3707180D01*
X5434330Y3719322D01*
X5438800Y3732225D01*
X5441543Y3745585D01*
X5442458Y3759200D01*
X5441543Y3772814D01*
X5438800Y3786174D01*
X5434330Y3799078D01*
X5428183Y3811219D01*
X5420461Y3822446D01*
X5411317Y3832606D01*
X5400903Y3841394D01*
X5389422Y3848709D01*
X5377027Y3854450D01*
X5364022Y3858514D01*
X5350560Y3860749D01*
X5336946Y3861206D01*
X5323382Y3859885D01*
X5310124Y3856685D01*
X5297373Y3851808D01*
X5285435Y3845255D01*
X5274462Y3837178D01*
X5264658Y3827678D01*
X5256174Y3816959D01*
X5249214Y3805224D01*
X5243931Y3792677D01*
X5240324Y3779520D01*
X5238496Y3766007D01*
X5238496Y3752392D01*
X5240324Y3738879D01*
X5243931Y3725722D01*
X5249214Y3713175D01*
X5256174Y3701440D01*
X5264658Y3690721D01*
X5274462Y3681222D01*
X5285435Y3673144D01*
X5297373Y3666591D01*
X5310124Y3661714D01*
X5323382Y3658514D01*
G37*
G36*
X3130854Y6254597D02*
G01*
X3178149Y6254597D01*
X3178149Y6301943D01*
X3167684Y6296202D01*
X3156712Y6288125D01*
X3146907Y6278626D01*
X3138474Y6267907D01*
X3131515Y6256172D01*
G37*
G36*
X1191768Y3798366D02*
G01*
X1234846Y3798366D01*
X1241145Y3799128D01*
X1246632Y3801008D01*
X1251508Y3804107D01*
X1255623Y3808171D01*
X1258671Y3813098D01*
X1260602Y3818534D01*
X1261313Y3824884D01*
X1261313Y3867962D01*
X1191768Y3867962D01*
G37*
G36*
X3267049Y6254597D02*
G01*
X3314293Y6254597D01*
X3310432Y6262166D01*
X3302711Y6273393D01*
X3293567Y6283553D01*
X3283153Y6292342D01*
X3271672Y6299657D01*
X3267049Y6301790D01*
G37*
G36*
X2615082Y6118809D02*
G01*
X2615082Y6166002D01*
X2567889Y6166002D01*
X2571699Y6158433D01*
X2579420Y6147206D01*
X2588564Y6137097D01*
X2598978Y6128258D01*
X2610459Y6120942D01*
G37*
G36*
X2703982Y6118656D02*
G01*
X2714498Y6124397D01*
X2725470Y6132474D01*
X2735275Y6141974D01*
X2743708Y6152692D01*
X2750667Y6164427D01*
X2751328Y6166002D01*
X2703982Y6166002D01*
G37*
G36*
X6879996Y3974693D02*
G01*
X6893610Y3975150D01*
X6907072Y3977386D01*
X6920077Y3981450D01*
X6932472Y3987190D01*
X6943953Y3994505D01*
X6954367Y4003294D01*
X6963511Y4013454D01*
X6971487Y4025188D01*
X6973773Y4028186D01*
X6976922Y4030116D01*
X6980580Y4030776D01*
X7314336Y4030776D01*
X7317740Y4030218D01*
X7320737Y4028490D01*
X7323023Y4025900D01*
X7325766Y4021429D01*
X7334046Y4011269D01*
X7343597Y4002328D01*
X7354265Y3994759D01*
X7365898Y3988765D01*
X7378242Y3984396D01*
X7391044Y3981704D01*
X7404100Y3980840D01*
X7417155Y3981704D01*
X7429957Y3984396D01*
X7442301Y3988765D01*
X7453934Y3994759D01*
X7464602Y4002328D01*
X7474153Y4011269D01*
X7482433Y4021429D01*
X7489240Y4032605D01*
X7494473Y4044594D01*
X7497978Y4057192D01*
X7499756Y4070146D01*
X7499756Y4083253D01*
X7497978Y4096207D01*
X7494473Y4108805D01*
X7489240Y4120794D01*
X7482433Y4131970D01*
X7474153Y4142130D01*
X7464602Y4151071D01*
X7453934Y4158640D01*
X7442301Y4164634D01*
X7429957Y4169003D01*
X7417155Y4171696D01*
X7404100Y4172559D01*
X7391044Y4171696D01*
X7378242Y4169003D01*
X7365898Y4164634D01*
X7354265Y4158640D01*
X7343597Y4151071D01*
X7334046Y4142130D01*
X7325766Y4131970D01*
X7323023Y4127500D01*
X7320737Y4124909D01*
X7317740Y4123182D01*
X7314336Y4122623D01*
X6980580Y4122623D01*
X6976922Y4123283D01*
X6973773Y4125214D01*
X6963511Y4139946D01*
X6954367Y4150106D01*
X6943953Y4158894D01*
X6932472Y4166209D01*
X6920077Y4171950D01*
X6907072Y4176014D01*
X6893610Y4178249D01*
X6879996Y4178706D01*
X6866432Y4177385D01*
X6853174Y4174185D01*
X6840423Y4169308D01*
X6828485Y4162755D01*
X6817512Y4154678D01*
X6807708Y4145178D01*
X6799224Y4134459D01*
X6795160Y4127601D01*
X6792874Y4124909D01*
X6789877Y4123182D01*
X6786422Y4122623D01*
X6300216Y4122623D01*
X6296304Y4123385D01*
X6293002Y4125569D01*
X5816193Y4602378D01*
X5814263Y4605070D01*
X5813298Y4608271D01*
X5813450Y4611573D01*
X5816193Y4625086D01*
X5817108Y4638649D01*
X5816193Y4652264D01*
X5813450Y4665624D01*
X5808980Y4678527D01*
X5802833Y4690719D01*
X5795111Y4701946D01*
X5785967Y4712055D01*
X5775553Y4720844D01*
X5764072Y4728210D01*
X5751677Y4733950D01*
X5738672Y4737963D01*
X5725210Y4740249D01*
X5711596Y4740706D01*
X5698032Y4739335D01*
X5684774Y4736185D01*
X5672023Y4731258D01*
X5660085Y4724704D01*
X5649112Y4716627D01*
X5639308Y4707128D01*
X5630824Y4696460D01*
X5623864Y4684725D01*
X5618581Y4672177D01*
X5614974Y4659020D01*
X5613146Y4645507D01*
X5613146Y4631842D01*
X5614974Y4618329D01*
X5618581Y4605172D01*
X5623864Y4592624D01*
X5630824Y4580890D01*
X5639308Y4570222D01*
X5649112Y4560722D01*
X5660085Y4552645D01*
X5672023Y4546092D01*
X5684774Y4541164D01*
X5698032Y4538014D01*
X5711596Y4536643D01*
X5725210Y4537100D01*
X5738672Y4539386D01*
X5741009Y4540097D01*
X5744616Y4540504D01*
X5748172Y4539640D01*
X5751169Y4537557D01*
X6245809Y4043019D01*
X6252819Y4037685D01*
X6260388Y4033926D01*
X6268567Y4031589D01*
X6277457Y4030776D01*
X6786422Y4030776D01*
X6789877Y4030167D01*
X6792874Y4028440D01*
X6795160Y4025798D01*
X6799224Y4018940D01*
X6807708Y4008221D01*
X6817512Y3998722D01*
X6828485Y3990644D01*
X6840423Y3984091D01*
X6853174Y3979214D01*
X6866432Y3976014D01*
G37*
G36*
X3178149Y6118352D02*
G01*
X3178149Y6165697D01*
X3130854Y6165697D01*
X3131515Y6164122D01*
X3138474Y6152388D01*
X3146907Y6141669D01*
X3156712Y6132169D01*
X3167684Y6124092D01*
G37*
G36*
X4128058Y6007658D02*
G01*
X4180433Y6007658D01*
X4174540Y6018377D01*
X4166006Y6030163D01*
X4156049Y6040780D01*
X4144822Y6050076D01*
X4132529Y6057849D01*
X4128058Y6059982D01*
G37*
G36*
X3972966Y6007658D02*
G01*
X4025341Y6007658D01*
X4025341Y6059982D01*
X4020870Y6057849D01*
X4008577Y6050076D01*
X3997350Y6040780D01*
X3987393Y6030163D01*
X3978859Y6018377D01*
G37*
G36*
X1219758Y6007658D02*
G01*
X1272133Y6007658D01*
X1266240Y6018377D01*
X1257706Y6030163D01*
X1247749Y6040780D01*
X1236522Y6050076D01*
X1224229Y6057849D01*
X1219758Y6059982D01*
G37*
G36*
X1064666Y6007658D02*
G01*
X1117041Y6007658D01*
X1117041Y6059982D01*
X1112570Y6057849D01*
X1100277Y6050076D01*
X1089050Y6040780D01*
X1079093Y6030163D01*
X1070559Y6018377D01*
G37*
G36*
X4025341Y5852617D02*
G01*
X4025341Y5904941D01*
X3972966Y5904941D01*
X3978859Y5894222D01*
X3987393Y5882436D01*
X3997350Y5871819D01*
X4008577Y5862523D01*
X4020870Y5854750D01*
G37*
G36*
X7607300Y4133240D02*
G01*
X7620355Y4134104D01*
X7633157Y4136796D01*
X7645501Y4141165D01*
X7657134Y4147159D01*
X7667802Y4154728D01*
X7677353Y4163669D01*
X7685633Y4173829D01*
X7692440Y4185005D01*
X7697673Y4196994D01*
X7701178Y4209592D01*
X7702956Y4222546D01*
X7702956Y4235653D01*
X7701178Y4248607D01*
X7697673Y4261205D01*
X7692440Y4273194D01*
X7685633Y4284370D01*
X7677353Y4294530D01*
X7667802Y4303471D01*
X7657134Y4311040D01*
X7645501Y4317034D01*
X7633157Y4321403D01*
X7620355Y4324096D01*
X7607300Y4324959D01*
X7594244Y4324096D01*
X7581442Y4321403D01*
X7569098Y4317034D01*
X7558531Y4311548D01*
X7554417Y4310430D01*
X7550200Y4311091D01*
X7546644Y4313377D01*
X7257643Y4602378D01*
X7255713Y4605070D01*
X7254748Y4608271D01*
X7254900Y4611573D01*
X7257643Y4625086D01*
X7258558Y4638649D01*
X7257643Y4652264D01*
X7254900Y4665624D01*
X7250430Y4678527D01*
X7244283Y4690719D01*
X7236561Y4701946D01*
X7227417Y4712055D01*
X7217003Y4720844D01*
X7205522Y4728210D01*
X7193127Y4733950D01*
X7180122Y4737963D01*
X7166660Y4740249D01*
X7153046Y4740706D01*
X7139482Y4739335D01*
X7126224Y4736185D01*
X7113473Y4731258D01*
X7101535Y4724704D01*
X7090562Y4716627D01*
X7080758Y4707128D01*
X7072274Y4696460D01*
X7068210Y4689551D01*
X7065924Y4686909D01*
X7062927Y4685182D01*
X7059472Y4684572D01*
X6980580Y4684572D01*
X6976922Y4685284D01*
X6973773Y4687214D01*
X6963511Y4701946D01*
X6954367Y4712055D01*
X6943953Y4720844D01*
X6932472Y4728210D01*
X6920077Y4733950D01*
X6907072Y4737963D01*
X6893610Y4740249D01*
X6879996Y4740706D01*
X6866432Y4739335D01*
X6853174Y4736185D01*
X6840423Y4731258D01*
X6828485Y4724704D01*
X6817512Y4716627D01*
X6807708Y4707128D01*
X6799224Y4696460D01*
X6792264Y4684725D01*
X6786981Y4672177D01*
X6783374Y4659020D01*
X6781546Y4645507D01*
X6781546Y4631842D01*
X6783374Y4618329D01*
X6786981Y4605172D01*
X6792264Y4592624D01*
X6799224Y4580890D01*
X6807708Y4570222D01*
X6817512Y4560722D01*
X6828485Y4552645D01*
X6840423Y4546092D01*
X6853174Y4541164D01*
X6866432Y4538014D01*
X6879996Y4536643D01*
X6893610Y4537100D01*
X6907072Y4539386D01*
X6920077Y4543399D01*
X6932472Y4549140D01*
X6943953Y4556506D01*
X6954367Y4565294D01*
X6963511Y4575403D01*
X6971487Y4587189D01*
X6973773Y4590135D01*
X6976922Y4592066D01*
X6980580Y4592777D01*
X7059472Y4592777D01*
X7062927Y4592167D01*
X7065924Y4590440D01*
X7068210Y4587798D01*
X7072274Y4580890D01*
X7080758Y4570222D01*
X7090562Y4560722D01*
X7101535Y4552645D01*
X7113473Y4546092D01*
X7126224Y4541164D01*
X7139482Y4538014D01*
X7153046Y4536643D01*
X7166660Y4537100D01*
X7180122Y4539386D01*
X7182459Y4540097D01*
X7186066Y4540504D01*
X7189622Y4539640D01*
X7192619Y4537557D01*
X7509865Y4220362D01*
X7511796Y4217670D01*
X7512761Y4214520D01*
X7513421Y4209592D01*
X7516977Y4196994D01*
X7522159Y4185005D01*
X7528966Y4173829D01*
X7537246Y4163669D01*
X7546797Y4154728D01*
X7557465Y4147159D01*
X7569098Y4141165D01*
X7581442Y4136796D01*
X7594244Y4134104D01*
G37*
G36*
X4128058Y5852617D02*
G01*
X4132529Y5854750D01*
X4144822Y5862523D01*
X4156049Y5871819D01*
X4166006Y5882436D01*
X4174540Y5894222D01*
X4180433Y5904941D01*
X4128058Y5904941D01*
G37*
G36*
X1117041Y5852617D02*
G01*
X1117041Y5904941D01*
X1064666Y5904941D01*
X1070559Y5894222D01*
X1079093Y5882436D01*
X1089050Y5871819D01*
X1100277Y5862523D01*
X1112570Y5854750D01*
G37*
G36*
X4168546Y4536643D02*
G01*
X4182160Y4537100D01*
X4195622Y4539386D01*
X4208627Y4543399D01*
X4221022Y4549140D01*
X4232503Y4556506D01*
X4242917Y4565294D01*
X4252061Y4575403D01*
X4259783Y4586630D01*
X4265930Y4598822D01*
X4270400Y4611725D01*
X4273143Y4625086D01*
X4274058Y4638649D01*
X4273143Y4652264D01*
X4270400Y4665624D01*
X4265930Y4678527D01*
X4259783Y4690719D01*
X4252061Y4701946D01*
X4242917Y4712055D01*
X4232503Y4720844D01*
X4221022Y4728210D01*
X4208627Y4733950D01*
X4195622Y4737963D01*
X4182160Y4740249D01*
X4168546Y4740706D01*
X4154982Y4739335D01*
X4141724Y4736185D01*
X4128973Y4731258D01*
X4117035Y4724704D01*
X4106062Y4716627D01*
X4096258Y4707128D01*
X4087774Y4696460D01*
X4080814Y4684725D01*
X4075531Y4672177D01*
X4071924Y4659020D01*
X4070096Y4645507D01*
X4070096Y4631842D01*
X4071924Y4618329D01*
X4075531Y4605172D01*
X4080814Y4592624D01*
X4087774Y4580890D01*
X4096258Y4570222D01*
X4106062Y4560722D01*
X4117035Y4552645D01*
X4128973Y4546092D01*
X4141724Y4541164D01*
X4154982Y4538014D01*
G37*
G36*
X1219758Y5852617D02*
G01*
X1224229Y5854750D01*
X1236522Y5862523D01*
X1247749Y5871819D01*
X1257706Y5882436D01*
X1266240Y5894222D01*
X1272133Y5904941D01*
X1219758Y5904941D01*
G37*
G36*
X7607300Y5568340D02*
G01*
X7620355Y5569204D01*
X7633157Y5571896D01*
X7645501Y5576265D01*
X7657134Y5582259D01*
X7667802Y5589828D01*
X7677353Y5598769D01*
X7685633Y5608929D01*
X7692440Y5620105D01*
X7697673Y5632094D01*
X7701178Y5644692D01*
X7702956Y5657646D01*
X7702956Y5670753D01*
X7701178Y5683707D01*
X7697673Y5696305D01*
X7692440Y5708294D01*
X7685633Y5719470D01*
X7677353Y5729630D01*
X7667802Y5738571D01*
X7657134Y5746140D01*
X7645501Y5752134D01*
X7633157Y5756503D01*
X7620355Y5759196D01*
X7607300Y5760059D01*
X7594244Y5759196D01*
X7581442Y5756503D01*
X7569098Y5752134D01*
X7556500Y5745530D01*
X7552385Y5744413D01*
X7548168Y5745073D01*
X7544612Y5747359D01*
X7257643Y6034328D01*
X7255713Y6037021D01*
X7254748Y6040221D01*
X7254900Y6043523D01*
X7257643Y6056985D01*
X7258558Y6070600D01*
X7257643Y6084214D01*
X7254900Y6097574D01*
X7250430Y6110478D01*
X7244283Y6122619D01*
X7236561Y6133846D01*
X7227417Y6144006D01*
X7217003Y6152794D01*
X7205522Y6160109D01*
X7193127Y6165850D01*
X7180122Y6169914D01*
X7166660Y6172149D01*
X7153046Y6172606D01*
X7139482Y6171285D01*
X7126224Y6168085D01*
X7113473Y6163208D01*
X7101535Y6156655D01*
X7090562Y6148578D01*
X7080758Y6139078D01*
X7072274Y6128359D01*
X7068210Y6121501D01*
X7065924Y6118809D01*
X7062927Y6117082D01*
X7059472Y6116523D01*
X6980580Y6116523D01*
X6976922Y6117183D01*
X6973773Y6119114D01*
X6963511Y6133846D01*
X6954367Y6144006D01*
X6943953Y6152794D01*
X6932472Y6160109D01*
X6920077Y6165850D01*
X6907072Y6169914D01*
X6893610Y6172149D01*
X6879996Y6172606D01*
X6866432Y6171285D01*
X6853174Y6168085D01*
X6840423Y6163208D01*
X6828485Y6156655D01*
X6817512Y6148578D01*
X6807708Y6139078D01*
X6799224Y6128359D01*
X6792264Y6116624D01*
X6786981Y6104077D01*
X6783374Y6090920D01*
X6781546Y6077407D01*
X6781546Y6063792D01*
X6783374Y6050280D01*
X6786981Y6037122D01*
X6792264Y6024575D01*
X6799224Y6012840D01*
X6807708Y6002121D01*
X6817512Y5992622D01*
X6828485Y5984544D01*
X6840423Y5977991D01*
X6853174Y5973114D01*
X6866432Y5969914D01*
X6879996Y5968593D01*
X6893610Y5969050D01*
X6907072Y5971286D01*
X6920077Y5975350D01*
X6932472Y5981090D01*
X6943953Y5988405D01*
X6954367Y5997194D01*
X6963511Y6007354D01*
X6971487Y6019088D01*
X6973773Y6022086D01*
X6976922Y6024016D01*
X6980580Y6024676D01*
X7059472Y6024676D01*
X7062927Y6024067D01*
X7065924Y6022340D01*
X7068210Y6019698D01*
X7072274Y6012840D01*
X7080758Y6002121D01*
X7090562Y5992622D01*
X7101535Y5984544D01*
X7113473Y5977991D01*
X7126224Y5973114D01*
X7139482Y5969914D01*
X7153046Y5968593D01*
X7166660Y5969050D01*
X7180122Y5971286D01*
X7182459Y5971997D01*
X7186066Y5972454D01*
X7189622Y5971590D01*
X7192619Y5969508D01*
X7510373Y5651754D01*
X7512303Y5649112D01*
X7516977Y5632094D01*
X7522159Y5620105D01*
X7528966Y5608929D01*
X7537246Y5598769D01*
X7546797Y5589828D01*
X7557465Y5582259D01*
X7569098Y5576265D01*
X7581442Y5571896D01*
X7594244Y5569204D01*
G37*
G36*
X6879996Y5409793D02*
G01*
X6893610Y5410250D01*
X6907072Y5412486D01*
X6920077Y5416550D01*
X6932472Y5422290D01*
X6943953Y5429605D01*
X6954367Y5438394D01*
X6963511Y5448554D01*
X6971487Y5460288D01*
X6973773Y5463286D01*
X6976922Y5465216D01*
X6980580Y5465876D01*
X7314336Y5465876D01*
X7317740Y5465318D01*
X7320737Y5463590D01*
X7323023Y5461000D01*
X7325766Y5456529D01*
X7334046Y5446369D01*
X7343597Y5437428D01*
X7354265Y5429859D01*
X7365898Y5423865D01*
X7378242Y5419496D01*
X7391044Y5416804D01*
X7404100Y5415940D01*
X7417155Y5416804D01*
X7429957Y5419496D01*
X7442301Y5423865D01*
X7453934Y5429859D01*
X7464602Y5437428D01*
X7474153Y5446369D01*
X7482433Y5456529D01*
X7489240Y5467705D01*
X7494473Y5479694D01*
X7497978Y5492292D01*
X7499756Y5505246D01*
X7499756Y5518353D01*
X7497978Y5531307D01*
X7494473Y5543905D01*
X7489240Y5555894D01*
X7482433Y5567070D01*
X7474153Y5577230D01*
X7464602Y5586171D01*
X7453934Y5593740D01*
X7442301Y5599734D01*
X7429957Y5604103D01*
X7417155Y5606796D01*
X7404100Y5607659D01*
X7391044Y5606796D01*
X7378242Y5604103D01*
X7365898Y5599734D01*
X7354265Y5593740D01*
X7343597Y5586171D01*
X7334046Y5577230D01*
X7325766Y5567070D01*
X7323023Y5562600D01*
X7320737Y5560009D01*
X7317740Y5558282D01*
X7314336Y5557723D01*
X6980580Y5557723D01*
X6976922Y5558383D01*
X6973773Y5560314D01*
X6963511Y5575046D01*
X6954367Y5585206D01*
X6943953Y5593994D01*
X6932472Y5601309D01*
X6920077Y5607050D01*
X6907072Y5611114D01*
X6893610Y5613349D01*
X6879996Y5613806D01*
X6866432Y5612485D01*
X6856780Y5610148D01*
X6853377Y5609945D01*
X6850075Y5610860D01*
X6847230Y5612892D01*
X6355791Y6104280D01*
X6348730Y6109614D01*
X6341160Y6113373D01*
X6333032Y6115659D01*
X6324142Y6116523D01*
X5812180Y6116523D01*
X5808522Y6117183D01*
X5805373Y6119114D01*
X5795111Y6133846D01*
X5785967Y6144006D01*
X5775553Y6152794D01*
X5764072Y6160109D01*
X5751677Y6165850D01*
X5738672Y6169914D01*
X5725210Y6172149D01*
X5711596Y6172606D01*
X5698032Y6171285D01*
X5684774Y6168085D01*
X5672023Y6163208D01*
X5660085Y6156655D01*
X5649112Y6148578D01*
X5639308Y6139078D01*
X5630824Y6128359D01*
X5623864Y6116624D01*
X5618581Y6104077D01*
X5614974Y6090920D01*
X5613146Y6077407D01*
X5613146Y6063792D01*
X5614974Y6050280D01*
X5618581Y6037122D01*
X5623864Y6024575D01*
X5630824Y6012840D01*
X5639308Y6002121D01*
X5649112Y5992622D01*
X5660085Y5984544D01*
X5672023Y5977991D01*
X5684774Y5973114D01*
X5698032Y5969914D01*
X5711596Y5968593D01*
X5725210Y5969050D01*
X5738672Y5971286D01*
X5751677Y5975350D01*
X5764072Y5981090D01*
X5775553Y5988405D01*
X5785967Y5997194D01*
X5795111Y6007354D01*
X5803087Y6019088D01*
X5805373Y6022086D01*
X5808522Y6024016D01*
X5812180Y6024676D01*
X6301384Y6024676D01*
X6305245Y6023914D01*
X6308547Y6021730D01*
X6782358Y5547918D01*
X6784390Y5545023D01*
X6785305Y5541568D01*
X6785000Y5538063D01*
X6783374Y5532120D01*
X6781546Y5518607D01*
X6781546Y5504992D01*
X6783374Y5491480D01*
X6786981Y5478322D01*
X6792264Y5465775D01*
X6799224Y5454040D01*
X6807708Y5443321D01*
X6817512Y5433822D01*
X6828485Y5425744D01*
X6840423Y5419191D01*
X6853174Y5414314D01*
X6866432Y5411114D01*
G37*
G36*
X4168546Y5409793D02*
G01*
X4182160Y5410250D01*
X4195622Y5412486D01*
X4208627Y5416550D01*
X4221022Y5422290D01*
X4232503Y5429605D01*
X4242917Y5438394D01*
X4252061Y5448554D01*
X4259783Y5459780D01*
X4265930Y5471922D01*
X4270400Y5484825D01*
X4273143Y5498185D01*
X4273448Y5503062D01*
X4274312Y5506567D01*
X4276344Y5509514D01*
X4475022Y5710885D01*
X4482287Y5720029D01*
X4487976Y5729833D01*
X4492091Y5740400D01*
X4494631Y5751423D01*
X4495495Y5763107D01*
X4495444Y7902041D01*
X4494631Y7910880D01*
X4494225Y7913319D01*
X4492091Y7921955D01*
X4491329Y7924292D01*
X4487926Y7932521D01*
X4486808Y7934706D01*
X4482185Y7942325D01*
X4475124Y7951165D01*
X4358589Y8067751D01*
X4356252Y8071358D01*
X4355642Y8075625D01*
X4356608Y8089900D01*
X4355693Y8103514D01*
X4352950Y8116874D01*
X4348480Y8129778D01*
X4342333Y8141919D01*
X4334611Y8153146D01*
X4325467Y8163306D01*
X4315053Y8172094D01*
X4303572Y8179409D01*
X4291177Y8185150D01*
X4278172Y8189214D01*
X4264710Y8191449D01*
X4251096Y8191906D01*
X4237532Y8190585D01*
X4224274Y8187385D01*
X4211523Y8182508D01*
X4199585Y8175955D01*
X4188612Y8167878D01*
X4178808Y8158378D01*
X4170324Y8147659D01*
X4163364Y8135924D01*
X4158081Y8123377D01*
X4154474Y8110220D01*
X4152646Y8096707D01*
X4152646Y8083092D01*
X4154474Y8069580D01*
X4158081Y8056422D01*
X4163364Y8043875D01*
X4170324Y8032140D01*
X4178808Y8021421D01*
X4188612Y8011922D01*
X4199585Y8003844D01*
X4211523Y7997291D01*
X4214114Y7996326D01*
X4217619Y7993989D01*
X4256633Y7954975D01*
X4258818Y7951774D01*
X4259630Y7947914D01*
X4258919Y7944103D01*
X4256836Y7940802D01*
X4253636Y7938516D01*
X4249826Y7937652D01*
X4244289Y7937449D01*
X4230827Y7935214D01*
X4217822Y7931150D01*
X4205427Y7925409D01*
X4193946Y7918094D01*
X4183532Y7909306D01*
X4174388Y7899146D01*
X4166666Y7887919D01*
X4160520Y7875778D01*
X4156049Y7862874D01*
X4153306Y7849514D01*
X4152392Y7835900D01*
X4153306Y7822285D01*
X4156049Y7808925D01*
X4160520Y7796022D01*
X4166666Y7783880D01*
X4174388Y7772653D01*
X4183532Y7762494D01*
X4193946Y7753705D01*
X4205427Y7746390D01*
X4217822Y7740650D01*
X4230827Y7736586D01*
X4244289Y7734350D01*
X4257903Y7733893D01*
X4271467Y7735214D01*
X4284726Y7738414D01*
X4297476Y7743291D01*
X4309414Y7749844D01*
X4320387Y7757922D01*
X4326483Y7763814D01*
X4329785Y7765948D01*
X4333646Y7766659D01*
X4337507Y7765846D01*
X4340758Y7763662D01*
X4342942Y7760360D01*
X4343704Y7756499D01*
X4343704Y5798058D01*
X4342942Y5794197D01*
X4340758Y5790946D01*
X4168292Y5616143D01*
X4165447Y5614111D01*
X4162044Y5613196D01*
X4154982Y5612485D01*
X4141724Y5609285D01*
X4128973Y5604408D01*
X4117035Y5597855D01*
X4106062Y5589778D01*
X4096258Y5580278D01*
X4087774Y5569559D01*
X4080814Y5557824D01*
X4075531Y5545277D01*
X4071924Y5532120D01*
X4070096Y5518607D01*
X4070096Y5504992D01*
X4071924Y5491480D01*
X4075531Y5478322D01*
X4080814Y5465775D01*
X4087774Y5454040D01*
X4096258Y5443321D01*
X4106062Y5433822D01*
X4117035Y5425744D01*
X4128973Y5419191D01*
X4141724Y5414314D01*
X4154982Y5411114D01*
G37*
G36*
X5711596Y5409793D02*
G01*
X5725210Y5410250D01*
X5738672Y5412486D01*
X5751677Y5416550D01*
X5764072Y5422290D01*
X5775553Y5429605D01*
X5785967Y5438394D01*
X5795111Y5448554D01*
X5802833Y5459780D01*
X5808980Y5471922D01*
X5813450Y5484825D01*
X5816193Y5498185D01*
X5817108Y5511800D01*
X5816193Y5525414D01*
X5813450Y5538774D01*
X5808980Y5551678D01*
X5802833Y5563819D01*
X5795111Y5575046D01*
X5785967Y5585206D01*
X5775553Y5593994D01*
X5764072Y5601309D01*
X5751677Y5607050D01*
X5738672Y5611114D01*
X5725210Y5613349D01*
X5711596Y5613806D01*
X5698032Y5612485D01*
X5684774Y5609285D01*
X5672023Y5604408D01*
X5660085Y5597855D01*
X5649112Y5589778D01*
X5639308Y5580278D01*
X5630824Y5569559D01*
X5623864Y5557824D01*
X5618581Y5545277D01*
X5614974Y5532120D01*
X5613146Y5518607D01*
X5613146Y5504992D01*
X5614974Y5491480D01*
X5618581Y5478322D01*
X5623864Y5465775D01*
X5630824Y5454040D01*
X5639308Y5443321D01*
X5649112Y5433822D01*
X5660085Y5425744D01*
X5672023Y5419191D01*
X5684774Y5414314D01*
X5698032Y5411114D01*
G37*
G36*
X1457096Y1295755D02*
G01*
X1470660Y1296212D01*
X1483969Y1298498D01*
X1496923Y1302461D01*
X1509166Y1308201D01*
X1520596Y1315466D01*
X1530908Y1324203D01*
X1540002Y1334211D01*
X1547622Y1345387D01*
X1553768Y1357477D01*
X1558188Y1370228D01*
X1560880Y1383487D01*
X1561795Y1397000D01*
X1560880Y1410512D01*
X1558188Y1423771D01*
X1553768Y1436522D01*
X1547622Y1448612D01*
X1540002Y1459788D01*
X1530908Y1469796D01*
X1520596Y1478534D01*
X1509166Y1485798D01*
X1496923Y1491538D01*
X1483969Y1495501D01*
X1470660Y1497787D01*
X1457096Y1498244D01*
X1443634Y1496872D01*
X1430477Y1493723D01*
X1417878Y1488897D01*
X1405991Y1482394D01*
X1395120Y1474368D01*
X1385366Y1464919D01*
X1376984Y1454302D01*
X1370076Y1442669D01*
X1364843Y1430223D01*
X1361236Y1417167D01*
X1359458Y1403756D01*
X1359458Y1390243D01*
X1361236Y1376832D01*
X1364843Y1363776D01*
X1370076Y1351330D01*
X1376984Y1339697D01*
X1385366Y1329080D01*
X1395120Y1319631D01*
X1405991Y1311605D01*
X1417878Y1305102D01*
X1430477Y1300276D01*
X1443634Y1297127D01*
G37*
G36*
X5336946Y4973218D02*
G01*
X5350560Y4973675D01*
X5364022Y4975910D01*
X5377027Y4979974D01*
X5389422Y4985715D01*
X5400903Y4993030D01*
X5411317Y5001869D01*
X5420461Y5011978D01*
X5428183Y5023205D01*
X5434330Y5035397D01*
X5438800Y5048250D01*
X5441543Y5061610D01*
X5442458Y5075224D01*
X5441543Y5088839D01*
X5438800Y5102199D01*
X5434330Y5115102D01*
X5428183Y5127244D01*
X5420461Y5138521D01*
X5411317Y5148630D01*
X5400903Y5157419D01*
X5390946Y5163769D01*
X5388457Y5166055D01*
X5386832Y5169001D01*
X5386273Y5172354D01*
X5386273Y5414721D01*
X5386832Y5418023D01*
X5388457Y5420969D01*
X5390946Y5423255D01*
X5400903Y5429605D01*
X5411317Y5438394D01*
X5420461Y5448554D01*
X5428183Y5459780D01*
X5434330Y5471922D01*
X5438800Y5484825D01*
X5441543Y5498185D01*
X5442458Y5511800D01*
X5441543Y5525414D01*
X5438800Y5538774D01*
X5434330Y5551678D01*
X5428183Y5563819D01*
X5420461Y5575046D01*
X5411317Y5585206D01*
X5400903Y5593994D01*
X5389422Y5601309D01*
X5377027Y5607050D01*
X5364022Y5611114D01*
X5350560Y5613349D01*
X5336946Y5613806D01*
X5323382Y5612485D01*
X5310124Y5609285D01*
X5297373Y5604408D01*
X5285435Y5597855D01*
X5274462Y5589778D01*
X5264658Y5580278D01*
X5256174Y5569559D01*
X5249214Y5557824D01*
X5243931Y5545277D01*
X5240324Y5532120D01*
X5238496Y5518607D01*
X5238496Y5504992D01*
X5240324Y5491480D01*
X5243931Y5478322D01*
X5249214Y5465775D01*
X5256174Y5454040D01*
X5264658Y5443321D01*
X5274462Y5433822D01*
X5285435Y5425744D01*
X5289143Y5423712D01*
X5291988Y5421426D01*
X5293817Y5418328D01*
X5294426Y5414772D01*
X5294426Y5172252D01*
X5293817Y5168696D01*
X5291988Y5165598D01*
X5289143Y5163362D01*
X5285435Y5161280D01*
X5274462Y5153202D01*
X5264658Y5143703D01*
X5256174Y5133035D01*
X5249214Y5121300D01*
X5243931Y5108702D01*
X5240324Y5095595D01*
X5238496Y5082032D01*
X5238496Y5068417D01*
X5240324Y5054904D01*
X5243931Y5041747D01*
X5249214Y5029200D01*
X5256174Y5017465D01*
X5264658Y5006746D01*
X5274462Y4997297D01*
X5285435Y4989169D01*
X5297373Y4982616D01*
X5310124Y4977739D01*
X5323382Y4974590D01*
G37*
G36*
X4168546Y4973218D02*
G01*
X4182160Y4973675D01*
X4195622Y4975910D01*
X4208627Y4979974D01*
X4221022Y4985715D01*
X4232503Y4993030D01*
X4242917Y5001869D01*
X4252061Y5011978D01*
X4259783Y5023205D01*
X4265930Y5035397D01*
X4270400Y5048250D01*
X4273143Y5061610D01*
X4274058Y5075224D01*
X4273143Y5088839D01*
X4270400Y5102199D01*
X4265930Y5115102D01*
X4259783Y5127244D01*
X4252061Y5138521D01*
X4242917Y5148630D01*
X4232503Y5157419D01*
X4221022Y5164785D01*
X4208627Y5170525D01*
X4195622Y5174538D01*
X4182160Y5176824D01*
X4168546Y5177282D01*
X4154982Y5175910D01*
X4141724Y5172760D01*
X4128973Y5167833D01*
X4117035Y5161280D01*
X4106062Y5153202D01*
X4096258Y5143703D01*
X4087774Y5133035D01*
X4080814Y5121300D01*
X4075531Y5108702D01*
X4071924Y5095595D01*
X4070096Y5082032D01*
X4070096Y5068417D01*
X4071924Y5054904D01*
X4075531Y5041747D01*
X4080814Y5029200D01*
X4087774Y5017465D01*
X4096258Y5006746D01*
X4106062Y4997297D01*
X4117035Y4989169D01*
X4128973Y4982616D01*
X4141724Y4977739D01*
X4154982Y4974590D01*
G37*

%LPD*%
D10*
X6565900Y8318500D02*
G01*
X6413500Y8470900D01*
X5930900Y8470900D01*
X5753100Y8293100D01*
X5753100Y7023100D01*
X6146800Y6629400D01*
X6883400Y6629400D01*
X5346700Y4635500D02*
G01*
X5524500Y4813300D01*
X5524500Y8191500D01*
X5892800Y8559800D01*
X6578600Y8559800D01*
X6819900Y8318500D01*
D11*
X6057900Y8318500D02*
G01*
X5969000Y8318500D01*
X5867400Y8216900D01*
X5867400Y7327900D01*
X6262885Y6932419D01*
X7463022Y6932419D01*
X8324850Y6070600D01*
D10*
X6311900Y7556500D02*
G01*
X6697271Y7171128D01*
X7783116Y7171128D01*
X8324850Y6629400D01*
X6883402Y5511797D02*
G01*
X6324602Y6070597D01*
X5715002Y6070597D01*
D11*
X3149600Y6794245D02*
G01*
X3149600Y7243571D01*
X4000500Y8089900D01*
X4254500Y8064500D02*
G01*
X4419600Y7899400D01*
X4419600Y5762752D01*
X4171950Y5511800D01*
X1135379Y4686300D02*
G01*
X1079500Y4686300D01*
X914400Y4521200D01*
X914400Y3695700D01*
X1193800Y3416300D01*
X1135407Y4432297D02*
G01*
X1805459Y5102349D01*
X1805459Y5956297D01*
X1135407Y4178297D02*
G01*
X1444779Y4178297D01*
X3476627Y6210145D01*
X1135407Y3924297D02*
G01*
X1447802Y3924297D01*
X1955802Y3416297D01*
D10*
X2984500Y2921000D02*
G01*
X3613150Y3549650D01*
X4883150Y3549650D01*
X5410200Y4076700D01*
X5715000Y4076700D01*
D11*
X2895600Y6794245D02*
G01*
X3225545Y6464300D01*
X4076700Y6464300D01*
D10*
X4171950Y3340100D02*
G01*
X3962400Y3340100D01*
X3619500Y2997200D01*
X3619500Y2844800D01*
X3530600Y2755900D01*
X2641600Y2755900D01*
X2476500Y2921000D01*
D11*
X1135379Y4686300D02*
G01*
X952500Y4869179D01*
X952500Y6248400D01*
X1168400Y6464300D01*
X2641602Y6794218D02*
G01*
X2641602Y6228382D01*
X2659534Y6210449D01*
X7156452Y6629397D02*
G01*
X6999302Y6472247D01*
X5872152Y6472247D01*
X5715002Y6629397D01*
X8324852Y4638672D02*
G01*
X8324852Y6070597D01*
X1144907Y7072602D02*
G01*
X1168402Y7049107D01*
X1168402Y6464297D01*
X1144907Y7326602D02*
G01*
X1001372Y7470137D01*
X1001372Y7945041D01*
X1144907Y8088576D01*
D10*
X6883402Y4638672D02*
G01*
X7156452Y4638672D01*
X4171952Y3759197D02*
G01*
X2552702Y3759197D01*
X1714502Y2920997D01*
X7404102Y5511797D02*
G01*
X6883402Y5511797D01*
X7404102Y4076697D02*
G01*
X6883402Y4076697D01*
X5715002Y4638672D02*
G01*
X6276977Y4076697D01*
X6883402Y4076697D01*
D11*
X2405534Y6210449D02*
G01*
X2059612Y6210449D01*
X1805459Y5956297D01*
X1144907Y7834576D02*
G01*
X1855243Y7834576D01*
X2895602Y6794218D01*
D10*
X7607302Y5664197D02*
G01*
X7562852Y5664197D01*
X7156452Y6070597D01*
X7156452Y6070597D02*
G01*
X6883402Y6070597D01*
X7607302Y4229097D02*
G01*
X7566027Y4229097D01*
X7156452Y4638672D01*
X5340352Y5075247D02*
G01*
X5340352Y5511797D01*
D11*
X4762502Y1396997D02*
G01*
X5139946Y1774441D01*
X5921758Y1774441D01*
X6083302Y1612897D01*
X3222627Y6210145D02*
G01*
X2659839Y6210145D01*
X2659534Y6210449D01*
X1168402Y5956297D02*
G01*
X1676402Y6464297D01*
X1805459Y6464297D01*
X1805459Y6794218D02*
G01*
X1805459Y6464297D01*
X2641602Y6794218D02*
G01*
X1805459Y6794218D01*
X1805459Y6794218D02*
G01*
X1677291Y6794218D01*
X1144907Y7326602D01*
X4254500Y1397000D02*
G01*
X3011424Y2640076D01*
X1449323Y2640076D01*
X1193800Y2895600D01*
X1193800Y3416300D01*
X8324850Y4638547D02*
G01*
X8324850Y4375150D01*
X5995415Y2045715D01*
X4903215Y2045715D01*
X4254500Y1397000D01*
D12*
G01*
X4076700Y6464300D03*
G01*
X4076700Y5956300D03*
G01*
X1805457Y5956300D03*
G01*
X1805457Y6464300D03*
G01*
X1168400Y5956300D03*
G01*
X1168400Y6464300D03*
D13*
G01*
X2659557Y6210452D03*
G01*
X2405557Y6210452D03*
G01*
X3222625Y6210147D03*
G01*
X3476625Y6210147D03*
D14*
G01*
X1955800Y3416300D03*
G01*
X1193800Y3416300D03*
G01*
X5829300Y2705100D03*
G01*
X6083300Y2705100D03*
G01*
X5829300Y1612900D03*
G01*
X6083300Y1612900D03*
D15*
G01*
X5016500Y2921000D03*
D16*
G01*
X4762500Y2921000D03*
G01*
X4508500Y2921000D03*
G01*
X4254500Y2921000D03*
G01*
X4000500Y2921000D03*
G01*
X3746500Y2921000D03*
G01*
X3492500Y2921000D03*
G01*
X3238500Y2921000D03*
G01*
X2984500Y2921000D03*
G01*
X2730500Y2921000D03*
G01*
X2476500Y2921000D03*
G01*
X2222500Y2921000D03*
G01*
X5016500Y1397000D03*
G01*
X4762500Y1397000D03*
G01*
X4508500Y1397000D03*
G01*
X4254500Y1397000D03*
G01*
X4000500Y1397000D03*
G01*
X3746500Y1397000D03*
G01*
X3238500Y1397000D03*
G01*
X2984500Y1397000D03*
G01*
X2476500Y1397000D03*
G01*
X2222500Y1397000D03*
G01*
X2730500Y1397000D03*
G01*
X3492500Y1397000D03*
G01*
X1968500Y2921000D03*
G01*
X1714500Y2921000D03*
G01*
X1460500Y2921000D03*
G01*
X1968500Y1397000D03*
G01*
X1714500Y1397000D03*
G01*
X1460500Y1397000D03*
D13*
G01*
X4171950Y3759200D03*
G01*
X5340350Y3759200D03*
G01*
X4171950Y3340100D03*
G01*
X5340350Y3340100D03*
G01*
X4171950Y5511800D03*
G01*
X5340350Y5511800D03*
G01*
X4171950Y5075224D03*
G01*
X5340350Y5075224D03*
G01*
X4171950Y4638675D03*
G01*
X5340350Y4638675D03*
G01*
X5715000Y6070600D03*
G01*
X6883400Y6070600D03*
G01*
X5715000Y5511800D03*
G01*
X6883400Y5511800D03*
G01*
X7156450Y6070600D03*
G01*
X8324850Y6070600D03*
G01*
X5715000Y6629400D03*
G01*
X6883400Y6629400D03*
G01*
X8324850Y6629400D03*
G01*
X7156450Y6629400D03*
G01*
X7156450Y4638675D03*
G01*
X8324850Y4638675D03*
G01*
X5715000Y4076700D03*
G01*
X6883400Y4076700D03*
G01*
X5715000Y4638675D03*
G01*
X6883400Y4638675D03*
D14*
G01*
X6057900Y7556500D03*
G01*
X6311900Y7556500D03*
G01*
X6565900Y7556500D03*
G01*
X6819900Y7556500D03*
G01*
X7073900Y7556500D03*
G01*
X7327900Y7556500D03*
G01*
X7581900Y7556500D03*
G01*
X7835900Y7556500D03*
G01*
X6565900Y8318500D03*
G01*
X6819900Y8318500D03*
G01*
X7073900Y8318500D03*
G01*
X7327900Y8318500D03*
G01*
X7581900Y8318500D03*
G01*
X7835900Y8318500D03*
G01*
X6311900Y8318500D03*
G01*
X6057900Y8318500D03*
D17*
G01*
X7607300Y5359400D03*
G01*
X7404100Y5511800D03*
G01*
X7607300Y5664200D03*
G01*
X7607300Y3924300D03*
G01*
X7404100Y4076700D03*
G01*
X7607300Y4229100D03*
D18*
G01*
X1135405Y3924300D03*
D19*
G01*
X1135405Y4686300D03*
G01*
X1135405Y4432300D03*
G01*
X1135405Y4178300D03*
D13*
G01*
X1144904Y8342579D03*
G01*
X1144904Y8088579D03*
G01*
X1144904Y7834579D03*
G01*
X1144904Y7326604D03*
G01*
X1144904Y7072604D03*
G01*
X4000500Y8089900D03*
G01*
X4254500Y8089900D03*
G01*
X4254500Y7835900D03*
G01*
X4000500Y7835900D03*
D20*
G01*
X3149600Y6794220D03*
D21*
G01*
X2895600Y8432520D03*
D20*
G01*
X2895600Y6794220D03*
G01*
X2641600Y6794220D03*
M02*
