G04 Layer: BottomSilkscreenLayer*
G04 EasyEDA v6.5.15, 2022-10-09 16:14:37*
G04 0b1594b3c9ed43a1be065a43cbb3c8b9,5f1b69652c614dc78b77d9171f06c583,10*
G04 Gerber Generator version 0.2*
G04 Scale: 100 percent, Rotated: No, Reflected: No *
G04 Dimensions in millimeters *
G04 leading zeros omitted , absolute positions ,4 integer and 5 decimal *
%FSLAX45Y45*%
%MOMM*%

%ADD10C,0.0001*%

%LPD*%
G36*
X1913839Y2408783D02*
G01*
X1913839Y2385720D01*
X1754378Y2385669D01*
X1711706Y2373884D01*
X1655775Y2336698D01*
X1618894Y2281783D01*
X1605280Y2216505D01*
X1618081Y2153107D01*
X1654860Y2096058D01*
X1715465Y2056079D01*
X1792071Y2043023D01*
X1792071Y2028037D01*
X1884832Y2028037D01*
X1884832Y2120341D01*
X1792071Y2120341D01*
X1792071Y2097278D01*
X1779016Y2097278D01*
X1772208Y2097786D01*
X1763369Y2099106D01*
X1753616Y2101037D01*
X1744065Y2103374D01*
X1722170Y2109419D01*
X1697482Y2131212D01*
X1688896Y2139950D01*
X1681175Y2149094D01*
X1677873Y2153412D01*
X1675130Y2157425D01*
X1673047Y2160981D01*
X1669592Y2168906D01*
X1666189Y2178761D01*
X1663293Y2189327D01*
X1661210Y2199284D01*
X1657604Y2221788D01*
X1670812Y2270506D01*
X1706880Y2311400D01*
X1751025Y2333802D01*
X1913839Y2333802D01*
X1913839Y2316480D01*
X2006600Y2316480D01*
X2006600Y2408783D01*
G37*
G36*
X1792071Y2264562D02*
G01*
X1792071Y2172258D01*
X1884832Y2172258D01*
X1884832Y2195322D01*
X1960219Y2195322D01*
X1960219Y1953056D01*
X1884832Y1953056D01*
X1884832Y1976120D01*
X1792071Y1976120D01*
X1792071Y1883816D01*
X1884832Y1883816D01*
X1884832Y1901088D01*
X2006600Y1901088D01*
X2006600Y2247239D01*
X1884832Y2247239D01*
X1884832Y2264562D01*
G37*
G36*
X7321803Y2446274D02*
G01*
X7305497Y2445816D01*
X7298690Y2445308D01*
X7293305Y2444597D01*
X7289698Y2443683D01*
X7288072Y2442819D01*
X7286802Y2441448D01*
X7285939Y2439517D01*
X7285380Y2436926D01*
X7285228Y2433523D01*
X7285431Y2429306D01*
X7287056Y2417775D01*
X7290308Y2401620D01*
X7298791Y2365197D01*
X7354214Y2363571D01*
X7370876Y2363724D01*
X7377480Y2364079D01*
X7382814Y2364638D01*
X7386777Y2365349D01*
X7389215Y2366162D01*
X7390079Y2367178D01*
X7389723Y2371598D01*
X7388809Y2377541D01*
X7385608Y2392426D01*
X7381189Y2409088D01*
X7376363Y2424836D01*
X7374077Y2431491D01*
X7371943Y2436926D01*
X7370114Y2440736D01*
X7368641Y2442565D01*
X7365847Y2443581D01*
X7361174Y2444445D01*
X7347508Y2445664D01*
X7330592Y2446223D01*
G37*
G36*
X6187795Y2446274D02*
G01*
X6179312Y2446172D01*
X6164580Y2445308D01*
X6159144Y2444597D01*
X6155385Y2443632D01*
X6152032Y2441448D01*
X6150508Y2437739D01*
X6150711Y2431694D01*
X6159855Y2389174D01*
X6181191Y2287422D01*
X6239865Y2016048D01*
X6241288Y2013407D01*
X6243624Y2011425D01*
X6247333Y2010054D01*
X6252972Y2009190D01*
X6260947Y2008733D01*
X6285738Y2008479D01*
X6304280Y2008835D01*
X6311849Y2009241D01*
X6323380Y2010562D01*
X6327140Y2011476D01*
X6329426Y2012442D01*
X6330188Y2013610D01*
X6328156Y2026107D01*
X6322720Y2053945D01*
X6291834Y2203196D01*
X6253734Y2379116D01*
X6249619Y2396744D01*
X6245555Y2412441D01*
X6241796Y2425598D01*
X6238494Y2435352D01*
X6237122Y2438806D01*
X6235903Y2441143D01*
X6234938Y2442311D01*
X6232093Y2443378D01*
X6227318Y2444242D01*
X6221069Y2445004D01*
X6205321Y2446020D01*
G37*
G36*
X6753555Y2446172D02*
G01*
X6744462Y2446070D01*
X6727850Y2445207D01*
X6721144Y2444496D01*
X6716064Y2443581D01*
X6713016Y2442464D01*
X6711492Y2441092D01*
X6710476Y2439009D01*
X6709918Y2436164D01*
X6709867Y2432304D01*
X6710273Y2427325D01*
X6711188Y2421128D01*
X6717741Y2389632D01*
X6723227Y2361539D01*
X6727698Y2333244D01*
X6673392Y2333193D01*
X6657238Y2332786D01*
X6644995Y2332024D01*
X6640830Y2331567D01*
X6638188Y2331059D01*
X6637274Y2330500D01*
X6637629Y2326386D01*
X6638594Y2320594D01*
X6641947Y2305507D01*
X6646468Y2288235D01*
X6651396Y2271776D01*
X6655816Y2259177D01*
X6657594Y2255215D01*
X6658965Y2253335D01*
X6660896Y2252624D01*
X6669024Y2251303D01*
X6681520Y2250338D01*
X6696913Y2249728D01*
X6745833Y2249576D01*
X6753098Y2219604D01*
X6757974Y2198370D01*
X6762089Y2179370D01*
X6765442Y2162606D01*
X6767982Y2147925D01*
X6769760Y2135225D01*
X6770776Y2124456D01*
X6771081Y2115464D01*
X6770573Y2108250D01*
X6770065Y2105253D01*
X6769353Y2102612D01*
X6768490Y2100427D01*
X6767423Y2098548D01*
X6766153Y2097074D01*
X6764731Y2095906D01*
X6763156Y2095093D01*
X6757822Y2093975D01*
X6749084Y2093010D01*
X6738213Y2092350D01*
X6714845Y2091791D01*
X6704990Y2090826D01*
X6697929Y2089454D01*
X6694576Y2087778D01*
X6693916Y2083816D01*
X6694170Y2076246D01*
X6695236Y2066137D01*
X6700367Y2035454D01*
X6702298Y2026157D01*
X6703415Y2022449D01*
X6704634Y2019300D01*
X6706158Y2016658D01*
X6707936Y2014474D01*
X6710121Y2012696D01*
X6712712Y2011273D01*
X6715759Y2010206D01*
X6719417Y2009444D01*
X6723684Y2008936D01*
X6734403Y2008428D01*
X6782155Y2008581D01*
X6796582Y2008987D01*
X6809587Y2009749D01*
X6821271Y2010918D01*
X6831634Y2012543D01*
X6840728Y2014728D01*
X6848652Y2017522D01*
X6852158Y2019147D01*
X6855358Y2020925D01*
X6858304Y2022906D01*
X6860997Y2025091D01*
X6865569Y2030018D01*
X6867448Y2032812D01*
X6869074Y2035810D01*
X6870496Y2039061D01*
X6872579Y2046224D01*
X6873290Y2050186D01*
X6874002Y2058924D01*
X6873951Y2068728D01*
X6873036Y2079701D01*
X6871462Y2091893D01*
X6869125Y2105355D01*
X6866178Y2120188D01*
X6849618Y2196439D01*
X6826453Y2306574D01*
X6809689Y2387346D01*
X6805117Y2407716D01*
X6800596Y2424887D01*
X6798513Y2431745D01*
X6796582Y2437180D01*
X6794957Y2440838D01*
X6793687Y2442616D01*
X6790740Y2443734D01*
X6785762Y2444648D01*
X6779158Y2445308D01*
X6771284Y2445816D01*
G37*
G36*
X6862216Y2445664D02*
G01*
X6847230Y2445258D01*
X6832752Y2444191D01*
X6820458Y2442667D01*
X6815683Y2441702D01*
X6812025Y2440686D01*
X6809790Y2439619D01*
X6809181Y2438400D01*
X6817207Y2390597D01*
X6819442Y2379980D01*
X6821424Y2371902D01*
X6822998Y2367635D01*
X6824675Y2366568D01*
X6828078Y2365603D01*
X6832904Y2364790D01*
X6845960Y2363571D01*
X6861860Y2362962D01*
X6878624Y2362911D01*
X6894169Y2363419D01*
X6906514Y2364587D01*
X6910831Y2365349D01*
X6913625Y2366264D01*
X6914591Y2367381D01*
X6914286Y2371750D01*
X6913372Y2377643D01*
X6910171Y2392476D01*
X6905752Y2409139D01*
X6900925Y2424887D01*
X6896455Y2436977D01*
X6894626Y2440787D01*
X6893204Y2442667D01*
X6890715Y2443734D01*
X6886854Y2444496D01*
X6881875Y2445105D01*
X6869328Y2445664D01*
G37*
G36*
X7680096Y2444800D02*
G01*
X7593533Y2444292D01*
X7543342Y2443581D01*
X7522464Y2443073D01*
X7504226Y2442362D01*
X7488377Y2441448D01*
X7474813Y2440228D01*
X7463332Y2438654D01*
X7453731Y2436672D01*
X7449566Y2435555D01*
X7442504Y2432913D01*
X7439558Y2431389D01*
X7436967Y2429764D01*
X7434630Y2427935D01*
X7432649Y2426004D01*
X7429500Y2421636D01*
X7427315Y2416556D01*
X7425944Y2410764D01*
X7425131Y2404211D01*
X7424826Y2396794D01*
X7424724Y2386025D01*
X7425232Y2375662D01*
X7426655Y2363063D01*
X7429246Y2346756D01*
X7433309Y2325065D01*
X7439152Y2296414D01*
X7467295Y2164740D01*
X7477353Y2116277D01*
X7482636Y2092756D01*
X7485278Y2082444D01*
X7488072Y2072944D01*
X7491069Y2064359D01*
X7494320Y2056536D01*
X7497978Y2049475D01*
X7502042Y2043175D01*
X7506614Y2037537D01*
X7511796Y2032507D01*
X7517638Y2028139D01*
X7524191Y2024329D01*
X7531608Y2021027D01*
X7539939Y2018233D01*
X7549184Y2015896D01*
X7559548Y2013966D01*
X7571028Y2012391D01*
X7583678Y2011121D01*
X7597648Y2010206D01*
X7612989Y2009495D01*
X7648092Y2008733D01*
X7689545Y2008479D01*
X7759649Y2008632D01*
X7819948Y2009495D01*
X7840421Y2010105D01*
X7852664Y2010867D01*
X7855610Y2011476D01*
X7853425Y2023160D01*
X7830515Y2127097D01*
X7804150Y2250846D01*
X7797698Y2280310D01*
X7792262Y2302713D01*
X7790230Y2309774D01*
X7788960Y2313178D01*
X7787487Y2314143D01*
X7784439Y2315006D01*
X7780070Y2315819D01*
X7768183Y2317140D01*
X7753502Y2318105D01*
X7737906Y2318613D01*
X7723124Y2318562D01*
X7710881Y2318004D01*
X7706258Y2317496D01*
X7702956Y2316784D01*
X7701178Y2315972D01*
X7700873Y2314549D01*
X7700924Y2311603D01*
X7702143Y2301544D01*
X7704581Y2287320D01*
X7739227Y2124151D01*
X7745069Y2098903D01*
X7744917Y2097328D01*
X7744002Y2096058D01*
X7742174Y2094992D01*
X7739125Y2094128D01*
X7734706Y2093468D01*
X7728762Y2092960D01*
X7711236Y2092350D01*
X7685024Y2092147D01*
X7645908Y2092198D01*
X7627874Y2092452D01*
X7613599Y2092909D01*
X7602524Y2093620D01*
X7594244Y2094585D01*
X7588250Y2095957D01*
X7585913Y2096770D01*
X7582458Y2098700D01*
X7581138Y2099818D01*
X7579512Y2101646D01*
X7576312Y2106777D01*
X7573009Y2114092D01*
X7569555Y2123694D01*
X7565898Y2135784D01*
X7562037Y2150567D01*
X7557871Y2168194D01*
X7542936Y2237892D01*
X7531404Y2289149D01*
X7528204Y2307386D01*
X7526274Y2323439D01*
X7525766Y2330450D01*
X7525613Y2336698D01*
X7525766Y2342184D01*
X7526274Y2346706D01*
X7527137Y2350312D01*
X7528356Y2352903D01*
X7529118Y2353818D01*
X7531608Y2355392D01*
X7535722Y2356764D01*
X7541869Y2357932D01*
X7550353Y2358898D01*
X7561630Y2359761D01*
X7593787Y2361234D01*
X7693609Y2363622D01*
X7731607Y2364892D01*
X7757261Y2366365D01*
X7765897Y2367280D01*
X7772044Y2368245D01*
X7775854Y2369312D01*
X7776972Y2369921D01*
X7777530Y2370531D01*
X7777632Y2371191D01*
X7770368Y2409190D01*
X7767269Y2423007D01*
X7765592Y2428646D01*
X7763865Y2433472D01*
X7762087Y2437384D01*
X7760309Y2440381D01*
X7758480Y2442413D01*
X7756702Y2443480D01*
X7749590Y2444038D01*
X7733538Y2444445D01*
G37*
G36*
X7304786Y2333244D02*
G01*
X7310729Y2309215D01*
X7322362Y2257247D01*
X7334503Y2200910D01*
X7344968Y2150770D01*
X7372858Y2022093D01*
X7374381Y2016607D01*
X7375855Y2013712D01*
X7378192Y2011578D01*
X7381900Y2010105D01*
X7387488Y2009190D01*
X7395413Y2008733D01*
X7420305Y2008479D01*
X7440675Y2008784D01*
X7448296Y2009241D01*
X7454290Y2009902D01*
X7458811Y2010714D01*
X7461961Y2011781D01*
X7463739Y2013102D01*
X7464348Y2014626D01*
X7463586Y2021332D01*
X7461046Y2035200D01*
X7449413Y2091080D01*
X7433005Y2166874D01*
X7419594Y2230323D01*
X7408011Y2286508D01*
X7400950Y2322525D01*
X7399985Y2328926D01*
X7398969Y2329789D01*
X7396225Y2330602D01*
X7385964Y2331974D01*
X7370876Y2332888D01*
X7352385Y2333244D01*
G37*
G36*
X6947966Y2333244D02*
G01*
X6952742Y2307336D01*
X6962648Y2260955D01*
X6975297Y2203196D01*
X6983933Y2162352D01*
X7003999Y2070252D01*
X7026249Y1966315D01*
X7031888Y1941271D01*
X7034631Y1930196D01*
X7037425Y1919986D01*
X7040321Y1910689D01*
X7043318Y1902155D01*
X7046569Y1894484D01*
X7050024Y1887474D01*
X7053834Y1881225D01*
X7057999Y1875637D01*
X7062622Y1870659D01*
X7067702Y1866341D01*
X7073290Y1862531D01*
X7079488Y1859229D01*
X7086346Y1856435D01*
X7093966Y1854047D01*
X7102297Y1852117D01*
X7111441Y1850491D01*
X7121448Y1849221D01*
X7132421Y1848256D01*
X7157415Y1847037D01*
X7186777Y1846478D01*
X7221016Y1846325D01*
X7302550Y1846529D01*
X7337856Y1847088D01*
X7374432Y1848357D01*
X7381138Y1848916D01*
X7384643Y1849475D01*
X7385050Y1849780D01*
X7384796Y1854403D01*
X7383119Y1867154D01*
X7380376Y1882546D01*
X7377023Y1898294D01*
X7373569Y1911959D01*
X7371994Y1917293D01*
X7370572Y1921205D01*
X7369352Y1923440D01*
X7367422Y1924761D01*
X7363866Y1925929D01*
X7358583Y1926894D01*
X7351268Y1927707D01*
X7341819Y1928368D01*
X7315606Y1929282D01*
X7278522Y1929688D01*
X7228992Y1929892D01*
X7196785Y1930450D01*
X7169759Y1931416D01*
X7149846Y1932635D01*
X7143140Y1933346D01*
X7137806Y1934464D01*
X7133945Y1937410D01*
X7129932Y1941830D01*
X7126224Y1947214D01*
X7123379Y1952955D01*
X7120788Y1961642D01*
X7110780Y2002739D01*
X7097014Y2063089D01*
X7082790Y2127707D01*
X7071512Y2181860D01*
X7064197Y2220010D01*
X7060641Y2236063D01*
X7057186Y2249576D01*
X7140143Y2249525D01*
X7159548Y2249170D01*
X7176922Y2248509D01*
X7191603Y2247595D01*
X7207148Y2245817D01*
X7210298Y2245106D01*
X7212330Y2244344D01*
X7215276Y2242616D01*
X7217867Y2240635D01*
X7220254Y2238146D01*
X7222439Y2235047D01*
X7224522Y2231186D01*
X7226503Y2226310D01*
X7228535Y2220315D01*
X7232853Y2204212D01*
X7237933Y2181504D01*
X7242759Y2158542D01*
X7245553Y2143404D01*
X7247381Y2131060D01*
X7248245Y2121103D01*
X7248245Y2113280D01*
X7247890Y2110028D01*
X7247331Y2107184D01*
X7245400Y2101900D01*
X7244232Y2099513D01*
X7242860Y2097532D01*
X7241133Y2095957D01*
X7238796Y2094738D01*
X7235698Y2093772D01*
X7231634Y2093112D01*
X7226452Y2092604D01*
X7212025Y2092147D01*
X7190841Y2092045D01*
X7170572Y2091689D01*
X7153046Y2090826D01*
X7140092Y2089556D01*
X7135926Y2088794D01*
X7133590Y2087981D01*
X7131964Y2086508D01*
X7130846Y2084374D01*
X7130237Y2081377D01*
X7130186Y2077262D01*
X7130694Y2071928D01*
X7133386Y2056587D01*
X7143953Y2008479D01*
X7229144Y2008530D01*
X7260183Y2009139D01*
X7287463Y2010359D01*
X7298740Y2011172D01*
X7307935Y2012086D01*
X7314590Y2013102D01*
X7321346Y2014982D01*
X7325461Y2016506D01*
X7329271Y2018233D01*
X7332725Y2020214D01*
X7335875Y2022398D01*
X7338669Y2024888D01*
X7341158Y2027682D01*
X7343292Y2030780D01*
X7345172Y2034235D01*
X7346696Y2038045D01*
X7347915Y2042261D01*
X7348880Y2046884D01*
X7349490Y2051913D01*
X7349845Y2057450D01*
X7349642Y2070049D01*
X7348321Y2084730D01*
X7345883Y2101799D01*
X7342378Y2121458D01*
X7321550Y2221433D01*
X7316927Y2242464D01*
X7312609Y2258060D01*
X7310272Y2265222D01*
X7307834Y2271877D01*
X7305243Y2278176D01*
X7302550Y2284018D01*
X7299706Y2289454D01*
X7296708Y2294483D01*
X7293559Y2299157D01*
X7290257Y2303475D01*
X7286802Y2307386D01*
X7283145Y2310942D01*
X7279335Y2314143D01*
X7275322Y2317038D01*
X7271105Y2319629D01*
X7266686Y2321864D01*
X7262114Y2323795D01*
X7255306Y2326030D01*
X7250785Y2327097D01*
X7239203Y2328875D01*
X7223607Y2330297D01*
X7202982Y2331364D01*
X7176516Y2332126D01*
X7143343Y2332583D01*
G37*
G36*
X6877456Y2333244D02*
G01*
X6859219Y2333040D01*
X6844233Y2332431D01*
X6834124Y2331618D01*
X6831380Y2331110D01*
X6830415Y2330551D01*
X6832498Y2319680D01*
X6846214Y2259279D01*
X6887108Y2070404D01*
X6900722Y2008479D01*
X6955891Y2008581D01*
X6965188Y2008784D01*
X6972808Y2009241D01*
X6978853Y2009902D01*
X6983374Y2010714D01*
X6986524Y2011781D01*
X6988302Y2013102D01*
X6988911Y2014626D01*
X6988149Y2021332D01*
X6985609Y2035200D01*
X6973925Y2091080D01*
X6957568Y2166874D01*
X6944156Y2230323D01*
X6932574Y2286508D01*
X6925513Y2322525D01*
X6924497Y2328926D01*
X6923582Y2329789D01*
X6920788Y2330602D01*
X6910679Y2331974D01*
X6895744Y2332888D01*
G37*
G36*
X5963310Y2333244D02*
G01*
X5942330Y2332939D01*
X5925108Y2332126D01*
X5918504Y2331567D01*
X5913526Y2330907D01*
X5910326Y2330196D01*
X5909259Y2329484D01*
X5909767Y2328418D01*
X5913729Y2323592D01*
X5921095Y2315413D01*
X5943904Y2291638D01*
X5973572Y2261920D01*
X5987745Y2247392D01*
X5999988Y2234438D01*
X6009792Y2223516D01*
X6016599Y2215337D01*
X6019952Y2210409D01*
X6020104Y2209342D01*
X6017818Y2207768D01*
X6013450Y2206498D01*
X6007608Y2205634D01*
X5993028Y2204923D01*
X5985357Y2203907D01*
X5977940Y2202281D01*
X5971032Y2200046D01*
X5964682Y2197354D01*
X5959094Y2194153D01*
X5954369Y2190597D01*
X5950661Y2186635D01*
X5949035Y2184196D01*
X5947664Y2181301D01*
X5946546Y2177948D01*
X5945682Y2174189D01*
X5945022Y2169972D01*
X5944616Y2165299D01*
X5944514Y2154580D01*
X5945428Y2141931D01*
X5947308Y2127300D01*
X5950204Y2110587D01*
X5954014Y2091791D01*
X5971590Y2010918D01*
X6026353Y2009343D01*
X6042609Y2009393D01*
X6054902Y2010054D01*
X6059119Y2010613D01*
X6061760Y2011222D01*
X6062675Y2011984D01*
X6061913Y2017115D01*
X6056630Y2043836D01*
X6047892Y2085289D01*
X6044895Y2100630D01*
X6044082Y2106015D01*
X6043726Y2110181D01*
X6043828Y2113381D01*
X6044387Y2115870D01*
X6045352Y2117902D01*
X6046724Y2119731D01*
X6050737Y2123744D01*
X6052515Y2125218D01*
X6054750Y2126488D01*
X6057493Y2127605D01*
X6060998Y2128570D01*
X6070396Y2129993D01*
X6083960Y2130856D01*
X6102604Y2131364D01*
X6145530Y2131618D01*
X6162141Y2132025D01*
X6176467Y2132634D01*
X6187694Y2133447D01*
X6195212Y2134362D01*
X6197396Y2134870D01*
X6198362Y2135428D01*
X6198260Y2136038D01*
X6196228Y2139188D01*
X6192062Y2144572D01*
X6177788Y2161387D01*
X6156909Y2184704D01*
X6131001Y2212949D01*
X6017361Y2333244D01*
G37*
G36*
X5792419Y2332736D02*
G01*
X5686094Y2331770D01*
X5641695Y2331008D01*
X5612180Y2329891D01*
X5601817Y2329129D01*
X5593842Y2328164D01*
X5587695Y2326944D01*
X5582970Y2325522D01*
X5579211Y2323795D01*
X5575909Y2321712D01*
X5570982Y2318004D01*
X5565394Y2312670D01*
X5563057Y2309825D01*
X5561076Y2306777D01*
X5559399Y2303475D01*
X5558028Y2299919D01*
X5556961Y2296007D01*
X5556199Y2291740D01*
X5555742Y2287066D01*
X5555589Y2281885D01*
X5555742Y2276144D01*
X5556961Y2262987D01*
X5559298Y2247138D01*
X5562803Y2228240D01*
X5593283Y2085390D01*
X5600446Y2052878D01*
X5610250Y2010918D01*
X5817108Y2011019D01*
X5859576Y2011578D01*
X5876340Y2012137D01*
X5890514Y2012899D01*
X5902350Y2014016D01*
X5912002Y2015439D01*
X5919825Y2017268D01*
X5923127Y2018334D01*
X5928614Y2020874D01*
X5930849Y2022297D01*
X5932830Y2023872D01*
X5936081Y2027428D01*
X5938570Y2031593D01*
X5940552Y2036368D01*
X5942279Y2041906D01*
X5943904Y2048459D01*
X5944717Y2057196D01*
X5944565Y2067763D01*
X5943600Y2079802D01*
X5941822Y2092706D01*
X5939383Y2106168D01*
X5936335Y2119680D01*
X5932779Y2132787D01*
X5928817Y2145080D01*
X5924448Y2156053D01*
X5922162Y2160930D01*
X5919571Y2165807D01*
X5916879Y2170277D01*
X5914034Y2174443D01*
X5911037Y2178253D01*
X5907786Y2181758D01*
X5904331Y2184958D01*
X5900623Y2187905D01*
X5896610Y2190546D01*
X5892241Y2192985D01*
X5887516Y2195220D01*
X5882436Y2197201D01*
X5876848Y2199030D01*
X5864402Y2202281D01*
X5849823Y2204974D01*
X5838139Y2206548D01*
X5824626Y2207818D01*
X5809742Y2208784D01*
X5794044Y2209495D01*
X5778093Y2209952D01*
X5762396Y2210104D01*
X5747512Y2209952D01*
X5733948Y2209546D01*
X5722264Y2208834D01*
X5712917Y2207869D01*
X5706516Y2206599D01*
X5704586Y2205888D01*
X5703570Y2205075D01*
X5703062Y2203297D01*
X5702960Y2200148D01*
X5703163Y2195880D01*
X5704535Y2184603D01*
X5706973Y2170684D01*
X5716778Y2126589D01*
X5785154Y2126538D01*
X5803900Y2126284D01*
X5817260Y2125522D01*
X5822340Y2124913D01*
X5826556Y2124100D01*
X5830112Y2123084D01*
X5833059Y2121814D01*
X5835650Y2120290D01*
X5837986Y2118512D01*
X5840222Y2116378D01*
X5844997Y2111095D01*
X5847232Y2106879D01*
X5847029Y2103120D01*
X5844590Y2099157D01*
X5843168Y2097887D01*
X5841085Y2096719D01*
X5838240Y2095754D01*
X5834583Y2094890D01*
X5824321Y2093569D01*
X5809437Y2092706D01*
X5789066Y2092248D01*
X5722010Y2091842D01*
X5712307Y2092045D01*
X5704281Y2092706D01*
X5700776Y2093214D01*
X5694730Y2094788D01*
X5692140Y2095855D01*
X5689803Y2097125D01*
X5687720Y2098649D01*
X5685840Y2100478D01*
X5684113Y2102561D01*
X5681167Y2107641D01*
X5678678Y2114092D01*
X5676442Y2122068D01*
X5674258Y2131720D01*
X5662625Y2191766D01*
X5659983Y2207310D01*
X5658459Y2219401D01*
X5658053Y2224278D01*
X5658053Y2231898D01*
X5658459Y2234793D01*
X5659069Y2237079D01*
X5659882Y2238857D01*
X5661660Y2240838D01*
X5664504Y2242515D01*
X5668822Y2243937D01*
X5675122Y2245156D01*
X5683808Y2246172D01*
X5695289Y2247036D01*
X5710123Y2247798D01*
X5751271Y2249119D01*
X5830570Y2251151D01*
X5879490Y2252726D01*
X5892495Y2253488D01*
X5891733Y2258466D01*
X5885942Y2286254D01*
X5878880Y2317750D01*
X5876493Y2327351D01*
X5875528Y2328570D01*
X5873191Y2329586D01*
X5869330Y2330450D01*
X5863691Y2331212D01*
X5846419Y2332228D01*
X5819648Y2332685D01*
G37*
G36*
X6470446Y2332024D02*
G01*
X6424371Y2331669D01*
X6377482Y2330958D01*
X6360109Y2330500D01*
X6346190Y2329840D01*
X6335166Y2329027D01*
X6326581Y2328011D01*
X6320028Y2326741D01*
X6314948Y2325166D01*
X6310934Y2323287D01*
X6305854Y2319832D01*
X6302959Y2317140D01*
X6300368Y2314194D01*
X6298184Y2310892D01*
X6296304Y2307183D01*
X6294780Y2303170D01*
X6293612Y2298700D01*
X6292748Y2293823D01*
X6292240Y2288438D01*
X6292088Y2282596D01*
X6292240Y2276246D01*
X6292697Y2269337D01*
X6294628Y2253843D01*
X6297828Y2235809D01*
X6307734Y2186025D01*
X6313881Y2157628D01*
X6316014Y2149297D01*
X6317843Y2143760D01*
X6319570Y2140153D01*
X6321348Y2137664D01*
X6322364Y2136800D01*
X6326124Y2135378D01*
X6332575Y2134209D01*
X6341973Y2133244D01*
X6354521Y2132533D01*
X6370523Y2131974D01*
X6414058Y2131517D01*
X6469380Y2131618D01*
X6489903Y2131923D01*
X6505346Y2132482D01*
X6516420Y2133295D01*
X6523939Y2134463D01*
X6526530Y2135174D01*
X6528562Y2136038D01*
X6529984Y2137003D01*
X6531000Y2138019D01*
X6531609Y2139238D01*
X6532067Y2141474D01*
X6532219Y2144826D01*
X6532118Y2149195D01*
X6531051Y2160168D01*
X6529070Y2173071D01*
X6520891Y2212695D01*
X6443319Y2215692D01*
X6422491Y2216708D01*
X6408013Y2217928D01*
X6402781Y2218690D01*
X6398717Y2219553D01*
X6395669Y2220518D01*
X6393484Y2221687D01*
X6392011Y2223058D01*
X6391046Y2224633D01*
X6390538Y2226462D01*
X6389979Y2229967D01*
X6389878Y2233117D01*
X6390182Y2235911D01*
X6391046Y2238400D01*
X6392468Y2240534D01*
X6394551Y2242413D01*
X6397294Y2244039D01*
X6400800Y2245410D01*
X6405118Y2246528D01*
X6410350Y2247442D01*
X6423609Y2248712D01*
X6441135Y2249373D01*
X6480251Y2249424D01*
X6510578Y2248662D01*
X6531356Y2247392D01*
X6536435Y2246630D01*
X6539484Y2245410D01*
X6542481Y2243378D01*
X6545427Y2240483D01*
X6548272Y2236774D01*
X6551066Y2232202D01*
X6553809Y2226665D01*
X6556502Y2220264D01*
X6559194Y2212848D01*
X6561886Y2204516D01*
X6564579Y2195169D01*
X6570014Y2173325D01*
X6572351Y2162403D01*
X6574281Y2152142D01*
X6575806Y2142642D01*
X6576872Y2133854D01*
X6577482Y2125929D01*
X6577736Y2118766D01*
X6577533Y2112518D01*
X6576872Y2107133D01*
X6575806Y2102662D01*
X6574281Y2099157D01*
X6572351Y2096617D01*
X6570014Y2095093D01*
X6566255Y2094534D01*
X6547510Y2093468D01*
X6516776Y2092655D01*
X6477812Y2092198D01*
X6432854Y2092045D01*
X6393484Y2091385D01*
X6377940Y2090826D01*
X6365443Y2090064D01*
X6356045Y2089251D01*
X6350050Y2088235D01*
X6348323Y2087727D01*
X6347510Y2087168D01*
X6347053Y2085390D01*
X6346952Y2082292D01*
X6347764Y2072792D01*
X6349695Y2060041D01*
X6352641Y2045309D01*
X6360922Y2008479D01*
X6537807Y2008632D01*
X6598259Y2009495D01*
X6620560Y2010156D01*
X6635750Y2010918D01*
X6640169Y2011324D01*
X6647383Y2013000D01*
X6652818Y2015083D01*
X6657949Y2017674D01*
X6662623Y2020773D01*
X6666890Y2024329D01*
X6670649Y2028291D01*
X6673951Y2032711D01*
X6676694Y2037435D01*
X6678930Y2042464D01*
X6680504Y2047798D01*
X6681520Y2053386D01*
X6681774Y2061362D01*
X6680200Y2075332D01*
X6676796Y2096211D01*
X6672072Y2122017D01*
X6666382Y2150668D01*
X6658508Y2187498D01*
X6652107Y2215337D01*
X6646113Y2239518D01*
X6641185Y2256586D01*
X6638645Y2263394D01*
X6635902Y2269896D01*
X6632803Y2276195D01*
X6629450Y2282190D01*
X6625894Y2287930D01*
X6622034Y2293315D01*
X6617970Y2298395D01*
X6613702Y2303170D01*
X6609181Y2307539D01*
X6604508Y2311552D01*
X6599681Y2315210D01*
X6594652Y2318461D01*
X6589522Y2321255D01*
X6584238Y2323642D01*
X6576466Y2326284D01*
X6571335Y2327554D01*
X6565392Y2328621D01*
X6558584Y2329535D01*
X6550659Y2330297D01*
X6530797Y2331364D01*
X6504533Y2331923D01*
G37*
G36*
X4348988Y2403856D02*
G01*
X4348988Y2335022D01*
X4343806Y2337562D01*
X4336796Y2340102D01*
X4332732Y2341321D01*
X4328414Y2342184D01*
X4323842Y2342743D01*
X4319016Y2342896D01*
X4312564Y2342591D01*
X4306519Y2341626D01*
X4300778Y2340051D01*
X4295394Y2337816D01*
X4290517Y2335022D01*
X4285996Y2331770D01*
X4281881Y2328062D01*
X4278122Y2323846D01*
X4274667Y2319070D01*
X4271721Y2313889D01*
X4269232Y2308250D01*
X4267200Y2302256D01*
X4264355Y2289200D01*
X4263390Y2274824D01*
X4287012Y2274824D01*
X4287520Y2284476D01*
X4289044Y2293620D01*
X4290212Y2297887D01*
X4291584Y2301900D01*
X4293260Y2305507D01*
X4295140Y2308860D01*
X4297426Y2311755D01*
X4300016Y2314397D01*
X4302912Y2316734D01*
X4306062Y2318766D01*
X4309516Y2320340D01*
X4313326Y2321407D01*
X4317390Y2322118D01*
X4321810Y2322322D01*
X4325823Y2322118D01*
X4329836Y2321509D01*
X4333697Y2320442D01*
X4337558Y2319020D01*
X4341114Y2317445D01*
X4344212Y2315768D01*
X4346854Y2314041D01*
X4348988Y2312162D01*
X4348988Y2229866D01*
X4343654Y2228697D01*
X4338320Y2227834D01*
X4333138Y2227275D01*
X4328160Y2227072D01*
X4310938Y2230069D01*
X4297934Y2239010D01*
X4293158Y2245715D01*
X4289755Y2253945D01*
X4287672Y2263648D01*
X4287012Y2274824D01*
X4263390Y2274824D01*
X4264456Y2259838D01*
X4267708Y2246376D01*
X4270197Y2240381D01*
X4273194Y2234844D01*
X4276547Y2229713D01*
X4280408Y2225040D01*
X4284675Y2220874D01*
X4289348Y2217216D01*
X4294479Y2214118D01*
X4299966Y2211578D01*
X4312056Y2207971D01*
X4325366Y2206752D01*
X4339996Y2207310D01*
X4352798Y2209038D01*
X4363720Y2211273D01*
X4372102Y2213356D01*
X4372102Y2400046D01*
G37*
G36*
X3088894Y2403856D02*
G01*
X3088894Y2285492D01*
X3050641Y2318816D01*
X3043478Y2325624D01*
X3036773Y2332532D01*
X3030474Y2339594D01*
X3003296Y2339594D01*
X3009595Y2332431D01*
X3016504Y2325166D01*
X3024073Y2317851D01*
X3057347Y2288235D01*
X3065526Y2281174D01*
X3057448Y2274824D01*
X3038906Y2258212D01*
X3029458Y2248662D01*
X3020314Y2238806D01*
X3011678Y2228596D01*
X3004108Y2218842D01*
X2998216Y2209800D01*
X3025648Y2209800D01*
X3031642Y2218588D01*
X3038856Y2227580D01*
X3046984Y2236520D01*
X3055620Y2245106D01*
X3064306Y2253183D01*
X3073146Y2260600D01*
X3088894Y2272284D01*
X3088894Y2209800D01*
X3112262Y2209800D01*
X3112262Y2400046D01*
G37*
G36*
X4893564Y2397506D02*
G01*
X4889906Y2397201D01*
X4886604Y2396236D01*
X4883556Y2394661D01*
X4880864Y2392426D01*
X4878628Y2389682D01*
X4877054Y2386431D01*
X4876088Y2382824D01*
X4875784Y2378710D01*
X4876088Y2374595D01*
X4877054Y2370988D01*
X4878628Y2367737D01*
X4880864Y2364994D01*
X4883556Y2362758D01*
X4886604Y2361184D01*
X4889906Y2360218D01*
X4893564Y2359914D01*
X4897120Y2360218D01*
X4900422Y2361184D01*
X4903470Y2362758D01*
X4906264Y2364994D01*
X4908600Y2367737D01*
X4910277Y2370937D01*
X4911242Y2374595D01*
X4911598Y2378710D01*
X4911242Y2382824D01*
X4910277Y2386431D01*
X4908600Y2389682D01*
X4906264Y2392426D01*
X4903470Y2394661D01*
X4900422Y2396236D01*
X4897120Y2397201D01*
G37*
G36*
X3773678Y2397506D02*
G01*
X3770020Y2397201D01*
X3766616Y2396236D01*
X3763518Y2394661D01*
X3760724Y2392426D01*
X3758488Y2389682D01*
X3756914Y2386431D01*
X3755948Y2382824D01*
X3755644Y2378710D01*
X3755948Y2374595D01*
X3756914Y2370988D01*
X3758488Y2367737D01*
X3760724Y2364994D01*
X3763518Y2362758D01*
X3766616Y2361184D01*
X3770020Y2360218D01*
X3773678Y2359914D01*
X3777132Y2360218D01*
X3780332Y2361184D01*
X3783329Y2362758D01*
X3786124Y2364994D01*
X3788460Y2367737D01*
X3790137Y2370937D01*
X3791102Y2374595D01*
X3791458Y2378710D01*
X3791102Y2382824D01*
X3790137Y2386431D01*
X3788460Y2389682D01*
X3786124Y2392426D01*
X3783329Y2394661D01*
X3780332Y2396236D01*
X3777132Y2397201D01*
G37*
G36*
X3493515Y2397506D02*
G01*
X3489858Y2397201D01*
X3486556Y2396236D01*
X3483508Y2394661D01*
X3480815Y2392426D01*
X3478580Y2389682D01*
X3477006Y2386431D01*
X3476040Y2382824D01*
X3475736Y2378710D01*
X3476040Y2374595D01*
X3477006Y2370988D01*
X3478580Y2367737D01*
X3480815Y2364994D01*
X3483508Y2362758D01*
X3486556Y2361184D01*
X3489858Y2360218D01*
X3493515Y2359914D01*
X3497072Y2360218D01*
X3500374Y2361184D01*
X3503422Y2362758D01*
X3506215Y2364994D01*
X3508552Y2367737D01*
X3510229Y2370937D01*
X3511194Y2374595D01*
X3511550Y2378710D01*
X3511194Y2382824D01*
X3510229Y2386431D01*
X3508552Y2389682D01*
X3506215Y2392426D01*
X3503422Y2394661D01*
X3500374Y2396236D01*
X3497072Y2397201D01*
G37*
G36*
X5322062Y2384806D02*
G01*
X5305856Y2383586D01*
X5290820Y2379980D01*
X5277358Y2373782D01*
X5265928Y2364740D01*
X5256479Y2352548D01*
X5249418Y2337308D01*
X5246776Y2328367D01*
X5244846Y2318613D01*
X5243728Y2308047D01*
X5243322Y2296668D01*
X5266944Y2296668D01*
X5267807Y2313127D01*
X5270296Y2327300D01*
X5274513Y2339035D01*
X5280406Y2348484D01*
X5287975Y2355697D01*
X5297170Y2360879D01*
X5308041Y2363978D01*
X5322316Y2364994D01*
X5331002Y2364536D01*
X5334000Y2363978D01*
X5334000Y2229104D01*
X5327040Y2228545D01*
X5319776Y2228342D01*
X5313629Y2228596D01*
X5307838Y2229307D01*
X5302453Y2230475D01*
X5297424Y2232152D01*
X5292699Y2234336D01*
X5288330Y2237028D01*
X5284419Y2240280D01*
X5280914Y2244090D01*
X5277713Y2248560D01*
X5274868Y2253589D01*
X5272481Y2259228D01*
X5270500Y2265426D01*
X5267858Y2279700D01*
X5266944Y2296668D01*
X5243322Y2296668D01*
X5243728Y2285085D01*
X5244846Y2274366D01*
X5246776Y2264613D01*
X5249418Y2255774D01*
X5256479Y2240534D01*
X5265928Y2228342D01*
X5277358Y2219350D01*
X5290820Y2213102D01*
X5305856Y2209495D01*
X5322062Y2208276D01*
X5339384Y2209342D01*
X5356860Y2212594D01*
X5356860Y2380488D01*
X5339384Y2383739D01*
G37*
G36*
X3922014Y2384806D02*
G01*
X3905808Y2383586D01*
X3890772Y2379980D01*
X3877310Y2373782D01*
X3865879Y2364740D01*
X3856532Y2352548D01*
X3849370Y2337308D01*
X3846728Y2328367D01*
X3844798Y2318613D01*
X3843680Y2308047D01*
X3843274Y2296668D01*
X3866896Y2296668D01*
X3867759Y2313127D01*
X3870248Y2327300D01*
X3874465Y2339035D01*
X3880358Y2348484D01*
X3888028Y2355697D01*
X3897274Y2360879D01*
X3908094Y2363978D01*
X3920490Y2364994D01*
X3930954Y2364536D01*
X3933951Y2363978D01*
X3933951Y2229104D01*
X3926992Y2228545D01*
X3919728Y2228342D01*
X3913581Y2228596D01*
X3907790Y2229307D01*
X3902405Y2230475D01*
X3897376Y2232152D01*
X3892651Y2234336D01*
X3888282Y2237028D01*
X3884371Y2240280D01*
X3880865Y2244090D01*
X3877665Y2248560D01*
X3874820Y2253589D01*
X3872433Y2259228D01*
X3870451Y2265426D01*
X3867810Y2279700D01*
X3866896Y2296668D01*
X3843274Y2296668D01*
X3843680Y2285085D01*
X3844798Y2274366D01*
X3846728Y2264613D01*
X3849370Y2255774D01*
X3856532Y2240534D01*
X3865879Y2228342D01*
X3877310Y2219350D01*
X3890772Y2213102D01*
X3905808Y2209495D01*
X3922014Y2208276D01*
X3939438Y2209342D01*
X3957065Y2212594D01*
X3957065Y2380488D01*
X3939438Y2383739D01*
G37*
G36*
X2374900Y2384806D02*
G01*
X2368651Y2384653D01*
X2362606Y2384247D01*
X2356713Y2383536D01*
X2351024Y2382520D01*
X2345537Y2381199D01*
X2340406Y2379472D01*
X2335733Y2377389D01*
X2331466Y2374900D01*
X2327503Y2372004D01*
X2324049Y2368753D01*
X2321052Y2365044D01*
X2318512Y2360930D01*
X2316530Y2356358D01*
X2315108Y2351227D01*
X2314244Y2345537D01*
X2313940Y2339340D01*
X2314030Y2337562D01*
X2336800Y2337562D01*
X2337003Y2341118D01*
X2337612Y2344420D01*
X2338679Y2347468D01*
X2340102Y2350262D01*
X2341778Y2352802D01*
X2343658Y2355138D01*
X2345842Y2357272D01*
X2348230Y2359152D01*
X2350770Y2360676D01*
X2353513Y2361946D01*
X2356459Y2362962D01*
X2363012Y2364384D01*
X2369972Y2365146D01*
X2377084Y2365248D01*
X2388819Y2364943D01*
X2393950Y2364486D01*
X2393950Y2309876D01*
X2372360Y2309977D01*
X2365400Y2310587D01*
X2361946Y2311146D01*
X2355240Y2313076D01*
X2352141Y2314295D01*
X2349246Y2315718D01*
X2346604Y2317394D01*
X2344216Y2319324D01*
X2342134Y2321560D01*
X2340356Y2324100D01*
X2338781Y2326944D01*
X2337714Y2330145D01*
X2337003Y2333650D01*
X2336800Y2337562D01*
X2314030Y2337562D01*
X2314448Y2333345D01*
X2315972Y2327656D01*
X2318207Y2322017D01*
X2319629Y2319324D01*
X2323134Y2314295D01*
X2327198Y2309825D01*
X2331770Y2306066D01*
X2336698Y2303272D01*
X2339340Y2302256D01*
X2326284Y2296617D01*
X2315464Y2287778D01*
X2308250Y2275789D01*
X2305854Y2260092D01*
X2328672Y2260092D01*
X2328875Y2264359D01*
X2329586Y2268220D01*
X2330653Y2271725D01*
X2332228Y2274824D01*
X2334158Y2277618D01*
X2336342Y2280107D01*
X2338832Y2282291D01*
X2341626Y2284222D01*
X2344572Y2285796D01*
X2347722Y2287168D01*
X2354834Y2289302D01*
X2362606Y2290470D01*
X2370582Y2290826D01*
X2393950Y2290826D01*
X2393950Y2228850D01*
X2387600Y2228088D01*
X2373376Y2227834D01*
X2364892Y2228138D01*
X2356612Y2229104D01*
X2352751Y2230018D01*
X2349144Y2231136D01*
X2345639Y2232507D01*
X2342388Y2234184D01*
X2339492Y2236266D01*
X2336850Y2238654D01*
X2334514Y2241346D01*
X2332482Y2244344D01*
X2330805Y2247595D01*
X2329637Y2251303D01*
X2328926Y2255469D01*
X2328672Y2260092D01*
X2305854Y2260092D01*
X2306828Y2248458D01*
X2309926Y2237841D01*
X2315108Y2228900D01*
X2322322Y2221484D01*
X2331821Y2215692D01*
X2343708Y2211578D01*
X2358085Y2209088D01*
X2374900Y2208276D01*
X2398776Y2209546D01*
X2407158Y2210562D01*
X2417064Y2212594D01*
X2417064Y2380488D01*
X2412492Y2381656D01*
X2407412Y2382520D01*
X2393340Y2384044D01*
X2382164Y2384653D01*
G37*
G36*
X2585466Y2383028D02*
G01*
X2585466Y2269490D01*
X2586228Y2255520D01*
X2588514Y2243074D01*
X2590393Y2237435D01*
X2592628Y2232304D01*
X2595321Y2227529D01*
X2598420Y2223262D01*
X2601976Y2219401D01*
X2606090Y2216048D01*
X2610764Y2213051D01*
X2615946Y2210562D01*
X2627833Y2207310D01*
X2642108Y2206244D01*
X2656382Y2207310D01*
X2668270Y2210562D01*
X2673350Y2213051D01*
X2677972Y2216048D01*
X2682138Y2219401D01*
X2685796Y2223262D01*
X2688894Y2227529D01*
X2691587Y2232253D01*
X2693822Y2237435D01*
X2695702Y2243074D01*
X2697988Y2255520D01*
X2698750Y2269490D01*
X2698750Y2383028D01*
X2675636Y2383028D01*
X2675636Y2272030D01*
X2675483Y2265680D01*
X2675077Y2259888D01*
X2674366Y2254656D01*
X2673350Y2249932D01*
X2672080Y2245715D01*
X2670505Y2242007D01*
X2668625Y2238756D01*
X2666492Y2235962D01*
X2664206Y2233472D01*
X2661716Y2231390D01*
X2659024Y2229662D01*
X2656078Y2228342D01*
X2652928Y2227326D01*
X2649524Y2226614D01*
X2645918Y2226208D01*
X2642108Y2226056D01*
X2638298Y2226208D01*
X2634691Y2226614D01*
X2631287Y2227326D01*
X2628138Y2228342D01*
X2625191Y2229662D01*
X2622499Y2231390D01*
X2620010Y2233472D01*
X2617724Y2235962D01*
X2615590Y2238756D01*
X2613710Y2242007D01*
X2612136Y2245715D01*
X2610866Y2249932D01*
X2609850Y2254656D01*
X2609138Y2259888D01*
X2608732Y2265680D01*
X2608580Y2272030D01*
X2608580Y2383028D01*
G37*
G36*
X2487168Y2383028D02*
G01*
X2479243Y2361895D01*
X2471674Y2339594D01*
X2464511Y2316784D01*
X2457704Y2294128D01*
X2452022Y2274316D01*
X2474722Y2274316D01*
X2481326Y2299004D01*
X2488438Y2322830D01*
X2495753Y2344521D01*
X2502408Y2362962D01*
X2509062Y2343962D01*
X2516378Y2322068D01*
X2523744Y2298547D01*
X2530602Y2274316D01*
X2452022Y2274316D01*
X2442413Y2239314D01*
X2434590Y2209800D01*
X2458974Y2209800D01*
X2469388Y2255266D01*
X2535936Y2255266D01*
X2546096Y2209800D01*
X2569464Y2209800D01*
X2564587Y2229104D01*
X2559050Y2249932D01*
X2546096Y2294128D01*
X2531872Y2339594D01*
X2524048Y2361895D01*
X2515870Y2383028D01*
G37*
G36*
X3344164Y2379980D02*
G01*
X3344164Y2339594D01*
X3289300Y2339594D01*
X3289300Y2320290D01*
X3344164Y2320290D01*
X3344062Y2255215D01*
X3343808Y2250998D01*
X3342640Y2243836D01*
X3341878Y2240940D01*
X3340862Y2238298D01*
X3339592Y2235962D01*
X3338068Y2233930D01*
X3336290Y2232202D01*
X3334308Y2230729D01*
X3332124Y2229662D01*
X3327095Y2228189D01*
X3320999Y2227427D01*
X3312668Y2227427D01*
X3308350Y2227783D01*
X3304540Y2228342D01*
X3301237Y2229104D01*
X3295294Y2231136D01*
X3289554Y2233676D01*
X3285998Y2214118D01*
X3291128Y2212086D01*
X3298444Y2209546D01*
X3303015Y2208326D01*
X3308096Y2207463D01*
X3313684Y2206904D01*
X3319779Y2206752D01*
X3326688Y2206955D01*
X3332937Y2207564D01*
X3338474Y2208631D01*
X3343401Y2210054D01*
X3347821Y2211933D01*
X3351733Y2214270D01*
X3355086Y2217013D01*
X3357879Y2220214D01*
X3360318Y2223719D01*
X3362350Y2227630D01*
X3363874Y2231999D01*
X3364992Y2236724D01*
X3365906Y2241956D01*
X3366922Y2253538D01*
X3367024Y2320290D01*
X3394456Y2320290D01*
X3394456Y2339594D01*
X3367024Y2339594D01*
X3367024Y2376170D01*
G37*
G36*
X5159502Y2342896D02*
G01*
X5147157Y2341880D01*
X5136286Y2338781D01*
X5126837Y2333599D01*
X5118862Y2326386D01*
X5112664Y2317191D01*
X5108194Y2305812D01*
X5105552Y2292299D01*
X5105259Y2287270D01*
X5128260Y2287270D01*
X5130444Y2302052D01*
X5136896Y2313432D01*
X5146954Y2320645D01*
X5159756Y2323084D01*
X5163718Y2322880D01*
X5167528Y2322322D01*
X5171084Y2321356D01*
X5174488Y2320036D01*
X5177688Y2318410D01*
X5180634Y2316480D01*
X5183378Y2314295D01*
X5185918Y2311908D01*
X5188204Y2309368D01*
X5190236Y2306624D01*
X5192014Y2303678D01*
X5194808Y2297277D01*
X5195824Y2294026D01*
X5196586Y2290673D01*
X5197094Y2287270D01*
X5105259Y2287270D01*
X5104638Y2276602D01*
X5104638Y2268474D01*
X5197602Y2268474D01*
X5193690Y2250846D01*
X5184394Y2237994D01*
X5170068Y2230018D01*
X5150866Y2227326D01*
X5144973Y2227427D01*
X5134457Y2228443D01*
X5125720Y2230374D01*
X5119268Y2232558D01*
X5116830Y2233676D01*
X5113782Y2214118D01*
X5116220Y2212949D01*
X5123738Y2210562D01*
X5128768Y2209292D01*
X5134406Y2208174D01*
X5140401Y2207361D01*
X5146700Y2206904D01*
X5153406Y2206752D01*
X5169154Y2208022D01*
X5182870Y2211832D01*
X5194706Y2218029D01*
X5204206Y2226056D01*
X5208117Y2230729D01*
X5211521Y2235809D01*
X5214366Y2241397D01*
X5216652Y2247392D01*
X5219903Y2260396D01*
X5220970Y2274570D01*
X5219649Y2290775D01*
X5215636Y2304796D01*
X5209489Y2316429D01*
X5201666Y2325878D01*
X5197094Y2329891D01*
X5192268Y2333345D01*
X5187188Y2336241D01*
X5181854Y2338578D01*
X5176367Y2340457D01*
X5170830Y2341829D01*
X5165191Y2342642D01*
G37*
G36*
X5018532Y2342896D02*
G01*
X5007660Y2342489D01*
X4996434Y2341372D01*
X4986020Y2339492D01*
X4977130Y2337308D01*
X4981194Y2316480D01*
X4987290Y2318766D01*
X4991608Y2319985D01*
X5001514Y2321966D01*
X5007102Y2322576D01*
X5018278Y2323084D01*
X5031486Y2322068D01*
X5040934Y2318969D01*
X5046624Y2313787D01*
X5048504Y2306574D01*
X5048148Y2303780D01*
X5047030Y2301189D01*
X5045202Y2298801D01*
X5042662Y2296668D01*
X5039563Y2294686D01*
X5032349Y2290978D01*
X5004511Y2280564D01*
X4995265Y2276246D01*
X4986629Y2271217D01*
X4982768Y2268372D01*
X4979365Y2265121D01*
X4976368Y2261616D01*
X4973828Y2257806D01*
X4971999Y2253538D01*
X4970881Y2248814D01*
X4970526Y2243582D01*
X4973980Y2228037D01*
X4984242Y2216404D01*
X4992116Y2212187D01*
X5001971Y2209190D01*
X5013807Y2207361D01*
X5027676Y2206752D01*
X5034280Y2206904D01*
X5040579Y2207310D01*
X5046573Y2208022D01*
X5052314Y2209038D01*
X5057851Y2210308D01*
X5063236Y2211832D01*
X5068519Y2213610D01*
X5073650Y2215642D01*
X5069078Y2236724D01*
X5064150Y2234539D01*
X5059121Y2232609D01*
X5048504Y2229358D01*
X5043068Y2228037D01*
X5037378Y2227072D01*
X5031486Y2226513D01*
X5025390Y2226310D01*
X5011623Y2227326D01*
X5001768Y2230323D01*
X4995875Y2235301D01*
X4993894Y2242312D01*
X4994249Y2245614D01*
X4995316Y2248611D01*
X4997043Y2251303D01*
X4999482Y2253742D01*
X5002580Y2255926D01*
X5006035Y2258009D01*
X5009794Y2259888D01*
X5018278Y2263292D01*
X5037480Y2269947D01*
X5042204Y2271826D01*
X5051044Y2276094D01*
X5055158Y2278634D01*
X5058918Y2281478D01*
X5062270Y2284628D01*
X5065268Y2288032D01*
X5067808Y2291740D01*
X5069636Y2295956D01*
X5070754Y2300732D01*
X5071110Y2306066D01*
X5067960Y2320493D01*
X5058410Y2332228D01*
X5051145Y2336901D01*
X5042103Y2340203D01*
X5031232Y2342235D01*
G37*
G36*
X4740656Y2342896D02*
G01*
X4725111Y2342235D01*
X4711954Y2340356D01*
X4700981Y2338070D01*
X4691888Y2335784D01*
X4691888Y2243328D01*
X4715256Y2243328D01*
X4715256Y2319274D01*
X4719218Y2320290D01*
X4724400Y2321306D01*
X4731308Y2322068D01*
X4740402Y2322322D01*
X4756302Y2319274D01*
X4767834Y2310130D01*
X4774692Y2295702D01*
X4776978Y2277364D01*
X4776825Y2271979D01*
X4776368Y2266950D01*
X4775555Y2262327D01*
X4774438Y2258060D01*
X4773015Y2254300D01*
X4771339Y2250795D01*
X4769358Y2247696D01*
X4767072Y2244852D01*
X4764684Y2242464D01*
X4762195Y2240483D01*
X4759502Y2238806D01*
X4753660Y2236368D01*
X4750562Y2235555D01*
X4747310Y2235098D01*
X4743958Y2234946D01*
X4739690Y2235098D01*
X4735576Y2235555D01*
X4731562Y2236368D01*
X4727702Y2237486D01*
X4720793Y2240229D01*
X4717846Y2241702D01*
X4715256Y2243328D01*
X4691888Y2243328D01*
X4691888Y2219960D01*
X4692853Y2205888D01*
X4695698Y2193950D01*
X4700473Y2184044D01*
X4707128Y2176272D01*
X4715814Y2170379D01*
X4726432Y2166162D01*
X4738928Y2163673D01*
X4753356Y2162810D01*
X4765294Y2163318D01*
X4776216Y2164842D01*
X4785817Y2166874D01*
X4794250Y2169414D01*
X4789932Y2189988D01*
X4782261Y2187194D01*
X4773422Y2184908D01*
X4763566Y2183384D01*
X4758334Y2182977D01*
X4752848Y2182876D01*
X4735474Y2184908D01*
X4723892Y2191004D01*
X4717440Y2201672D01*
X4715256Y2217420D01*
X4715256Y2221738D01*
X4720132Y2219604D01*
X4727194Y2217166D01*
X4731410Y2216048D01*
X4735982Y2215286D01*
X4740808Y2214778D01*
X4745990Y2214626D01*
X4751628Y2214880D01*
X4757064Y2215591D01*
X4762296Y2216759D01*
X4767326Y2218436D01*
X4772253Y2220569D01*
X4776774Y2223211D01*
X4780991Y2226310D01*
X4784852Y2229866D01*
X4788357Y2233930D01*
X4791456Y2238552D01*
X4794199Y2243734D01*
X4796536Y2249424D01*
X4799787Y2262428D01*
X4800854Y2277618D01*
X4799838Y2291283D01*
X4796790Y2303780D01*
X4794554Y2309520D01*
X4791862Y2314905D01*
X4788712Y2319832D01*
X4785106Y2324354D01*
X4781042Y2328418D01*
X4776520Y2332024D01*
X4771542Y2335174D01*
X4766056Y2337816D01*
X4754118Y2341626D01*
G37*
G36*
X3620770Y2342896D02*
G01*
X3605225Y2342235D01*
X3592068Y2340356D01*
X3581095Y2338070D01*
X3572001Y2335784D01*
X3572001Y2243328D01*
X3595115Y2243328D01*
X3595115Y2319274D01*
X3604514Y2321306D01*
X3611422Y2322068D01*
X3620515Y2322322D01*
X3636213Y2319274D01*
X3647694Y2310130D01*
X3654755Y2295702D01*
X3657092Y2277364D01*
X3656939Y2271979D01*
X3656482Y2266950D01*
X3655669Y2262327D01*
X3654551Y2258060D01*
X3653028Y2254300D01*
X3651300Y2250795D01*
X3649370Y2247696D01*
X3647186Y2244852D01*
X3644798Y2242464D01*
X3642309Y2240483D01*
X3639616Y2238806D01*
X3636772Y2237486D01*
X3633673Y2236368D01*
X3630574Y2235555D01*
X3627323Y2235098D01*
X3624072Y2234946D01*
X3619804Y2235098D01*
X3615639Y2235555D01*
X3611524Y2236368D01*
X3607562Y2237486D01*
X3600653Y2240229D01*
X3597706Y2241702D01*
X3595115Y2243328D01*
X3572001Y2243328D01*
X3572001Y2219960D01*
X3572967Y2205888D01*
X3575812Y2193950D01*
X3580587Y2184044D01*
X3587242Y2176272D01*
X3595827Y2170379D01*
X3606342Y2166162D01*
X3618839Y2163673D01*
X3633215Y2162810D01*
X3645306Y2163318D01*
X3656076Y2164842D01*
X3665677Y2166874D01*
X3674110Y2169414D01*
X3670046Y2189988D01*
X3662172Y2187194D01*
X3653282Y2184908D01*
X3643426Y2183384D01*
X3638194Y2182977D01*
X3632708Y2182876D01*
X3615486Y2184908D01*
X3604006Y2191004D01*
X3597351Y2201672D01*
X3595115Y2217420D01*
X3595115Y2221738D01*
X3600196Y2219604D01*
X3607308Y2217166D01*
X3611524Y2216048D01*
X3616096Y2215286D01*
X3620922Y2214778D01*
X3626104Y2214626D01*
X3631742Y2214880D01*
X3637178Y2215591D01*
X3642410Y2216759D01*
X3647440Y2218436D01*
X3652215Y2220569D01*
X3656736Y2223211D01*
X3660851Y2226310D01*
X3664712Y2229866D01*
X3668318Y2233930D01*
X3671519Y2238552D01*
X3674262Y2243734D01*
X3676650Y2249424D01*
X3679901Y2262428D01*
X3680968Y2277618D01*
X3679951Y2291283D01*
X3676904Y2303780D01*
X3674618Y2309520D01*
X3671874Y2314905D01*
X3668674Y2319832D01*
X3664965Y2324354D01*
X3660952Y2328418D01*
X3656482Y2332024D01*
X3651554Y2335174D01*
X3646170Y2337816D01*
X3634232Y2341626D01*
G37*
G36*
X3199638Y2342896D02*
G01*
X3187192Y2341880D01*
X3176270Y2338781D01*
X3166872Y2333599D01*
X3158998Y2326386D01*
X3152800Y2317191D01*
X3148330Y2305812D01*
X3145688Y2292299D01*
X3145395Y2287270D01*
X3168142Y2287270D01*
X3170326Y2302052D01*
X3176778Y2313432D01*
X3186988Y2320645D01*
X3199892Y2323084D01*
X3203854Y2322880D01*
X3207664Y2322322D01*
X3211220Y2321356D01*
X3214624Y2320036D01*
X3217824Y2318410D01*
X3220720Y2316480D01*
X3223412Y2314295D01*
X3228086Y2309368D01*
X3230118Y2306624D01*
X3231896Y2303678D01*
X3234690Y2297277D01*
X3235706Y2294026D01*
X3236468Y2290673D01*
X3236976Y2287270D01*
X3145395Y2287270D01*
X3144774Y2276602D01*
X3144774Y2268474D01*
X3237738Y2268474D01*
X3233623Y2250846D01*
X3224276Y2237994D01*
X3210001Y2230018D01*
X3191002Y2227326D01*
X3185007Y2227427D01*
X3174492Y2228443D01*
X3165856Y2230374D01*
X3159252Y2232558D01*
X3156712Y2233676D01*
X3153664Y2214118D01*
X3156254Y2212949D01*
X3163874Y2210562D01*
X3168904Y2209292D01*
X3174542Y2208174D01*
X3180537Y2207361D01*
X3186836Y2206904D01*
X3193542Y2206752D01*
X3209290Y2208022D01*
X3223006Y2211832D01*
X3234639Y2218029D01*
X3244088Y2226056D01*
X3248050Y2230729D01*
X3251453Y2235809D01*
X3254400Y2241397D01*
X3256788Y2247392D01*
X3259836Y2260396D01*
X3260852Y2274570D01*
X3259531Y2290775D01*
X3255517Y2304796D01*
X3249371Y2316429D01*
X3241548Y2325878D01*
X3237077Y2329891D01*
X3232353Y2333345D01*
X3227324Y2336241D01*
X3221990Y2338578D01*
X3216503Y2340457D01*
X3210966Y2341829D01*
X3205327Y2342642D01*
G37*
G36*
X2923032Y2342896D02*
G01*
X2915970Y2342642D01*
X2909519Y2341930D01*
X2903626Y2340762D01*
X2898394Y2339086D01*
X2893669Y2337155D01*
X2889453Y2334818D01*
X2885694Y2332177D01*
X2882392Y2329180D01*
X2879547Y2325725D01*
X2877210Y2321915D01*
X2875229Y2317851D01*
X2873756Y2313432D01*
X2872638Y2308656D01*
X2871876Y2303729D01*
X2871368Y2298598D01*
X2871216Y2293366D01*
X2871216Y2228342D01*
X2893822Y2228342D01*
X2893822Y2266950D01*
X2898800Y2268169D01*
X2904490Y2269236D01*
X2911043Y2269794D01*
X2917952Y2269998D01*
X2924251Y2269744D01*
X2930398Y2268982D01*
X2936290Y2267610D01*
X2941320Y2265426D01*
X2945688Y2262530D01*
X2947568Y2260752D01*
X2949194Y2258822D01*
X2950514Y2256637D01*
X2951480Y2254250D01*
X2952038Y2251557D01*
X2952242Y2248662D01*
X2951734Y2242921D01*
X2950159Y2238044D01*
X2947517Y2234133D01*
X2943860Y2231136D01*
X2939186Y2229002D01*
X2933750Y2227529D01*
X2927604Y2226614D01*
X2920746Y2226310D01*
X2905252Y2226818D01*
X2898952Y2227427D01*
X2893822Y2228342D01*
X2871216Y2228342D01*
X2871216Y2212086D01*
X2892552Y2208784D01*
X2906014Y2207260D01*
X2919984Y2206752D01*
X2930347Y2207209D01*
X2940558Y2208530D01*
X2945485Y2209596D01*
X2950159Y2211019D01*
X2954528Y2212746D01*
X2958592Y2214880D01*
X2962300Y2217521D01*
X2965653Y2220518D01*
X2968548Y2223973D01*
X2971038Y2227834D01*
X2973171Y2232152D01*
X2974644Y2237028D01*
X2975559Y2242464D01*
X2975864Y2248408D01*
X2975559Y2253792D01*
X2974644Y2258771D01*
X2973171Y2263292D01*
X2971038Y2267458D01*
X2968345Y2271115D01*
X2965348Y2274366D01*
X2961995Y2277313D01*
X2958338Y2279904D01*
X2954375Y2282037D01*
X2950159Y2283917D01*
X2945638Y2285492D01*
X2940812Y2286762D01*
X2935833Y2287676D01*
X2925826Y2288692D01*
X2920746Y2288794D01*
X2907182Y2288032D01*
X2893822Y2285746D01*
X2893923Y2294991D01*
X2894533Y2300732D01*
X2895854Y2306167D01*
X2896920Y2308656D01*
X2898292Y2311095D01*
X2899918Y2313432D01*
X2901746Y2315565D01*
X2903931Y2317496D01*
X2906420Y2319172D01*
X2909316Y2320544D01*
X2912567Y2321661D01*
X2916224Y2322474D01*
X2920339Y2322931D01*
X2924810Y2323084D01*
X2936189Y2322728D01*
X2945892Y2321560D01*
X2953766Y2319832D01*
X2959608Y2318258D01*
X2962402Y2337308D01*
X2959608Y2338324D01*
X2951734Y2340203D01*
X2940964Y2341880D01*
X2929178Y2342794D01*
G37*
G36*
X4603750Y2342642D02*
G01*
X4591558Y2341778D01*
X4580940Y2339289D01*
X4571898Y2335072D01*
X4564380Y2329180D01*
X4558588Y2321407D01*
X4554474Y2311654D01*
X4551984Y2299868D01*
X4551172Y2286000D01*
X4551172Y2209800D01*
X4574032Y2209800D01*
X4574032Y2281682D01*
X4574184Y2287727D01*
X4574590Y2293162D01*
X4575302Y2298039D01*
X4576318Y2302256D01*
X4577588Y2305964D01*
X4579061Y2309215D01*
X4580737Y2312060D01*
X4582668Y2314448D01*
X4584801Y2316429D01*
X4587138Y2318054D01*
X4589627Y2319375D01*
X4595317Y2321052D01*
X4601667Y2321966D01*
X4607864Y2322017D01*
X4613706Y2321661D01*
X4625949Y2320137D01*
X4628896Y2319528D01*
X4628896Y2209800D01*
X4652264Y2209800D01*
X4652264Y2336038D01*
X4639614Y2338781D01*
X4627118Y2340864D01*
X4615078Y2342184D01*
G37*
G36*
X4876546Y2339594D02*
G01*
X4876546Y2259838D01*
X4875225Y2243734D01*
X4871212Y2233930D01*
X4868214Y2231034D01*
X4864557Y2229002D01*
X4860188Y2227732D01*
X4855210Y2227326D01*
X4851247Y2227427D01*
X4843729Y2228443D01*
X4836972Y2230374D01*
X4831638Y2232558D01*
X4829556Y2233676D01*
X4826000Y2214118D01*
X4830826Y2211832D01*
X4834128Y2210612D01*
X4842256Y2208377D01*
X4847082Y2207514D01*
X4852060Y2206955D01*
X4857242Y2206752D01*
X4863084Y2206955D01*
X4868418Y2207564D01*
X4873244Y2208631D01*
X4877562Y2210054D01*
X4881422Y2211933D01*
X4884877Y2214270D01*
X4887874Y2217013D01*
X4890516Y2220214D01*
X4892852Y2223719D01*
X4894783Y2227630D01*
X4896256Y2231999D01*
X4897374Y2236724D01*
X4898288Y2241956D01*
X4899304Y2253538D01*
X4899406Y2320290D01*
X4936998Y2320290D01*
X4936998Y2339594D01*
G37*
G36*
X4122928Y2339594D02*
G01*
X4129227Y2315616D01*
X4135932Y2292197D01*
X4142994Y2269236D01*
X4150563Y2246985D01*
X4158437Y2225903D01*
X4166615Y2205990D01*
X4169054Y2200503D01*
X4171645Y2195423D01*
X4174286Y2190851D01*
X4179773Y2182774D01*
X4182618Y2179269D01*
X4185615Y2176068D01*
X4188714Y2173224D01*
X4192117Y2170734D01*
X4195724Y2168601D01*
X4199483Y2166772D01*
X4203446Y2165350D01*
X4207662Y2164232D01*
X4212082Y2163419D01*
X4216806Y2162962D01*
X4224477Y2162911D01*
X4230319Y2163521D01*
X4236364Y2164791D01*
X4242054Y2166620D01*
X4237736Y2185416D01*
X4234688Y2184196D01*
X4230624Y2183130D01*
X4226255Y2182571D01*
X4222242Y2182368D01*
X4215739Y2182774D01*
X4209999Y2183892D01*
X4204970Y2185822D01*
X4200652Y2188464D01*
X4196943Y2191867D01*
X4193336Y2196287D01*
X4189933Y2201672D01*
X4186682Y2208022D01*
X4196791Y2228291D01*
X4206544Y2249576D01*
X4215892Y2271776D01*
X4220362Y2283104D01*
X4228490Y2305761D01*
X4235602Y2328316D01*
X4238752Y2339594D01*
X4213352Y2339594D01*
X4207002Y2315464D01*
X4202938Y2302306D01*
X4193438Y2275027D01*
X4188206Y2261108D01*
X4182516Y2247646D01*
X4176522Y2234692D01*
X4172153Y2247493D01*
X4164279Y2272792D01*
X4157472Y2298395D01*
X4147058Y2339594D01*
G37*
G36*
X3756406Y2339594D02*
G01*
X3756406Y2259838D01*
X3755085Y2243734D01*
X3751072Y2233930D01*
X3748074Y2231034D01*
X3744468Y2229002D01*
X3740200Y2227732D01*
X3735324Y2227326D01*
X3731361Y2227427D01*
X3723843Y2228443D01*
X3717086Y2230374D01*
X3711600Y2232558D01*
X3709415Y2233676D01*
X3706114Y2214118D01*
X3710940Y2211832D01*
X3714242Y2210612D01*
X3722319Y2208377D01*
X3726942Y2207514D01*
X3731920Y2206955D01*
X3737101Y2206752D01*
X3743045Y2206955D01*
X3748481Y2207564D01*
X3753358Y2208631D01*
X3757676Y2210054D01*
X3761536Y2211933D01*
X3764991Y2214270D01*
X3767988Y2217013D01*
X3770629Y2220214D01*
X3772865Y2223719D01*
X3774744Y2227630D01*
X3776319Y2231999D01*
X3777487Y2236724D01*
X3778402Y2241956D01*
X3779418Y2253538D01*
X3779520Y2320290D01*
X3816858Y2320290D01*
X3816858Y2339594D01*
G37*
G36*
X3476498Y2339594D02*
G01*
X3476498Y2259838D01*
X3475177Y2243734D01*
X3471164Y2233930D01*
X3468166Y2231034D01*
X3464509Y2229002D01*
X3460140Y2227732D01*
X3455162Y2227326D01*
X3451199Y2227427D01*
X3443681Y2228443D01*
X3436924Y2230374D01*
X3431590Y2232558D01*
X3429508Y2233676D01*
X3426206Y2214118D01*
X3430778Y2211832D01*
X3434079Y2210612D01*
X3442208Y2208377D01*
X3447034Y2207514D01*
X3452012Y2206955D01*
X3457194Y2206752D01*
X3463036Y2206955D01*
X3468370Y2207564D01*
X3473196Y2208631D01*
X3477514Y2210054D01*
X3481374Y2211933D01*
X3484879Y2214270D01*
X3487978Y2217013D01*
X3490722Y2220214D01*
X3492957Y2223719D01*
X3494836Y2227630D01*
X3496411Y2231999D01*
X3497579Y2236724D01*
X3498900Y2247595D01*
X3499256Y2253538D01*
X3499358Y2320290D01*
X3536950Y2320290D01*
X3536950Y2339594D01*
G37*
G36*
X3369056Y2124456D02*
G01*
X3369056Y2055622D01*
X3363874Y2058162D01*
X3356864Y2060702D01*
X3352698Y2061921D01*
X3348329Y2062784D01*
X3343808Y2063343D01*
X3339084Y2063496D01*
X3332632Y2063191D01*
X3326587Y2062225D01*
X3320846Y2060651D01*
X3315462Y2058416D01*
X3310483Y2055622D01*
X3305860Y2052370D01*
X3301695Y2048662D01*
X3297936Y2044446D01*
X3294583Y2039670D01*
X3291636Y2034489D01*
X3289147Y2028850D01*
X3287014Y2022856D01*
X3284169Y2009800D01*
X3283204Y1995424D01*
X3307079Y1995424D01*
X3307181Y2000300D01*
X3308197Y2009698D01*
X3310178Y2018487D01*
X3311550Y2022500D01*
X3313226Y2026107D01*
X3315208Y2029460D01*
X3317392Y2032355D01*
X3319881Y2034997D01*
X3322726Y2037334D01*
X3325876Y2039366D01*
X3329330Y2040940D01*
X3333191Y2042007D01*
X3337356Y2042718D01*
X3341878Y2042922D01*
X3345891Y2042718D01*
X3349802Y2042109D01*
X3353663Y2041042D01*
X3360978Y2038045D01*
X3366820Y2034641D01*
X3369056Y2032762D01*
X3369056Y1950466D01*
X3363722Y1949297D01*
X3358387Y1948434D01*
X3353206Y1947875D01*
X3348228Y1947672D01*
X3331006Y1950669D01*
X3318001Y1959610D01*
X3313226Y1966315D01*
X3309823Y1974545D01*
X3307740Y1984248D01*
X3307079Y1995424D01*
X3283204Y1995424D01*
X3284372Y1980438D01*
X3287776Y1966975D01*
X3290163Y1960981D01*
X3293059Y1955444D01*
X3296412Y1950313D01*
X3300222Y1945639D01*
X3304489Y1941474D01*
X3309213Y1937816D01*
X3314395Y1934718D01*
X3320034Y1932178D01*
X3332073Y1928571D01*
X3345434Y1927352D01*
X3360013Y1927910D01*
X3372865Y1929638D01*
X3383686Y1931873D01*
X3392170Y1933956D01*
X3392170Y2120646D01*
G37*
G36*
X4586986Y2107692D02*
G01*
X4581753Y2107539D01*
X4576521Y2106980D01*
X4571238Y2106117D01*
X4565904Y2104898D01*
X4560468Y2103272D01*
X4555134Y2101138D01*
X4549800Y2098548D01*
X4544568Y2095500D01*
X4551426Y2076450D01*
X4569307Y2084476D01*
X4585970Y2087118D01*
X4591659Y2086813D01*
X4596993Y2085898D01*
X4602073Y2084425D01*
X4606798Y2082292D01*
X4611116Y2079599D01*
X4615129Y2076297D01*
X4618837Y2072487D01*
X4622292Y2068068D01*
X4625289Y2063242D01*
X4627930Y2057958D01*
X4630267Y2052218D01*
X4632198Y2045970D01*
X4634890Y2032457D01*
X4635754Y2017268D01*
X4634788Y2000453D01*
X4631944Y1986025D01*
X4629861Y1979777D01*
X4627372Y1974088D01*
X4624527Y1968855D01*
X4621276Y1964182D01*
X4617821Y1960168D01*
X4613960Y1956663D01*
X4609795Y1953818D01*
X4605274Y1951482D01*
X4600498Y1949602D01*
X4595469Y1948230D01*
X4590338Y1947418D01*
X4584954Y1947164D01*
X4580839Y1947265D01*
X4572355Y1948281D01*
X4567936Y1949196D01*
X4563465Y1950516D01*
X4558842Y1952243D01*
X4554169Y1954326D01*
X4549394Y1956816D01*
X4543298Y1937766D01*
X4548225Y1935124D01*
X4553305Y1932889D01*
X4558639Y1930958D01*
X4564126Y1929384D01*
X4569815Y1928266D01*
X4575606Y1927504D01*
X4581601Y1926996D01*
X4587748Y1926843D01*
X4602581Y1928164D01*
X4616196Y1932178D01*
X4628337Y1939086D01*
X4638802Y1948688D01*
X4647234Y1961337D01*
X4653788Y1976882D01*
X4656124Y1985772D01*
X4657801Y1995474D01*
X4658766Y2005990D01*
X4659122Y2017268D01*
X4658766Y2027986D01*
X4657750Y2038045D01*
X4655972Y2047392D01*
X4653534Y2056130D01*
X4646676Y2071573D01*
X4637786Y2084324D01*
X4627270Y2094433D01*
X4614926Y2101850D01*
X4601311Y2106218D01*
G37*
G36*
X3761994Y2107692D02*
G01*
X3749090Y2106218D01*
X3737711Y2101850D01*
X3728008Y2094534D01*
X3719829Y2084324D01*
X3715258Y2075992D01*
X3711498Y2066493D01*
X3708603Y2055875D01*
X3706520Y2044141D01*
X3705250Y2031288D01*
X3704844Y2017268D01*
X3728465Y2017268D01*
X3728923Y2031136D01*
X3730244Y2044192D01*
X3731158Y2050338D01*
X3732377Y2056130D01*
X3733952Y2061514D01*
X3735832Y2066543D01*
X3737914Y2071014D01*
X3740251Y2074976D01*
X3742994Y2078482D01*
X3745992Y2081530D01*
X3749446Y2083968D01*
X3753307Y2085746D01*
X3757472Y2086762D01*
X3761994Y2087118D01*
X3766616Y2086762D01*
X3770833Y2085695D01*
X3774592Y2083968D01*
X3777996Y2081530D01*
X3781044Y2078482D01*
X3783787Y2074976D01*
X3786225Y2071014D01*
X3788410Y2066543D01*
X3790187Y2061514D01*
X3791712Y2056130D01*
X3792982Y2050338D01*
X3793998Y2044192D01*
X3795318Y2031136D01*
X3795776Y2017268D01*
X3795318Y2003348D01*
X3793998Y1990089D01*
X3792982Y1983943D01*
X3791712Y1978202D01*
X3790187Y1972919D01*
X3788410Y1967992D01*
X3786225Y1963420D01*
X3783787Y1959356D01*
X3781044Y1955800D01*
X3777996Y1952752D01*
X3774592Y1950313D01*
X3770833Y1948586D01*
X3766616Y1947519D01*
X3761994Y1947164D01*
X3757472Y1947519D01*
X3753307Y1948586D01*
X3749446Y1950313D01*
X3745992Y1952752D01*
X3742994Y1955800D01*
X3740251Y1959356D01*
X3737914Y1963420D01*
X3735832Y1967992D01*
X3733952Y1972919D01*
X3732377Y1978202D01*
X3731158Y1983943D01*
X3730244Y1990089D01*
X3728923Y2003348D01*
X3728465Y2017268D01*
X3704844Y2017268D01*
X3705250Y2003247D01*
X3706520Y1990394D01*
X3708603Y1978660D01*
X3711498Y1968042D01*
X3715258Y1958543D01*
X3719829Y1950212D01*
X3728008Y1940001D01*
X3737711Y1932686D01*
X3749090Y1928317D01*
X3761994Y1926843D01*
X3774795Y1928317D01*
X3786124Y1932686D01*
X3795928Y1940001D01*
X3804158Y1950212D01*
X3808729Y1958543D01*
X3812489Y1968042D01*
X3815384Y1978660D01*
X3817467Y1990394D01*
X3818737Y2003247D01*
X3819144Y2017268D01*
X3818737Y2031288D01*
X3817467Y2044141D01*
X3815384Y2055875D01*
X3812489Y2066493D01*
X3808729Y2075992D01*
X3804158Y2084324D01*
X3795928Y2094534D01*
X3786124Y2101850D01*
X3774795Y2106218D01*
G37*
G36*
X3627628Y2107692D02*
G01*
X3614928Y2106930D01*
X3604006Y2104593D01*
X3594862Y2100681D01*
X3587496Y2095246D01*
X3581806Y2088337D01*
X3577793Y2080056D01*
X3575354Y2070455D01*
X3574542Y2059432D01*
X3574745Y2055012D01*
X3575354Y2050694D01*
X3576421Y2046376D01*
X3577844Y2042160D01*
X3581958Y2033828D01*
X3584448Y2029714D01*
X3590137Y2021586D01*
X3596640Y2013610D01*
X3607612Y2001824D01*
X3627577Y1981301D01*
X3632911Y1975205D01*
X3637940Y1969007D01*
X3642106Y1963064D01*
X3643884Y1960118D01*
X3646373Y1954631D01*
X3646982Y1952193D01*
X3647186Y1949957D01*
X3567429Y1949957D01*
X3567429Y1930400D01*
X3672332Y1930400D01*
X3672738Y1931924D01*
X3672840Y1936242D01*
X3672586Y1941982D01*
X3671824Y1947570D01*
X3670554Y1952904D01*
X3668776Y1958086D01*
X3666693Y1963064D01*
X3664356Y1967941D01*
X3661613Y1972614D01*
X3655466Y1981555D01*
X3648608Y1990039D01*
X3644900Y1994154D01*
X3614877Y2024634D01*
X3609797Y2030577D01*
X3605529Y2036470D01*
X3602075Y2042566D01*
X3599484Y2048814D01*
X3598621Y2052015D01*
X3598062Y2055266D01*
X3597910Y2058670D01*
X3598062Y2062327D01*
X3598519Y2065731D01*
X3599332Y2068830D01*
X3601720Y2074164D01*
X3603193Y2076450D01*
X3604869Y2078482D01*
X3608933Y2081936D01*
X3611168Y2083358D01*
X3616198Y2085593D01*
X3621735Y2086762D01*
X3627628Y2087118D01*
X3631234Y2087016D01*
X3637838Y2086102D01*
X3640836Y2085339D01*
X3646576Y2083104D01*
X3651504Y2080514D01*
X3655923Y2077720D01*
X3662527Y2072589D01*
X3664712Y2070607D01*
X3676142Y2086864D01*
X3673297Y2089657D01*
X3666998Y2094839D01*
X3661664Y2098243D01*
X3655364Y2101392D01*
X3648252Y2104186D01*
X3640378Y2106422D01*
X3636264Y2107133D01*
X3631996Y2107539D01*
G37*
G36*
X4746244Y2105406D02*
G01*
X4731766Y2104440D01*
X4719320Y2101596D01*
X4713732Y2099360D01*
X4708652Y2096770D01*
X4704080Y2093772D01*
X4700016Y2090420D01*
X4696307Y2086711D01*
X4693158Y2082596D01*
X4690465Y2078177D01*
X4688332Y2073402D01*
X4686757Y2068423D01*
X4685639Y2063140D01*
X4684979Y2057501D01*
X4684833Y2050796D01*
X4708144Y2050796D01*
X4709160Y2061413D01*
X4712157Y2070150D01*
X4717237Y2076907D01*
X4724298Y2081733D01*
X4733391Y2084628D01*
X4744466Y2085593D01*
X4764481Y2085136D01*
X4768596Y2084578D01*
X4768596Y2014728D01*
X4749546Y2014728D01*
X4731308Y2016810D01*
X4718304Y2023110D01*
X4710684Y2034235D01*
X4708144Y2050796D01*
X4684833Y2050796D01*
X4685741Y2038756D01*
X4688738Y2027529D01*
X4693615Y2017928D01*
X4700524Y2009902D01*
X4709515Y2003450D01*
X4720539Y1998827D01*
X4733544Y1996084D01*
X4748530Y1995170D01*
X4768596Y1995170D01*
X4768596Y1930400D01*
X4791710Y1930400D01*
X4791710Y2101088D01*
X4786376Y2102256D01*
X4768596Y2104644D01*
X4762550Y2105050D01*
G37*
G36*
X4474972Y2105406D02*
G01*
X4468622Y2105253D01*
X4462475Y2104847D01*
X4456531Y2104136D01*
X4450842Y2103120D01*
X4445406Y2101799D01*
X4440377Y2100072D01*
X4435652Y2097989D01*
X4431284Y2095500D01*
X4427423Y2092604D01*
X4424070Y2089353D01*
X4421073Y2085644D01*
X4418584Y2081530D01*
X4416602Y2076957D01*
X4415129Y2071827D01*
X4414316Y2066137D01*
X4414072Y2058162D01*
X4436872Y2058162D01*
X4437075Y2061718D01*
X4437634Y2065020D01*
X4438599Y2068068D01*
X4439920Y2070862D01*
X4441545Y2073402D01*
X4443476Y2075738D01*
X4445609Y2077872D01*
X4448048Y2079752D01*
X4450689Y2081275D01*
X4453483Y2082546D01*
X4456531Y2083562D01*
X4463084Y2084984D01*
X4469942Y2085746D01*
X4477004Y2085848D01*
X4488891Y2085543D01*
X4494022Y2085086D01*
X4494022Y2030475D01*
X4472279Y2030577D01*
X4465320Y2031187D01*
X4461764Y2031746D01*
X4455058Y2033676D01*
X4451959Y2034895D01*
X4449064Y2036318D01*
X4446422Y2037994D01*
X4444034Y2039924D01*
X4441952Y2042160D01*
X4440174Y2044700D01*
X4438751Y2047544D01*
X4437684Y2050745D01*
X4437075Y2054250D01*
X4436872Y2058162D01*
X4414072Y2058162D01*
X4414469Y2053945D01*
X4415790Y2048256D01*
X4418177Y2042617D01*
X4421378Y2037334D01*
X4425188Y2032558D01*
X4429506Y2028443D01*
X4431842Y2026666D01*
X4436770Y2023872D01*
X4439412Y2022856D01*
X4426356Y2017217D01*
X4415536Y2008378D01*
X4408322Y1996389D01*
X4405926Y1980692D01*
X4428744Y1980692D01*
X4428947Y1984959D01*
X4429607Y1988820D01*
X4430725Y1992325D01*
X4432300Y1995424D01*
X4434179Y1998218D01*
X4436364Y2000707D01*
X4438802Y2002891D01*
X4441444Y2004822D01*
X4444441Y2006396D01*
X4451045Y2008936D01*
X4454652Y2009902D01*
X4462424Y2011070D01*
X4470400Y2011425D01*
X4494022Y2011425D01*
X4494022Y1949450D01*
X4487672Y1948688D01*
X4473194Y1948434D01*
X4464761Y1948738D01*
X4456684Y1949704D01*
X4449064Y1951736D01*
X4445609Y1953107D01*
X4442460Y1954784D01*
X4439564Y1956866D01*
X4436922Y1959254D01*
X4434586Y1961946D01*
X4432554Y1964943D01*
X4430877Y1968195D01*
X4429709Y1971903D01*
X4428998Y1976069D01*
X4428744Y1980692D01*
X4405926Y1980692D01*
X4406900Y1969058D01*
X4409998Y1958441D01*
X4415180Y1949500D01*
X4422394Y1942084D01*
X4431893Y1936292D01*
X4443780Y1932178D01*
X4458157Y1929688D01*
X4474972Y1928875D01*
X4496054Y1929892D01*
X4501642Y1930450D01*
X4509922Y1931670D01*
X4516882Y1933193D01*
X4516882Y2101088D01*
X4512411Y2102256D01*
X4501794Y2103831D01*
X4487570Y2104999D01*
G37*
G36*
X2926334Y2105406D02*
G01*
X2911805Y2104440D01*
X2899156Y2101596D01*
X2893669Y2099360D01*
X2888640Y2096770D01*
X2884017Y2093772D01*
X2879852Y2090420D01*
X2876296Y2086711D01*
X2873197Y2082596D01*
X2870555Y2078177D01*
X2868422Y2073402D01*
X2866745Y2068423D01*
X2865577Y2063140D01*
X2864866Y2057501D01*
X2864672Y2050796D01*
X2888234Y2050796D01*
X2889250Y2061413D01*
X2892247Y2070150D01*
X2897327Y2076907D01*
X2904388Y2081733D01*
X2913481Y2084628D01*
X2924556Y2085593D01*
X2944520Y2085136D01*
X2948686Y2084578D01*
X2948686Y2014728D01*
X2929636Y2014728D01*
X2911297Y2016810D01*
X2898394Y2023110D01*
X2890774Y2034235D01*
X2888234Y2050796D01*
X2864672Y2050796D01*
X2865628Y2038756D01*
X2868625Y2027529D01*
X2873603Y2017928D01*
X2880614Y2009902D01*
X2889605Y2003450D01*
X2900629Y1998827D01*
X2913634Y1996084D01*
X2928620Y1995170D01*
X2948686Y1995170D01*
X2948686Y1930400D01*
X2971546Y1930400D01*
X2971546Y2101088D01*
X2966262Y2102256D01*
X2948432Y2104644D01*
X2942590Y2105050D01*
G37*
G36*
X2374900Y2105406D02*
G01*
X2368550Y2105253D01*
X2362403Y2104847D01*
X2356459Y2104136D01*
X2350770Y2103120D01*
X2345385Y2101799D01*
X2340356Y2100072D01*
X2335733Y2097989D01*
X2331466Y2095500D01*
X2327503Y2092604D01*
X2324049Y2089353D01*
X2321052Y2085644D01*
X2318512Y2081530D01*
X2316530Y2076957D01*
X2315108Y2071827D01*
X2314244Y2066137D01*
X2314000Y2058162D01*
X2336800Y2058162D01*
X2337003Y2061718D01*
X2337562Y2065020D01*
X2338527Y2068068D01*
X2339848Y2070862D01*
X2341524Y2073402D01*
X2343404Y2075738D01*
X2345537Y2077872D01*
X2347976Y2079752D01*
X2350617Y2081275D01*
X2353462Y2082546D01*
X2356459Y2083562D01*
X2363012Y2084984D01*
X2369972Y2085746D01*
X2377084Y2085848D01*
X2388819Y2085543D01*
X2393950Y2085086D01*
X2393950Y2030475D01*
X2372207Y2030577D01*
X2365248Y2031187D01*
X2361692Y2031746D01*
X2355138Y2033676D01*
X2349246Y2036318D01*
X2346604Y2037994D01*
X2344166Y2039924D01*
X2341981Y2042160D01*
X2340102Y2044700D01*
X2338679Y2047544D01*
X2337612Y2050745D01*
X2337003Y2054250D01*
X2336800Y2058162D01*
X2314000Y2058162D01*
X2314448Y2053945D01*
X2315972Y2048256D01*
X2318207Y2042617D01*
X2319629Y2039924D01*
X2323134Y2034895D01*
X2327198Y2030425D01*
X2331770Y2026666D01*
X2336698Y2023872D01*
X2339340Y2022856D01*
X2326284Y2017217D01*
X2315464Y2008378D01*
X2308250Y1996389D01*
X2305854Y1980692D01*
X2328672Y1980692D01*
X2328875Y1984959D01*
X2329586Y1988820D01*
X2330653Y1992325D01*
X2332228Y1995424D01*
X2334158Y1998218D01*
X2336292Y2000707D01*
X2338730Y2002891D01*
X2341372Y2004822D01*
X2344420Y2006396D01*
X2347671Y2007768D01*
X2351125Y2008936D01*
X2354834Y2009902D01*
X2362555Y2011070D01*
X2370582Y2011425D01*
X2393950Y2011425D01*
X2393950Y1949450D01*
X2387600Y1948688D01*
X2373376Y1948434D01*
X2364740Y1948738D01*
X2356612Y1949704D01*
X2352751Y1950618D01*
X2349144Y1951736D01*
X2345639Y1953107D01*
X2342388Y1954784D01*
X2339492Y1956866D01*
X2336850Y1959254D01*
X2334514Y1961946D01*
X2332482Y1964943D01*
X2330805Y1968195D01*
X2329637Y1971903D01*
X2328926Y1976069D01*
X2328672Y1980692D01*
X2305854Y1980692D01*
X2306828Y1969058D01*
X2309926Y1958441D01*
X2315108Y1949500D01*
X2322322Y1942084D01*
X2331821Y1936292D01*
X2343708Y1932178D01*
X2358085Y1929688D01*
X2374900Y1928875D01*
X2398776Y1930146D01*
X2407158Y1931162D01*
X2417064Y1933193D01*
X2417064Y2101088D01*
X2412441Y2102256D01*
X2401722Y2103831D01*
X2390394Y2104847D01*
G37*
G36*
X4022090Y2103628D02*
G01*
X4022090Y1949957D01*
X3989324Y1949957D01*
X3989324Y1930400D01*
X4082542Y1930400D01*
X4082542Y1949957D01*
X4045204Y1949957D01*
X4045204Y2071624D01*
X4048556Y2068779D01*
X4052570Y2065782D01*
X4057091Y2062784D01*
X4061968Y2059939D01*
X4070096Y2055875D01*
X4075684Y2053488D01*
X4083812Y2050542D01*
X4091178Y2067814D01*
X4076954Y2074164D01*
X4063237Y2082038D01*
X4050284Y2091740D01*
X4038346Y2103628D01*
G37*
G36*
X2663698Y2103628D02*
G01*
X2663698Y1949957D01*
X2583180Y1949957D01*
X2583180Y1930400D01*
X2686558Y1930400D01*
X2686558Y2103628D01*
G37*
G36*
X2487168Y2103628D02*
G01*
X2479243Y2082495D01*
X2471674Y2060193D01*
X2464511Y2037384D01*
X2457704Y2014728D01*
X2452022Y1994916D01*
X2474722Y1994916D01*
X2481326Y2019604D01*
X2488438Y2043430D01*
X2495600Y2065121D01*
X2502408Y2083562D01*
X2509062Y2064562D01*
X2516378Y2042668D01*
X2523744Y2019147D01*
X2530602Y1994916D01*
X2452022Y1994916D01*
X2442413Y1959914D01*
X2434590Y1930400D01*
X2458974Y1930400D01*
X2469388Y1975866D01*
X2535936Y1975866D01*
X2546096Y1930400D01*
X2569464Y1930400D01*
X2564536Y1949704D01*
X2552700Y1992375D01*
X2546096Y2014728D01*
X2539034Y2037384D01*
X2531618Y2060193D01*
X2523998Y2082495D01*
X2515870Y2103628D01*
G37*
G36*
X4120387Y2060193D02*
G01*
X4125772Y2042261D01*
X4131818Y2024634D01*
X4145026Y1990343D01*
X4151884Y1974138D01*
X4158742Y1958593D01*
X4172204Y1930400D01*
X4193286Y1930400D01*
X4202125Y1948789D01*
X4211015Y1968804D01*
X4219956Y1990343D01*
X4224375Y2001621D01*
X4232605Y2024583D01*
X4240123Y2048154D01*
X4243578Y2060193D01*
X4218432Y2060193D01*
X4214876Y2047646D01*
X4210812Y2034286D01*
X4201668Y2006854D01*
X4192015Y1980438D01*
X4187190Y1968347D01*
X4182364Y1957578D01*
X4177487Y1968347D01*
X4167276Y1993392D01*
X4152392Y2034286D01*
X4148124Y2047646D01*
X4144518Y2060193D01*
G37*
G36*
X3142996Y2060193D02*
G01*
X3149193Y2036216D01*
X3155848Y2012797D01*
X3163062Y1989836D01*
X3170529Y1967585D01*
X3178403Y1946503D01*
X3186684Y1926589D01*
X3191611Y1916023D01*
X3196844Y1907286D01*
X3199688Y1903374D01*
X3205632Y1896668D01*
X3208782Y1893824D01*
X3212084Y1891334D01*
X3215589Y1889201D01*
X3219297Y1887372D01*
X3223260Y1885950D01*
X3227476Y1884832D01*
X3231946Y1884019D01*
X3236722Y1883562D01*
X3244545Y1883511D01*
X3250387Y1884121D01*
X3256381Y1885391D01*
X3260598Y1886661D01*
X3261867Y1887220D01*
X3257803Y1906016D01*
X3254756Y1904796D01*
X3250692Y1903730D01*
X3246272Y1903171D01*
X3242056Y1902968D01*
X3235604Y1903374D01*
X3229864Y1904492D01*
X3224936Y1906422D01*
X3220720Y1909064D01*
X3216960Y1912467D01*
X3213354Y1916887D01*
X3209848Y1922272D01*
X3206496Y1928622D01*
X3216757Y1948891D01*
X3226612Y1970176D01*
X3235960Y1992375D01*
X3244545Y2015032D01*
X3252114Y2037638D01*
X3258565Y2060193D01*
X3233420Y2060193D01*
X3230372Y2048560D01*
X3226816Y2036064D01*
X3222752Y2022906D01*
X3213354Y1995627D01*
X3208020Y1981707D01*
X3202432Y1968246D01*
X3196336Y1955292D01*
X3187954Y1980692D01*
X3184245Y1993392D01*
X3170631Y2045868D01*
X3167126Y2060193D01*
G37*
G36*
X3761486Y2038857D02*
G01*
X3758082Y2038502D01*
X3755085Y2037486D01*
X3752392Y2035708D01*
X3750056Y2033270D01*
X3748176Y2030374D01*
X3746804Y2027224D01*
X3745992Y2023872D01*
X3745737Y2020316D01*
X3745992Y2016760D01*
X3746804Y2013457D01*
X3748176Y2010410D01*
X3750056Y2007616D01*
X3752392Y2005279D01*
X3755085Y2003602D01*
X3758082Y2002637D01*
X3761486Y2002282D01*
X3764991Y2002637D01*
X3768090Y2003602D01*
X3770833Y2005279D01*
X3773170Y2007616D01*
X3775151Y2010410D01*
X3776573Y2013457D01*
X3777437Y2016760D01*
X3777742Y2020316D01*
X3777437Y2023872D01*
X3776573Y2027224D01*
X3775151Y2030374D01*
X3773170Y2033270D01*
X3770833Y2035708D01*
X3768090Y2037486D01*
X3764991Y2038502D01*
G37*
G36*
X2751328Y2012442D02*
G01*
X2751328Y1990598D01*
X2812796Y1990598D01*
X2812796Y2012442D01*
G37*
G36*
X3901694Y1969770D02*
G01*
X3897325Y1969363D01*
X3893413Y1968195D01*
X3889959Y1966214D01*
X3886962Y1963420D01*
X3884523Y1960118D01*
X3882796Y1956511D01*
X3881729Y1952599D01*
X3881374Y1948434D01*
X3881729Y1944268D01*
X3882745Y1940356D01*
X3884523Y1936750D01*
X3886962Y1933448D01*
X3889959Y1930654D01*
X3893413Y1928672D01*
X3897325Y1927504D01*
X3901694Y1927098D01*
X3906265Y1927504D01*
X3910329Y1928672D01*
X3913886Y1930654D01*
X3916934Y1933448D01*
X3919372Y1936750D01*
X3921150Y1940356D01*
X3922166Y1944268D01*
X3922522Y1948434D01*
X3922166Y1952599D01*
X3921150Y1956511D01*
X3919372Y1960118D01*
X3916934Y1963420D01*
X3913886Y1966214D01*
X3910329Y1968195D01*
X3906265Y1969363D01*
G37*
G36*
X1727200Y5245100D02*
G01*
X3556000Y5245100D01*
X3556000Y4495800D01*
X1727200Y4495800D01*
G37*
M02*
